{"glyphs":{"0":{"ha":860,"x_min":0,"x_max":0,"o":"m 86 694 b 431 1006 86 888 214 1006 b 774 694 647 1006 774 888 l 774 293 b 431 -19 774 99 647 -19 b 86 293 213 -19 86 99 m 732 694 b 431 968 732 865 621 968 b 128 694 238 968 128 865 l 128 293 b 431 18 128 121 238 18 b 732 293 621 18 732 121 "},"1":{"ha":619,"x_min":0,"x_max":0,"o":"m 481 986 b 492 975 488 986 492 982 l 492 11 b 481 0 492 4 488 0 l 463 0 b 451 11 456 0 451 4 l 451 938 l 76 729 b 61 733 69 725 65 726 l 51 749 b 56 763 47 756 49 760 l 450 981 b 465 986 454 985 460 986 "},"2":{"ha":808,"x_min":0,"x_max":0,"o":"m 79 782 b 432 1006 146 933 253 1006 b 650 924 521 1006 593 978 b 733 719 706 868 733 800 b 685 549 728 644 721 594 b 607 476 657 517 647 501 b 561 447 586 464 571 454 b 506 421 550 440 532 432 b 451 399 479 410 461 403 b 390 375 440 394 419 386 b 236 306 319 349 290 338 b 174 258 208 290 188 274 b 119 117 144 226 119 176 l 119 38 l 721 38 b 732 26 728 38 732 33 l 732 11 b 721 0 732 4 728 0 l 89 0 b 78 13 82 0 78 4 l 78 111 b 138 279 78 182 106 242 b 208 335 153 297 176 317 b 288 375 239 353 265 365 b 379 413 308 385 339 397 b 579 504 478 450 544 481 b 692 718 654 556 692 626 b 619 896 692 789 668 847 b 432 968 571 944 508 968 b 118 767 275 968 179 904 b 104 760 115 760 111 757 l 86 768 b 79 782 79 771 78 775 "},"3":{"ha":817,"x_min":0,"x_max":0,"o":"m 717 733 b 579 510 717 629 672 542 b 746 265 690 478 746 396 b 424 -19 746 83 640 -19 b 75 231 217 -19 124 60 b 83 246 74 238 76 243 l 99 251 b 114 244 106 254 111 251 b 217 72 138 165 171 108 b 424 18 263 36 331 18 b 706 265 614 18 706 108 b 486 488 706 400 626 488 l 236 488 b 225 499 229 488 225 492 l 225 514 b 236 525 225 521 229 525 l 483 525 b 678 732 613 525 678 615 b 425 968 678 886 593 968 b 122 750 246 968 168 904 b 107 743 119 743 114 740 l 92 747 b 83 763 83 750 81 756 b 425 1006 132 929 224 1006 b 717 733 618 1006 717 907 "},"4":{"ha":824,"x_min":0,"x_max":0,"o":"m 771 338 b 782 326 778 338 782 333 l 782 311 b 771 300 782 304 778 300 l 614 300 l 614 11 b 603 0 614 4 610 0 l 586 0 b 575 11 579 0 575 4 l 575 300 l 49 300 b 38 311 42 300 38 304 l 38 322 b 42 338 38 329 39 333 l 568 996 b 583 1003 572 1000 576 1003 l 601 1003 b 614 992 610 1003 614 999 l 614 338 m 575 944 l 88 338 l 575 338 "},"5":{"ha":801,"x_min":0,"x_max":0,"o":"m 696 986 b 707 975 703 986 707 982 l 707 960 b 696 949 707 953 703 949 l 189 949 l 153 576 l 433 576 b 742 285 633 576 742 456 b 654 68 742 199 713 126 b 418 -21 594 8 517 -21 b 68 193 235 -21 118 50 b 72 207 65 200 67 206 l 92 215 b 106 207 99 217 104 214 b 417 17 150 81 254 17 b 624 94 504 17 572 43 b 700 285 675 146 700 208 b 432 538 700 431 604 538 l 125 538 b 110 556 114 538 108 543 l 151 964 b 175 986 153 979 160 986 "},"6":{"ha":847,"x_min":0,"x_max":0,"o":"m 126 500 b 444 558 211 539 318 558 b 778 269 671 558 778 464 b 432 -19 778 88 649 -19 b 85 322 208 -19 85 107 l 85 664 b 432 1006 85 888 204 1006 b 763 799 600 1006 710 936 b 756 785 767 792 764 788 l 739 778 b 725 786 732 776 728 779 b 432 968 676 907 578 968 b 126 664 232 968 126 864 m 126 322 b 432 18 126 129 233 18 b 736 269 625 18 736 108 b 443 521 736 440 643 521 b 126 460 318 521 213 500 "},"7":{"ha":699,"x_min":0,"x_max":0,"o":"m 674 986 b 685 975 681 986 685 982 l 685 964 b 681 949 685 960 683 956 l 269 10 b 250 0 265 3 260 0 l 231 0 b 225 11 224 0 222 4 l 638 949 l 51 949 b 40 960 44 949 40 953 l 40 975 b 51 986 40 982 44 986 "},"8":{"ha":842,"x_min":0,"x_max":0,"o":"m 101 763 b 421 1006 101 919 219 1006 b 742 765 632 1006 742 922 b 651 569 742 678 706 608 b 504 500 597 531 554 513 b 688 417 586 476 632 456 b 769 235 742 376 769 314 b 421 -19 769 65 653 -19 b 72 225 189 -19 72 63 b 179 433 72 315 115 390 b 343 508 243 476 289 496 b 101 763 189 558 101 622 m 701 763 b 421 969 701 897 604 969 b 142 763 244 969 142 896 b 172 651 142 718 156 678 b 256 582 189 624 229 597 b 371 539 282 567 342 547 b 433 521 385 535 406 528 l 447 517 b 554 549 476 522 497 525 b 625 592 582 561 606 575 b 701 763 664 624 701 686 m 728 233 b 604 422 728 332 681 386 b 428 483 549 449 504 461 b 397 492 418 486 410 489 b 282 457 368 486 344 483 b 201 410 250 443 224 428 b 114 226 157 375 114 306 b 421 17 114 86 217 17 b 728 233 625 17 728 89 "},"9":{"ha":847,"x_min":0,"x_max":0,"o":"m 722 486 b 404 428 632 447 526 428 b 71 717 176 428 71 522 b 417 1006 71 899 200 1006 b 763 664 640 1006 763 879 l 763 322 b 417 -19 763 99 643 -19 b 85 188 249 -19 138 50 b 92 201 83 194 85 199 l 110 208 b 124 200 115 210 119 207 b 417 18 172 79 271 18 b 722 322 617 18 722 122 m 722 664 b 417 968 722 854 615 968 b 111 717 222 968 111 878 b 406 465 111 546 204 465 b 722 526 529 465 635 486 "}," ":{"ha":346,"x_min":0,"x_max":0,"o":""},"!":{"ha":247,"x_min":0,"x_max":0,"o":"m 135 1028 b 144 1018 142 1028 146 1025 l 139 204 b 129 194 139 197 136 194 l 119 194 b 108 204 113 194 108 197 l 103 1018 b 114 1028 103 1025 107 1028 m 128 56 b 154 28 149 56 154 49 l 154 21 b 128 -6 154 0 149 -6 l 121 -6 b 94 21 100 -6 94 -1 l 94 28 b 121 56 94 49 100 56 "},"\"":{"ha":350,"x_min":0,"x_max":0,"o":"m 126 690 b 117 682 126 685 124 682 l 107 682 b 97 690 100 682 97 685 l 97 976 b 107 986 97 983 100 986 l 126 986 b 136 976 133 986 136 983 m 249 690 b 239 682 249 685 246 682 l 229 682 b 219 690 222 682 219 685 l 219 976 b 229 986 219 983 222 986 l 249 986 b 258 976 256 986 258 983 "},"#":{"ha":910,"x_min":0,"x_max":0,"o":"m 853 642 b 860 631 860 642 863 638 l 856 614 b 842 606 854 608 849 606 l 668 606 l 586 326 l 758 326 b 767 315 765 326 768 322 l 761 299 b 747 290 760 293 754 290 l 575 290 l 492 10 b 476 0 488 3 483 0 l 458 0 b 450 10 451 0 449 3 l 535 290 l 275 290 l 190 10 b 178 0 189 3 185 0 l 158 0 b 151 10 151 0 149 3 l 235 290 l 65 290 b 57 300 57 290 54 293 l 63 317 b 76 326 64 324 68 326 l 246 326 l 329 606 l 158 606 b 151 615 151 606 149 608 l 156 632 b 171 642 158 639 164 642 l 340 642 l 413 882 b 425 893 414 889 418 893 l 444 893 b 451 882 451 893 454 889 l 379 642 l 639 642 l 711 882 b 724 893 714 889 718 893 l 742 893 b 751 882 751 893 754 889 l 679 642 m 369 606 l 285 326 l 544 326 l 629 606 "},"$":{"ha":818,"x_min":0,"x_max":0,"o":"m 415 1097 b 426 1088 422 1097 426 1094 l 426 983 b 619 924 508 979 572 960 b 744 757 665 888 707 832 b 739 740 749 749 747 743 l 724 733 b 707 739 717 731 711 732 b 394 946 638 881 571 939 b 131 714 218 946 131 868 b 163 601 131 665 146 628 b 244 546 178 575 221 556 b 358 521 265 536 336 524 b 422 514 371 519 393 517 b 519 501 464 510 496 506 b 606 481 543 497 571 490 b 683 440 639 469 665 456 b 750 268 719 407 750 347 b 426 4 750 94 642 7 l 426 -101 b 415 -111 426 -108 422 -111 l 399 -111 b 388 -101 392 -111 388 -108 l 388 3 b 68 250 219 10 131 93 b 75 267 64 257 67 263 l 89 272 b 106 265 96 275 101 272 b 415 40 171 111 249 40 b 710 267 611 40 710 115 b 681 382 710 315 696 356 b 601 440 664 408 626 429 b 490 467 576 451 518 463 b 429 474 476 468 456 471 b 417 475 424 474 421 475 b 319 488 375 479 343 483 b 233 508 296 490 267 497 b 157 547 200 518 175 532 b 89 713 121 579 89 635 b 388 983 89 885 189 982 l 388 1088 b 399 1097 388 1094 392 1097 "},"%":{"ha":1119,"x_min":0,"x_max":0,"o":"m 56 804 b 267 1007 56 931 132 1007 b 478 804 401 1007 478 931 l 478 700 b 267 499 478 574 401 499 b 56 700 132 499 56 574 m 931 986 b 936 974 942 986 943 982 l 228 10 b 204 0 222 3 214 0 l 190 0 b 183 13 179 0 176 4 l 893 976 b 914 986 897 983 904 986 m 443 803 b 267 974 443 910 379 974 b 90 803 151 974 90 910 l 90 701 b 267 532 90 594 151 532 b 443 701 379 532 443 594 m 642 285 b 853 488 642 411 718 488 b 1064 285 988 488 1064 411 l 1064 181 b 853 -21 1064 54 988 -21 b 642 181 718 -21 642 54 m 1029 283 b 853 454 1029 390 965 454 b 676 283 740 454 676 390 l 676 182 b 853 13 676 75 740 13 b 1029 182 968 13 1029 75 "},"&":{"ha":900,"x_min":0,"x_max":0,"o":"m 149 779 b 215 939 149 840 171 893 b 386 1006 260 983 317 1006 b 556 939 454 1006 510 983 b 622 781 600 894 622 842 b 565 626 622 715 603 664 b 372 515 528 589 463 553 l 358 508 l 672 211 l 776 310 b 792 310 781 314 786 314 l 803 297 b 803 283 807 293 807 288 l 699 185 l 879 11 b 874 0 886 4 885 0 l 850 0 b 831 8 843 0 836 3 l 672 160 b 476 15 590 86 525 39 b 315 -19 426 -8 372 -19 b 138 54 246 -19 186 6 b 63 233 88 103 63 163 b 136 419 63 313 86 375 b 297 519 185 464 225 488 b 174 678 238 576 207 610 b 149 779 157 711 149 744 m 585 781 b 529 914 585 832 567 876 b 386 971 492 951 443 971 b 243 914 328 971 281 951 b 188 779 206 876 188 831 b 261 608 188 714 228 644 b 333 536 278 590 301 565 l 356 546 b 419 574 388 560 408 569 b 471 600 429 578 447 588 b 521 632 494 613 511 622 b 585 781 551 661 593 714 m 324 493 b 101 232 175 432 101 369 b 165 79 101 172 122 121 b 317 17 207 38 257 17 b 463 50 368 17 417 28 b 646 186 508 72 569 118 "},"'":{"ha":228,"x_min":0,"x_max":0,"o":"m 126 690 b 117 682 126 685 124 682 l 107 682 b 97 690 100 682 97 685 l 97 976 b 107 986 97 983 100 986 l 126 986 b 136 976 133 986 136 983 "},"(":{"ha":321,"x_min":0,"x_max":0,"o":"m 89 849 b 282 1153 89 1008 150 1092 b 296 1147 289 1157 293 1154 l 303 1133 b 297 1119 306 1126 304 1122 b 126 850 181 1065 126 990 l 126 136 b 297 -133 126 -4 181 -79 b 303 -147 304 -137 307 -142 l 296 -161 b 282 -167 293 -168 289 -171 b 89 138 150 -106 89 -22 "},")":{"ha":321,"x_min":0,"x_max":0,"o":"m 28 1147 b 42 1153 32 1154 36 1156 b 235 849 174 1093 235 1008 l 235 138 b 42 -167 235 -22 174 -107 b 28 -161 36 -169 32 -168 l 21 -147 b 26 -133 19 -142 21 -137 b 197 136 143 -79 197 -4 l 197 850 b 26 1119 197 990 143 1065 b 21 1133 21 1124 19 1128 "},"*":{"ha":546,"x_min":0,"x_max":0,"o":"m 283 935 b 290 926 289 935 292 932 l 285 760 l 442 817 b 454 813 449 818 453 817 l 458 796 b 453 785 461 789 460 786 l 292 742 l 394 608 b 393 596 399 604 399 600 l 381 586 b 368 589 375 583 371 585 l 275 729 l 181 590 b 168 586 176 583 172 582 l 156 597 b 154 608 149 601 149 606 l 258 742 l 100 786 b 92 797 93 788 90 790 l 97 813 b 110 818 99 817 103 819 l 265 760 l 260 926 b 267 935 258 932 261 935 "},"+":{"ha":814,"x_min":0,"x_max":0,"o":"m 724 472 b 735 461 731 472 735 468 l 735 447 b 724 436 735 440 731 436 l 425 436 l 425 138 b 414 126 425 131 421 126 l 400 126 b 389 138 393 126 389 131 l 389 436 l 90 436 b 79 447 83 436 79 440 l 79 461 b 90 472 79 468 83 472 l 389 472 l 389 771 b 400 782 389 778 393 782 l 414 782 b 425 771 421 782 425 778 l 425 472 "},",":{"ha":208,"x_min":0,"x_max":0,"o":"m 57 -158 b 43 -168 54 -165 50 -168 l 36 -168 b 28 -160 29 -168 26 -165 l 85 50 b 103 64 86 60 93 64 l 118 64 b 131 50 131 64 135 60 "},"-":{"ha":596,"x_min":0,"x_max":0,"o":"m 494 388 b 506 376 501 388 506 383 l 506 361 b 494 350 506 354 501 350 l 103 350 b 92 361 96 350 92 354 l 92 376 b 103 388 92 383 96 388 "},".":{"ha":211,"x_min":0,"x_max":0,"o":"m 108 56 b 136 28 129 56 136 49 l 136 21 b 108 -6 136 0 129 -6 l 101 -6 b 75 21 81 -6 75 -1 l 75 28 b 101 56 75 49 81 56 "},"/":{"ha":531,"x_min":0,"x_max":0,"o":"m 96 -74 b 81 -83 93 -81 88 -83 l 63 -83 b 56 -74 56 -83 53 -81 l 444 976 b 458 986 447 983 451 986 l 478 986 b 485 976 486 986 489 983 "},":":{"ha":243,"x_min":0,"x_max":0,"o":"m 125 665 b 151 638 146 665 151 658 l 151 631 b 125 604 151 610 146 604 l 118 604 b 92 631 97 604 92 608 l 92 638 b 118 665 92 658 97 665 m 125 56 b 151 28 146 56 151 49 l 151 21 b 125 -6 151 0 146 -6 l 118 -6 b 92 21 97 -6 92 -1 l 92 28 b 118 56 92 49 97 56 "},";":{"ha":303,"x_min":0,"x_max":0,"o":"m 171 665 b 199 638 192 665 199 658 l 199 631 b 171 604 199 610 192 604 l 165 604 b 138 631 143 604 138 608 l 138 638 b 165 665 138 658 144 665 m 113 -158 b 100 -168 110 -165 106 -168 l 92 -168 b 85 -160 86 -168 83 -165 l 142 50 b 160 64 143 60 150 64 l 175 64 b 186 50 186 64 190 60 "},"<":{"ha":706,"x_min":0,"x_max":0,"o":"m 599 761 b 613 753 608 767 613 764 l 613 736 b 600 717 613 728 608 721 l 110 454 l 110 453 l 600 190 b 613 169 608 185 613 178 l 613 153 b 599 144 613 142 608 139 l 68 432 b 57 447 61 436 57 440 l 57 458 b 68 475 57 465 61 471 "},"=":{"ha":840,"x_min":0,"x_max":0,"o":"m 738 610 b 749 599 744 610 749 606 l 749 583 b 738 572 749 576 744 572 l 104 572 b 93 583 97 572 93 576 l 93 599 b 104 610 93 606 97 610 m 738 335 b 749 325 744 335 749 332 l 749 308 b 738 299 749 301 744 299 l 104 299 b 93 308 97 299 93 301 l 93 325 b 104 335 93 332 97 335 "},">":{"ha":706,"x_min":0,"x_max":0,"o":"m 93 753 b 107 761 93 764 97 767 l 638 475 b 649 458 644 471 649 465 l 649 447 b 638 432 649 440 644 436 l 107 144 b 93 153 97 140 93 143 l 93 169 b 106 189 93 178 97 185 l 596 451 l 596 453 l 106 717 b 93 736 97 721 93 728 "},"?":{"ha":764,"x_min":0,"x_max":0,"o":"m 53 799 b 396 1028 111 951 225 1028 b 632 947 494 1028 574 1001 b 719 743 690 893 719 825 b 679 571 719 672 700 608 b 632 511 668 551 653 532 b 525 426 588 467 578 463 b 396 299 460 382 429 361 b 371 193 379 267 371 232 b 360 182 371 186 367 182 l 346 182 b 335 193 339 182 335 186 b 389 360 335 264 350 317 b 503 456 426 403 447 418 b 622 557 560 494 582 511 b 678 742 661 603 678 663 b 603 919 678 813 653 872 b 394 990 551 967 482 990 b 89 786 243 990 142 922 b 75 779 86 779 82 776 l 58 785 b 53 799 51 788 49 792 m 357 56 b 383 28 378 56 383 49 l 383 21 b 357 -6 383 0 378 -6 l 350 -6 b 324 21 329 -6 324 -1 l 324 28 b 350 56 324 49 329 56 "},"@":{"ha":1250,"x_min":0,"x_max":0,"o":"m 72 453 b 218 858 72 624 121 760 b 621 1006 315 957 450 1006 b 1029 856 797 1006 933 956 b 1174 453 1125 756 1174 621 l 1174 358 b 1101 142 1174 264 1150 192 b 928 67 1053 92 996 67 b 849 128 883 67 857 88 b 586 68 772 88 685 68 b 351 292 429 68 351 149 l 351 515 b 586 742 351 660 429 742 b 826 700 678 742 758 728 b 874 633 864 685 874 672 l 874 153 b 929 99 874 117 892 99 b 1139 357 1044 99 1139 189 l 1139 453 b 1004 833 1139 613 1094 739 b 621 974 914 926 786 974 b 244 835 461 974 335 928 b 107 453 153 742 107 615 l 107 357 b 621 -151 107 31 297 -151 b 908 -115 757 -151 874 -125 l 918 -112 b 926 -115 924 -111 926 -112 l 926 -135 b 918 -144 926 -139 924 -143 b 621 -183 814 -171 715 -183 b 72 358 275 -183 72 10 m 806 672 b 589 708 749 696 676 708 b 386 515 454 708 386 644 l 386 293 b 589 101 386 165 454 101 b 839 163 696 101 779 122 l 839 626 b 806 672 839 653 832 661 "},"A":{"ha":871,"x_min":0,"x_max":0,"o":"m 857 11 b 849 0 860 4 857 0 l 832 0 b 813 10 822 0 815 3 l 678 344 l 200 344 l 65 10 b 44 0 63 3 56 0 l 31 0 b 22 11 22 0 19 4 l 415 982 b 431 993 418 989 424 993 l 447 993 b 464 983 456 993 461 990 m 449 914 b 439 951 444 926 440 939 l 438 951 b 429 914 435 933 432 921 l 213 379 l 665 379 "},"B":{"ha":886,"x_min":0,"x_max":0,"o":"m 525 986 b 781 740 688 986 781 900 b 631 508 781 617 731 540 l 631 507 b 815 260 749 483 815 397 b 546 0 815 93 717 0 l 129 0 b 118 11 122 0 118 4 l 118 975 b 129 986 118 982 122 986 m 685 578 b 740 736 722 614 740 667 b 685 894 740 806 722 858 b 522 949 647 931 593 949 l 158 949 l 158 522 l 522 522 b 685 578 593 522 647 540 m 713 96 b 772 263 753 135 772 190 b 714 428 772 335 753 390 b 544 485 674 465 618 485 l 158 485 l 158 38 l 544 38 b 713 96 617 38 672 57 "},"C":{"ha":879,"x_min":0,"x_max":0,"o":"m 88 668 b 457 1006 88 879 218 1006 b 819 761 668 1006 771 926 b 811 747 822 753 819 749 l 796 742 b 781 749 789 739 783 742 b 457 968 735 900 646 968 b 129 669 242 968 129 857 l 129 318 b 457 18 129 131 246 18 b 785 246 650 18 739 90 b 799 253 788 253 792 256 l 815 247 b 822 232 822 246 824 240 b 457 -19 776 64 674 -19 b 88 319 219 -19 88 107 "},"D":{"ha":892,"x_min":0,"x_max":0,"o":"m 407 986 b 810 619 663 986 810 847 l 810 367 b 407 0 810 139 663 0 l 129 0 b 118 11 122 0 118 4 l 118 975 b 129 986 118 982 122 986 m 769 619 b 407 949 769 826 640 949 l 158 949 l 158 38 l 407 38 b 769 367 639 38 769 160 "},"E":{"ha":789,"x_min":0,"x_max":0,"o":"m 700 986 b 711 975 707 986 711 982 l 711 960 b 700 949 711 953 707 949 l 158 949 l 158 519 l 640 519 b 651 508 647 519 651 515 l 651 492 b 640 481 651 485 647 481 l 158 481 l 158 38 l 719 38 b 731 26 726 38 731 33 l 731 11 b 719 0 731 4 726 0 l 129 0 b 118 11 122 0 118 4 l 118 975 b 129 986 118 982 122 986 "},"F":{"ha":761,"x_min":0,"x_max":0,"o":"m 700 986 b 711 975 707 986 711 982 l 711 960 b 700 949 711 953 707 949 l 158 949 l 158 504 l 632 504 b 643 493 639 504 643 500 l 643 476 b 632 465 643 469 639 465 l 158 465 l 158 11 b 147 0 158 4 154 0 l 129 0 b 118 11 122 0 118 4 l 118 975 b 129 986 118 982 122 986 "},"G":{"ha":901,"x_min":0,"x_max":0,"o":"m 814 488 b 826 475 822 488 826 483 l 826 317 b 458 -19 826 107 693 -19 b 88 321 219 -19 88 108 l 88 668 b 457 1006 88 879 218 1006 b 819 761 668 1006 771 926 b 811 747 822 753 819 749 l 796 742 b 781 749 789 739 783 742 b 457 968 735 900 646 968 b 128 669 240 968 128 857 l 128 322 b 458 18 128 132 246 18 b 786 318 668 18 786 131 l 786 449 l 469 449 b 458 460 463 449 458 453 l 458 476 b 469 488 458 483 463 488 "},"H":{"ha":940,"x_min":0,"x_max":0,"o":"m 813 986 b 824 975 819 986 824 982 l 824 11 b 813 0 824 4 819 0 l 793 0 b 782 11 786 0 782 4 l 782 481 l 158 481 l 158 11 b 147 0 158 4 154 0 l 129 0 b 118 11 122 0 118 4 l 118 975 b 129 986 118 982 122 986 l 147 986 b 158 975 154 986 158 982 l 158 519 l 782 519 l 782 975 b 793 986 782 982 786 986 "},"I":{"ha":276,"x_min":0,"x_max":0,"o":"m 118 975 b 129 986 118 982 122 986 l 147 986 b 158 975 154 986 158 982 l 158 11 b 147 0 158 4 154 0 l 129 0 b 118 11 122 0 118 4 "},"J":{"ha":785,"x_min":0,"x_max":0,"o":"m 667 986 b 678 975 674 986 678 982 l 678 296 b 357 -21 678 100 561 -21 b 38 263 176 -21 69 74 b 43 276 35 269 36 274 l 61 283 b 76 275 68 286 74 283 b 357 18 106 107 189 18 b 638 296 536 18 638 124 l 638 975 b 649 986 638 982 642 986 "},"K":{"ha":825,"x_min":0,"x_max":0,"o":"m 794 13 b 789 0 801 4 799 0 l 772 0 b 750 10 761 0 754 3 l 583 342 b 357 481 533 442 475 481 l 158 481 l 158 11 b 147 0 158 4 154 0 l 129 0 b 118 11 122 0 118 4 l 118 975 b 129 986 118 982 122 986 l 147 986 b 158 975 154 986 158 982 l 158 519 l 356 519 b 394 518 374 519 386 519 l 732 976 b 756 986 736 983 744 986 l 774 986 b 781 974 785 986 788 982 l 438 511 b 619 360 517 496 578 444 "},"L":{"ha":717,"x_min":0,"x_max":0,"o":"m 147 986 b 158 975 154 986 158 982 l 158 38 l 686 38 b 697 26 693 38 697 33 l 697 11 b 686 0 697 4 693 0 l 129 0 b 118 11 122 0 118 4 l 118 975 b 129 986 118 982 122 986 "},"M":{"ha":1100,"x_min":0,"x_max":0,"o":"m 971 986 b 982 975 978 986 982 982 l 982 11 b 971 0 982 4 978 0 l 953 0 b 942 11 946 0 942 4 l 943 694 b 949 917 943 775 944 849 l 946 917 b 844 731 919 865 886 804 l 574 249 b 558 239 569 242 565 239 l 544 239 b 528 249 538 239 532 242 l 253 738 b 156 918 215 803 183 863 l 153 918 b 157 694 156 842 157 767 l 157 11 b 146 0 157 4 153 0 l 129 0 b 118 11 122 0 118 4 l 118 975 b 129 986 118 982 122 986 l 144 986 b 161 975 151 986 157 982 l 551 289 l 938 974 b 956 986 942 982 947 986 "},"N":{"ha":953,"x_min":0,"x_max":0,"o":"m 825 986 b 836 975 832 986 836 982 l 836 11 b 825 0 836 4 832 0 l 807 0 b 793 8 801 0 797 3 l 268 753 b 211 840 256 772 236 801 b 156 922 185 879 167 907 l 154 922 b 157 819 154 904 156 869 b 158 704 158 769 158 731 l 158 11 b 147 0 158 4 154 0 l 129 0 b 118 11 122 0 118 4 l 118 975 b 129 986 118 982 122 986 l 146 986 b 160 979 153 986 157 983 l 669 256 b 735 161 683 236 706 204 b 799 65 764 117 785 85 l 801 65 b 799 181 801 86 800 125 b 796 308 797 235 796 278 l 796 976 b 807 986 796 983 800 986 "},"O":{"ha":914,"x_min":0,"x_max":0,"o":"m 88 667 b 458 1006 88 879 219 1006 b 826 667 696 1006 826 879 l 826 319 b 458 -19 826 107 696 -19 b 88 319 219 -19 88 107 m 785 665 b 458 968 785 856 668 968 b 128 665 246 968 128 856 l 128 321 b 458 18 128 131 246 18 b 785 321 668 18 785 131 "},"P":{"ha":854,"x_min":0,"x_max":0,"o":"m 504 986 b 807 688 692 986 807 875 b 504 393 807 504 692 393 l 158 393 l 158 11 b 147 0 158 4 154 0 l 129 0 b 118 11 122 0 118 4 l 118 975 b 129 986 118 982 122 986 m 500 431 b 764 688 665 431 764 526 b 500 949 764 853 665 949 l 158 949 l 158 431 "},"Q":{"ha":926,"x_min":0,"x_max":0,"o":"m 842 -50 b 842 -67 847 -56 847 -61 l 829 -76 b 813 -76 824 -82 818 -82 l 706 51 b 458 -19 644 4 563 -19 b 88 319 219 -19 88 107 l 88 667 b 458 1006 88 879 219 1006 b 826 667 696 1006 826 879 l 826 319 b 736 75 826 215 796 133 m 128 321 b 458 18 128 131 246 18 b 785 321 668 18 785 131 l 785 665 b 458 968 785 856 668 968 b 128 665 246 968 128 856 "},"R":{"ha":886,"x_min":0,"x_max":0,"o":"m 531 986 b 807 714 704 986 807 886 b 549 449 807 553 708 456 b 678 324 601 429 644 388 l 835 13 b 828 0 839 4 838 0 l 811 0 b 789 10 801 0 794 3 l 640 306 b 415 444 590 406 532 444 l 158 444 l 158 11 b 147 0 158 4 154 0 l 129 0 b 118 11 122 0 118 4 l 118 975 b 129 986 118 982 122 986 m 764 714 b 526 949 764 864 678 949 l 158 949 l 158 483 l 526 483 b 764 714 676 483 764 565 "},"S":{"ha":861,"x_min":0,"x_max":0,"o":"m 88 736 b 429 1006 88 903 217 1006 b 793 789 611 1006 719 940 b 788 774 797 782 794 776 l 771 767 b 756 771 764 764 760 765 b 429 965 689 906 592 965 b 129 738 242 965 129 881 b 271 550 136 631 181 579 b 454 514 335 528 372 524 b 618 486 525 507 557 501 b 692 457 649 479 674 469 b 799 257 753 417 799 367 b 438 -19 799 78 675 -19 b 65 226 249 -19 136 56 b 72 243 61 233 64 239 l 88 249 b 103 243 94 251 100 250 b 438 19 169 89 275 19 b 758 256 651 19 758 99 b 624 442 751 363 713 414 b 542 463 592 451 564 458 b 447 475 519 467 488 471 b 247 515 363 485 318 490 b 163 560 211 528 183 542 b 88 736 122 593 88 654 "},"T":{"ha":729,"x_min":0,"x_max":0,"o":"m 700 986 b 711 975 707 986 711 982 l 711 960 b 700 949 711 953 707 949 l 385 949 l 385 11 b 374 0 385 4 381 0 l 356 0 b 344 11 349 0 344 4 l 344 949 l 29 949 b 18 960 22 949 18 953 l 18 975 b 29 986 18 982 22 986 "},"U":{"ha":942,"x_min":0,"x_max":0,"o":"m 150 333 b 471 17 150 135 260 17 b 790 333 682 17 790 135 l 790 975 b 801 986 790 982 794 986 l 821 986 b 832 975 828 986 832 982 l 832 333 b 471 -21 832 113 708 -21 b 110 333 232 -21 110 111 l 110 975 b 121 986 110 982 114 986 l 139 986 b 150 975 146 986 150 982 "},"V":{"ha":843,"x_min":0,"x_max":0,"o":"m 824 986 b 829 975 831 986 832 982 l 450 11 b 435 0 447 4 442 0 l 417 0 b 401 11 410 0 404 4 l 22 975 b 29 986 19 982 22 986 l 47 986 b 65 976 58 986 64 983 l 396 135 b 425 53 403 117 419 68 l 428 53 b 457 133 433 65 450 113 l 786 976 b 804 986 789 983 794 986 "},"W":{"ha":1200,"x_min":0,"x_max":0,"o":"m 1163 986 b 1169 975 1169 986 1172 982 l 906 11 b 889 0 904 4 899 0 l 872 0 b 856 11 864 0 858 4 l 636 781 b 606 900 632 793 622 833 l 604 900 l 571 781 l 351 11 b 336 0 350 4 346 0 l 318 0 b 303 11 308 0 304 4 l 39 975 b 46 986 36 982 39 986 l 67 986 b 82 976 76 986 81 983 l 299 181 b 313 124 300 172 306 153 b 328 60 319 94 324 72 l 329 60 b 346 124 332 74 338 94 b 360 179 353 153 358 171 l 581 951 b 596 961 582 958 588 961 l 615 961 b 631 951 624 961 629 958 l 851 176 b 882 60 869 108 879 69 l 883 60 b 910 175 888 78 897 117 l 1126 976 b 1143 986 1129 983 1135 986 "},"X":{"ha":833,"x_min":0,"x_max":0,"o":"m 819 15 b 815 0 826 6 825 0 l 792 0 b 771 10 782 0 775 3 l 425 469 l 81 10 b 61 0 76 3 69 0 l 38 0 b 33 15 28 0 26 6 l 400 500 l 43 975 b 49 986 38 982 39 986 l 72 986 b 93 976 81 986 88 983 l 426 533 l 760 976 b 781 986 765 983 772 986 l 803 986 b 810 975 813 986 815 982 l 453 500 "},"Y":{"ha":851,"x_min":0,"x_max":0,"o":"m 832 986 b 839 975 840 986 843 982 l 454 408 l 454 11 b 443 0 454 4 450 0 l 425 0 b 414 11 418 0 414 4 l 414 410 l 32 975 b 39 986 26 982 29 986 l 61 986 b 82 976 71 986 78 983 l 435 451 l 789 976 b 808 986 793 983 799 986 "},"Z":{"ha":761,"x_min":0,"x_max":0,"o":"m 694 986 b 706 975 701 986 706 982 l 706 961 b 701 946 706 954 704 950 l 94 39 l 713 39 b 724 28 719 39 724 35 l 724 11 b 713 0 724 4 719 0 l 54 0 b 43 11 47 0 43 4 l 43 26 b 50 44 43 33 46 39 l 654 949 l 60 949 b 50 960 53 949 50 953 l 50 975 b 60 986 50 982 53 986 "},"[":{"ha":343,"x_min":0,"x_max":0,"o":"m 317 1189 b 328 1179 324 1189 328 1186 l 328 1164 b 317 1153 328 1157 324 1153 l 138 1153 l 138 -167 l 317 -167 b 328 -178 324 -167 328 -171 l 328 -193 b 317 -203 328 -200 324 -203 l 110 -203 b 100 -193 103 -203 100 -200 l 100 1179 b 110 1189 100 1186 103 1189 "},"\\":{"ha":531,"x_min":0,"x_max":0,"o":"m 56 976 b 63 986 51 983 54 986 l 82 986 b 97 976 89 986 94 983 l 486 -74 b 479 -83 490 -81 488 -83 l 458 -83 b 444 -74 451 -83 447 -81 "},"]":{"ha":343,"x_min":0,"x_max":0,"o":"m 233 1189 b 244 1179 240 1189 244 1186 l 244 -193 b 233 -203 244 -200 240 -203 l 26 -203 b 17 -193 19 -203 17 -200 l 17 -178 b 26 -167 17 -171 19 -167 l 206 -167 l 206 1153 l 26 1153 b 17 1164 19 1153 17 1157 l 17 1179 b 26 1189 17 1186 19 1189 "},"^":{"ha":828,"x_min":0,"x_max":0,"o":"m 426 1125 b 440 1117 432 1125 436 1122 l 754 736 b 749 722 761 726 758 722 l 731 722 b 708 732 721 722 714 725 l 422 1082 l 418 1082 l 136 732 b 114 722 132 725 124 722 l 97 722 b 92 736 88 722 85 726 l 400 1117 b 415 1125 404 1122 410 1125 "},"_":{"ha":713,"x_min":0,"x_max":0,"o":"m 660 0 b 671 -11 667 0 671 -4 l 671 -26 b 660 -37 671 -33 667 -37 l 54 -37 b 43 -26 47 -37 43 -33 l 43 -11 b 54 0 43 -4 47 0 "},"`":{"ha":357,"x_min":0,"x_max":0,"o":"m 58 1000 b 79 1001 64 1007 71 1007 l 321 849 b 322 835 326 844 326 840 l 315 826 b 299 825 311 822 306 822 l 51 976 b 50 990 44 981 43 985 "},"a":{"ha":704,"x_min":0,"x_max":0,"o":"m 82 582 b 351 729 132 681 222 729 b 615 463 568 729 615 606 l 615 96 b 565 17 615 47 604 33 b 351 -19 510 -7 439 -19 b 121 32 239 -19 161 -3 b 58 190 79 65 58 118 b 357 396 58 340 140 396 b 578 379 399 396 472 390 l 578 464 b 350 694 578 590 540 694 b 115 567 240 694 161 651 b 101 561 111 561 107 560 l 88 567 b 82 582 79 569 78 575 m 578 346 b 354 364 501 358 428 364 b 97 190 165 364 97 317 b 150 57 97 129 115 85 b 350 14 185 28 251 14 b 542 46 429 14 493 25 b 578 101 574 58 578 67 "},"b":{"ha":739,"x_min":0,"x_max":0,"o":"m 126 1028 b 136 1018 133 1028 136 1025 l 136 671 b 400 729 224 710 313 729 b 661 464 574 729 661 640 l 661 258 b 375 -19 661 74 565 -19 b 153 19 289 -19 215 -7 b 99 96 108 40 99 51 l 99 1018 b 108 1028 99 1025 101 1028 m 624 463 b 396 694 624 617 547 694 b 136 633 311 694 225 674 l 136 104 b 175 51 136 72 140 67 b 374 15 235 28 301 15 b 624 258 540 15 624 96 "},"c":{"ha":713,"x_min":0,"x_max":0,"o":"m 76 464 b 368 729 76 631 178 729 b 651 538 533 729 614 665 b 646 522 653 531 651 525 l 631 518 b 617 524 624 515 619 517 b 365 694 582 644 511 694 b 114 465 203 694 114 608 l 114 246 b 365 15 114 103 204 15 b 619 196 508 15 586 72 b 633 203 622 203 626 206 l 650 199 b 657 185 657 196 658 192 b 367 -19 618 49 521 -19 b 76 247 179 -19 76 79 "},"d":{"ha":739,"x_min":0,"x_max":0,"o":"m 78 463 b 340 729 78 640 165 729 b 603 672 433 729 521 710 l 603 1018 b 614 1028 603 1025 607 1028 l 631 1028 b 642 1018 638 1028 642 1025 l 642 96 b 586 19 642 51 631 38 b 364 -19 522 -7 449 -19 b 78 256 174 -19 78 72 m 603 635 b 344 694 526 675 440 694 b 115 461 192 694 115 617 l 115 257 b 365 15 115 96 199 15 b 564 51 438 15 504 28 b 603 104 599 67 603 71 "},"e":{"ha":729,"x_min":0,"x_max":0,"o":"m 74 442 b 369 729 74 621 176 729 b 665 443 560 729 665 619 l 665 374 b 640 350 665 358 657 350 l 111 350 l 111 247 b 360 14 111 103 197 14 b 622 163 483 14 571 64 b 639 167 626 169 632 171 l 651 160 b 654 146 658 157 658 153 b 360 -19 599 36 500 -19 b 74 250 171 -19 74 82 m 626 444 b 369 696 626 600 538 696 b 111 444 201 696 111 600 l 111 382 l 626 382 "},"f":{"ha":471,"x_min":0,"x_max":0,"o":"m 444 1028 b 454 1017 451 1028 454 1024 l 454 1001 b 444 992 454 994 451 992 b 261 946 354 992 293 976 b 213 763 229 915 213 854 l 213 710 l 449 710 b 458 700 456 710 458 707 l 458 685 b 449 675 458 678 456 675 l 213 675 l 213 10 b 201 0 213 3 208 0 l 185 0 b 175 10 178 0 175 3 l 175 675 l 17 675 b 7 685 10 675 7 678 l 7 700 b 17 710 7 707 10 710 l 175 710 l 175 763 b 232 971 175 864 194 933 b 435 1028 269 1008 338 1026 "},"g":{"ha":739,"x_min":0,"x_max":0,"o":"m 78 453 b 365 729 78 638 174 729 b 586 690 450 729 524 717 b 640 614 631 672 640 660 l 640 -57 b 357 -357 640 -257 546 -357 b 93 -194 233 -357 144 -303 b 97 -178 89 -187 90 -182 l 108 -172 b 125 -176 115 -168 121 -169 b 357 -321 171 -269 236 -321 b 603 -58 521 -321 603 -233 l 603 42 b 340 -15 524 4 436 -15 b 78 250 165 -15 78 74 m 564 658 b 367 694 504 682 438 694 b 115 451 199 694 115 614 l 115 250 b 343 19 115 96 192 19 b 603 79 440 19 526 39 l 603 606 b 564 658 603 639 599 643 "},"h":{"ha":761,"x_min":0,"x_max":0,"o":"m 131 1028 b 140 1018 138 1028 140 1025 l 140 675 b 401 729 219 711 306 729 b 665 464 578 729 665 640 l 665 10 b 656 0 665 3 663 0 l 639 0 b 628 10 632 0 628 3 l 628 461 b 399 694 628 617 551 694 b 140 638 304 694 218 675 l 140 10 b 131 0 140 3 138 0 l 113 0 b 103 10 106 0 103 3 l 103 1018 b 113 1028 103 1025 106 1028 "},"i":{"ha":243,"x_min":0,"x_max":0,"o":"m 124 954 b 150 928 142 954 150 946 l 150 922 b 124 897 150 906 142 897 l 118 897 b 93 922 97 897 93 901 l 93 928 b 118 954 93 946 101 954 m 129 710 b 140 700 136 710 140 707 l 140 10 b 129 0 140 3 136 0 l 113 0 b 103 10 106 0 103 3 l 103 700 b 113 710 103 707 106 710 "},"j":{"ha":243,"x_min":0,"x_max":0,"o":"m 125 954 b 150 928 142 954 150 946 l 150 922 b 125 897 150 906 142 897 l 118 897 b 93 922 97 897 93 901 l 93 928 b 118 954 93 946 101 954 m 129 710 b 140 700 136 710 140 707 l 140 -14 b -125 -319 140 -221 71 -319 b -135 -308 -132 -319 -135 -315 l -135 -293 b -125 -283 -135 -286 -132 -283 b 103 -14 46 -283 103 -197 l 103 700 b 113 710 103 707 106 710 "},"k":{"ha":686,"x_min":0,"x_max":0,"o":"m 651 11 b 646 0 656 4 654 0 l 629 0 b 611 8 621 0 615 3 l 490 251 b 335 349 456 319 414 349 l 140 349 l 140 11 b 129 0 140 4 136 0 l 113 0 b 103 11 106 0 103 4 l 103 1017 b 113 1028 103 1024 106 1028 l 129 1028 b 140 1017 136 1028 140 1024 l 140 383 l 332 383 l 347 383 l 599 701 b 619 710 603 707 610 710 l 635 710 b 642 697 644 710 647 706 l 386 376 b 524 268 446 368 492 332 "},"l":{"ha":253,"x_min":0,"x_max":0,"o":"m 146 10 b 135 0 146 3 142 0 l 118 0 b 107 10 111 0 107 3 l 107 1018 b 118 1028 107 1025 111 1028 l 135 1028 b 146 1018 142 1028 146 1025 "},"m":{"ha":1125,"x_min":0,"x_max":0,"o":"m 533 660 b 789 729 610 706 696 729 b 1028 476 949 729 1028 644 l 1028 10 b 1018 0 1028 3 1025 0 l 1000 0 b 990 10 993 0 990 3 l 990 474 b 786 694 990 625 926 694 b 554 629 699 694 622 672 b 590 476 578 592 590 542 l 590 10 b 581 0 590 3 588 0 l 563 0 b 553 10 556 0 553 3 l 553 474 b 343 694 553 621 483 694 b 169 657 275 694 218 682 b 136 601 147 646 136 628 l 136 10 b 126 0 136 3 133 0 l 108 0 b 99 10 101 0 99 3 l 99 610 b 150 689 99 650 111 668 b 346 729 207 715 272 729 b 533 660 431 729 493 706 "},"n":{"ha":757,"x_min":0,"x_max":0,"o":"m 150 685 b 397 729 224 714 306 729 b 661 464 574 729 661 640 l 661 10 b 651 0 661 3 658 0 l 635 0 b 624 10 628 0 624 3 l 624 461 b 394 694 624 617 547 694 b 169 653 306 694 231 681 b 136 603 147 643 136 626 l 136 10 b 126 0 136 3 133 0 l 108 0 b 99 10 101 0 99 3 l 99 610 b 150 685 99 650 110 667 "},"o":{"ha":744,"x_min":0,"x_max":0,"o":"m 79 493 b 372 729 79 638 194 729 b 665 493 550 729 665 638 l 665 217 b 372 -19 665 72 550 -19 b 79 217 194 -19 79 72 m 628 494 b 372 694 628 617 526 694 b 117 494 221 694 117 617 l 117 215 b 372 15 117 93 221 15 b 628 215 526 15 628 93 "},"p":{"ha":739,"x_min":0,"x_max":0,"o":"m 154 690 b 378 729 217 717 290 729 b 661 454 567 729 661 638 l 661 247 b 397 -19 661 69 574 -19 b 136 47 306 -19 218 3 l 136 -296 b 126 -306 136 -303 133 -306 l 108 -306 b 99 -296 101 -306 99 -303 l 99 614 b 154 690 99 658 110 672 m 624 453 b 374 694 624 614 540 694 b 175 658 299 694 232 682 b 136 606 140 643 136 639 l 136 86 b 396 15 217 39 303 15 b 624 247 547 15 624 93 "},"q":{"ha":739,"x_min":0,"x_max":0,"o":"m 365 729 b 586 690 450 729 524 717 b 642 614 631 672 642 658 l 642 -296 b 631 -306 642 -303 638 -306 l 614 -306 b 603 -296 607 -306 603 -303 l 603 47 b 340 -19 521 3 433 -19 b 78 244 165 -19 78 68 l 78 453 b 365 729 78 638 174 729 m 115 246 b 343 15 115 92 192 15 b 603 86 436 15 522 39 l 603 606 b 564 658 603 639 599 643 b 367 694 508 682 443 694 b 115 451 199 694 115 614 "},"r":{"ha":464,"x_min":0,"x_max":0,"o":"m 394 729 l 438 729 b 447 719 444 729 447 726 l 447 706 b 438 694 447 699 444 694 l 394 694 b 169 654 310 694 235 681 b 136 601 147 644 136 626 l 136 10 b 126 0 136 3 133 0 l 108 0 b 99 10 101 0 99 3 l 99 610 b 150 685 99 650 110 667 b 394 729 224 714 304 729 "},"s":{"ha":681,"x_min":0,"x_max":0,"o":"m 79 535 b 339 729 79 658 168 729 b 613 578 482 729 572 679 b 608 563 615 569 614 564 l 596 556 b 581 561 589 553 585 554 b 340 694 546 650 479 694 b 117 535 192 694 117 642 b 142 442 117 494 129 463 b 210 394 153 419 192 403 b 307 375 224 388 290 376 b 365 369 317 374 336 372 b 574 307 451 363 521 347 b 624 178 603 281 624 238 b 353 -19 624 46 533 -19 b 60 157 203 -19 106 31 b 67 172 57 164 60 169 l 81 176 b 93 171 86 179 90 178 b 353 15 131 67 217 15 b 586 176 508 15 586 69 b 358 335 586 292 510 322 b 254 347 308 340 299 340 b 165 375 210 353 199 361 b 104 432 132 389 121 407 b 79 535 86 457 79 492 "},"t":{"ha":464,"x_min":0,"x_max":0,"o":"m 203 876 b 214 867 210 876 214 874 l 214 710 l 447 710 b 458 700 454 710 458 707 l 458 685 b 447 675 458 678 454 675 l 214 675 l 214 247 b 263 63 214 154 231 93 b 446 17 294 32 356 17 b 456 7 453 17 456 14 l 456 -8 b 446 -19 456 -15 453 -19 b 233 35 343 -21 272 -3 b 175 246 194 72 175 142 l 175 675 l 14 675 b 4 685 7 675 4 678 l 4 700 b 14 710 4 707 7 710 l 175 710 l 175 867 b 186 876 175 874 179 876 "},"u":{"ha":757,"x_min":0,"x_max":0,"o":"m 649 710 b 658 700 656 710 658 707 l 658 101 b 607 25 658 58 647 43 b 360 -19 533 -4 451 -19 b 96 246 183 -19 96 69 l 96 700 b 106 710 96 707 99 710 l 124 710 b 133 700 131 710 133 707 l 133 249 b 364 15 133 93 210 15 b 588 56 449 15 522 29 b 621 108 610 65 621 83 l 621 700 b 632 710 621 707 625 710 "},"v":{"ha":686,"x_min":0,"x_max":0,"o":"m 660 710 b 668 699 668 710 671 706 l 371 4 b 354 -6 368 -3 363 -6 l 344 -6 b 328 4 338 -6 332 -3 l 31 697 b 39 710 26 706 29 710 l 54 710 b 71 699 61 710 67 706 l 310 139 l 349 42 l 351 42 b 389 138 357 54 382 122 l 628 699 b 644 710 631 706 636 710 "},"w":{"ha":1011,"x_min":0,"x_max":0,"o":"m 972 710 b 981 697 981 710 983 706 l 758 4 b 746 -7 757 -3 753 -7 l 731 -7 b 715 4 724 -7 718 -3 l 539 538 l 510 633 l 507 633 l 478 538 l 303 4 b 288 -7 300 -3 294 -7 l 274 -7 b 260 4 267 -7 261 -3 l 39 697 b 47 710 36 706 39 710 l 63 710 b 79 699 72 710 78 706 l 246 169 b 281 47 251 151 275 65 l 283 47 l 300 106 b 321 172 308 135 315 157 l 488 675 b 504 685 489 682 494 685 l 515 685 b 531 675 524 685 529 682 l 696 178 b 718 110 701 163 708 139 b 736 47 726 79 732 58 l 739 47 b 775 176 744 64 757 107 l 942 699 b 958 710 943 706 949 710 "},"x":{"ha":654,"x_min":0,"x_max":0,"o":"m 613 710 b 618 700 622 710 624 707 l 357 364 l 635 10 b 628 0 639 3 636 0 l 606 0 b 590 8 600 0 594 3 l 333 338 l 75 8 b 57 0 71 3 64 0 l 38 0 b 32 10 31 0 28 3 l 310 365 l 44 700 b 53 710 40 707 43 710 l 72 710 b 89 701 81 710 86 707 l 333 392 l 575 701 b 592 710 579 707 585 710 "},"y":{"ha":761,"x_min":0,"x_max":0,"o":"m 649 710 b 658 700 656 710 658 707 l 658 -57 b 372 -357 658 -257 563 -357 b 106 -194 246 -357 157 -303 b 110 -178 101 -187 103 -182 l 122 -172 b 139 -176 128 -168 133 -169 b 372 -321 185 -272 263 -321 b 621 -58 538 -321 621 -233 l 621 38 b 360 -15 528 3 442 -15 b 96 251 183 -15 96 74 l 96 700 b 106 710 96 707 99 710 l 124 710 b 133 700 131 710 133 707 l 133 253 b 364 19 133 97 210 19 b 621 74 446 19 531 38 l 621 700 b 632 710 621 707 625 710 "},"z":{"ha":614,"x_min":0,"x_max":0,"o":"m 563 35 b 571 25 568 35 571 32 l 571 10 b 563 0 571 3 568 0 l 53 0 b 43 10 46 0 43 3 l 43 25 b 49 39 43 29 44 35 l 518 675 l 58 675 b 49 686 51 675 49 679 l 49 700 b 58 710 49 707 51 710 l 556 710 b 565 700 563 710 565 707 l 565 686 b 560 669 565 679 564 674 l 92 35 "},"{":{"ha":413,"x_min":0,"x_max":0,"o":"m 389 1189 b 399 1179 396 1189 399 1186 l 399 1164 b 389 1153 399 1157 396 1153 l 329 1153 b 201 1015 236 1153 201 1110 l 201 656 b 111 493 201 568 171 514 b 201 329 171 472 201 418 l 201 -31 b 329 -168 201 -125 236 -168 l 389 -168 b 399 -179 396 -168 399 -172 l 399 -194 b 389 -204 399 -201 396 -204 l 329 -204 b 164 -32 208 -204 164 -153 l 164 326 b 29 474 164 426 128 474 l 14 474 b 4 483 7 474 4 476 l 4 501 b 14 511 4 508 7 511 l 29 511 b 164 658 125 511 164 558 l 164 1017 b 329 1189 164 1138 208 1189 "},"|":{"ha":235,"x_min":0,"x_max":0,"o":"m 125 1189 b 135 1179 132 1189 135 1186 l 135 -194 b 125 -204 135 -201 132 -204 l 110 -204 b 100 -194 103 -204 100 -201 l 100 1179 b 110 1189 100 1186 103 1189 "},"}":{"ha":413,"x_min":0,"x_max":0,"o":"m 83 1189 b 249 1017 204 1189 249 1138 l 249 658 b 383 511 249 558 288 511 l 399 511 b 408 501 406 511 408 508 l 408 483 b 399 474 408 476 406 474 l 383 474 b 249 326 285 474 249 426 l 249 -32 b 83 -204 249 -153 204 -204 l 24 -204 b 14 -194 17 -204 14 -201 l 14 -179 b 24 -168 14 -172 17 -168 l 83 -168 b 211 -31 176 -168 211 -125 l 211 329 b 301 493 211 418 242 472 b 211 656 242 514 211 568 l 211 1015 b 83 1153 211 1110 176 1153 l 24 1153 b 14 1164 17 1153 14 1157 l 14 1179 b 24 1189 14 1186 17 1189 "},"~":{"ha":783,"x_min":0,"x_max":0,"o":"m 107 426 b 268 496 158 472 211 496 b 404 464 306 496 350 485 b 532 432 457 443 500 432 b 671 492 582 432 628 451 b 686 490 676 496 682 494 l 696 481 b 696 465 701 475 701 469 b 535 396 644 419 592 396 b 399 428 497 396 451 407 b 269 460 346 449 303 460 b 133 400 224 460 178 440 b 118 400 128 394 122 394 l 107 411 b 107 426 101 415 101 421 "},"¡":{"ha":232,"x_min":0,"x_max":0,"o":"m 114 650 b 86 678 93 650 86 657 l 86 683 b 114 711 86 706 93 711 l 119 711 b 147 683 140 711 147 704 l 147 678 b 119 650 147 657 140 650 m 106 -322 b 94 -312 99 -322 94 -319 l 101 500 b 111 511 101 507 104 511 l 121 511 b 131 500 128 511 131 507 l 138 -312 b 126 -322 138 -319 133 -322 "},"¢":{"ha":740,"x_min":0,"x_max":0,"o":"m 657 199 b 663 185 663 196 664 192 b 392 -18 625 53 535 -14 l 392 -107 b 381 -117 392 -114 388 -117 l 363 -117 b 353 -107 356 -117 353 -114 l 353 -19 b 82 247 179 -12 82 86 l 82 464 b 353 729 82 624 176 722 l 353 838 b 363 847 353 844 356 847 l 381 847 b 392 838 388 847 392 844 l 392 729 b 658 538 547 724 621 661 b 651 522 660 531 658 525 l 636 518 b 622 524 629 515 625 517 b 372 694 588 644 518 694 b 121 465 207 694 121 608 l 121 246 b 372 15 121 103 211 15 b 626 196 513 15 592 72 b 640 203 628 203 633 204 "},"£":{"ha":869,"x_min":0,"x_max":0,"o":"m 210 761 b 489 1006 210 907 300 1006 b 788 789 643 1006 733 949 b 781 775 790 782 788 776 l 764 768 b 749 776 757 767 753 769 b 490 968 699 919 624 968 b 251 760 325 968 251 886 l 251 489 l 653 489 b 664 478 660 489 664 485 l 664 464 b 653 453 664 457 660 453 l 251 453 l 251 189 b 182 38 251 121 228 71 l 182 36 b 254 38 197 36 221 36 l 332 38 l 778 38 b 789 26 785 38 789 33 l 789 11 b 778 0 789 4 785 0 l 63 0 b 53 11 56 0 53 4 l 53 28 b 61 38 53 35 56 38 l 94 38 b 210 189 172 39 210 113 l 210 453 l 81 453 b 69 464 74 453 69 457 l 69 478 b 81 489 69 485 74 489 l 210 489 "},"¤":{"ha":819,"x_min":0,"x_max":0,"o":"m 733 181 b 733 165 738 175 738 169 l 722 153 b 707 153 718 149 713 149 l 626 233 b 417 151 567 179 497 151 b 210 229 340 151 271 178 l 129 150 b 114 150 125 144 119 144 l 103 161 b 103 176 99 167 99 172 l 183 257 b 101 467 129 317 101 386 b 181 675 101 547 128 617 l 100 754 b 100 769 96 758 96 764 l 113 782 b 128 782 118 786 124 786 l 207 701 b 417 782 267 756 336 782 b 622 704 494 782 563 756 l 703 785 b 718 785 707 789 713 789 l 729 772 b 729 757 735 767 735 761 l 650 678 b 732 467 704 617 732 546 b 654 260 732 390 706 321 m 417 744 b 219 665 339 744 274 718 b 139 468 165 611 139 546 b 219 271 139 390 165 325 b 417 189 274 217 339 189 b 613 271 493 189 558 217 b 693 468 667 325 693 392 b 613 665 693 546 667 611 b 417 744 558 718 493 744 "},"¥":{"ha":867,"x_min":0,"x_max":0,"o":"m 822 986 b 829 975 831 986 833 982 l 476 461 l 700 461 b 710 451 707 461 710 458 l 710 439 b 700 429 710 432 707 429 l 458 429 l 458 264 l 700 264 b 710 254 707 264 710 261 l 710 242 b 700 232 710 235 707 232 l 460 232 l 460 11 b 449 0 460 4 456 0 l 429 0 b 418 11 422 0 418 4 l 418 232 l 175 232 b 165 242 168 232 165 235 l 165 254 b 175 264 165 261 168 264 l 418 264 l 418 429 l 175 429 b 165 439 168 429 165 432 l 165 451 b 175 461 165 458 168 461 l 401 461 l 50 975 b 57 986 46 982 49 986 l 79 986 b 99 976 89 986 96 983 l 440 475 l 781 976 b 801 986 785 983 792 986 "},"¦":{"ha":249,"x_min":0,"x_max":0,"o":"m 132 1189 b 142 1179 139 1189 142 1186 l 142 608 b 132 599 142 601 139 599 l 117 599 b 106 608 110 599 106 601 l 106 1179 b 117 1189 106 1186 110 1189 m 132 388 b 142 378 139 388 142 385 l 142 -193 b 132 -203 142 -200 139 -203 l 117 -203 b 106 -193 110 -203 106 -200 l 106 378 b 117 388 106 385 110 388 "},"§":{"ha":815,"x_min":0,"x_max":0,"o":"m 89 779 b 400 1015 89 924 189 1015 b 738 775 569 1015 682 935 b 729 761 740 768 738 764 l 715 754 b 699 761 708 751 703 754 b 400 976 649 904 549 976 b 131 779 221 976 131 911 b 219 624 131 693 169 653 b 349 590 249 606 314 594 b 421 581 365 588 389 585 b 632 528 510 571 567 560 b 731 353 697 494 731 436 b 582 132 731 257 681 183 b 743 -76 689 101 743 32 b 418 -311 743 -219 633 -311 b 76 -69 244 -311 131 -231 b 85 -56 75 -62 78 -58 l 100 -50 b 115 -57 108 -47 114 -50 b 418 -274 164 -201 265 -274 b 703 -76 608 -274 703 -197 b 658 49 703 -22 688 24 b 590 89 635 68 625 78 b 501 111 556 100 546 104 b 404 122 451 118 457 117 b 224 156 328 129 286 135 b 150 194 192 165 168 179 b 83 350 114 225 83 278 b 251 572 83 454 139 529 b 89 779 143 603 89 672 m 414 543 b 301 558 364 549 326 554 b 203 510 272 549 249 539 b 125 353 157 481 125 424 b 247 190 131 261 169 214 b 410 160 303 172 339 167 b 533 144 461 156 501 151 b 690 350 638 192 690 260 b 601 499 690 422 658 472 b 414 543 544 525 493 536 "},"¨":{"ha":610,"x_min":0,"x_max":0,"o":"m 172 929 b 196 907 190 929 196 924 l 196 897 b 172 875 196 879 190 875 l 164 875 b 142 897 147 875 142 879 l 142 907 b 164 929 142 922 149 929 m 435 929 b 458 907 450 929 458 922 l 458 897 b 435 875 458 882 450 875 l 428 875 b 404 897 410 875 404 879 l 404 907 b 428 929 404 924 410 929 "},"©":{"ha":1131,"x_min":0,"x_max":0,"o":"m 68 488 b 213 843 68 629 117 747 b 567 986 308 939 426 986 b 919 843 707 986 824 939 b 1063 488 1015 747 1063 629 b 919 133 1063 347 1015 229 b 567 -11 824 38 707 -11 b 213 133 426 -11 308 38 b 68 488 117 229 68 347 m 1031 488 b 897 821 1031 619 986 731 b 567 954 807 910 697 954 b 233 821 435 954 324 910 b 99 488 143 731 99 619 b 235 156 99 356 144 246 b 567 21 325 65 435 21 b 897 156 697 21 807 65 b 1031 488 986 246 1031 356 m 340 565 b 560 767 340 693 417 767 b 775 622 686 767 747 718 b 771 610 776 617 775 613 l 757 606 b 746 610 753 604 749 606 b 558 736 718 703 671 736 b 374 565 435 736 374 679 l 374 397 b 558 225 374 288 436 225 b 749 360 668 225 722 265 b 761 365 750 365 754 367 l 772 363 b 778 350 779 360 781 356 b 560 196 749 247 676 196 b 340 397 419 196 340 271 "},"ª":{"ha":522,"x_min":0,"x_max":0,"o":"m 96 847 b 264 931 133 903 190 931 b 432 758 386 931 432 871 l 432 588 b 386 514 432 544 424 531 b 254 493 356 500 311 493 b 81 610 139 493 81 532 b 257 736 81 693 131 736 b 400 728 275 736 322 733 l 400 760 b 263 900 400 853 363 900 b 124 829 201 900 156 876 b 111 826 119 825 115 824 l 100 832 b 96 847 93 836 92 840 m 400 699 b 256 707 361 704 313 707 b 114 611 150 707 114 674 b 254 522 114 551 161 522 b 367 540 300 522 338 528 b 400 592 393 550 400 560 "},"«":{"ha":756,"x_min":0,"x_max":0,"o":"m 379 96 b 379 81 385 92 385 86 l 368 69 b 353 69 364 65 358 65 l 64 358 b 64 371 60 363 60 367 l 356 663 b 369 663 360 668 364 668 l 381 651 b 381 636 385 647 385 642 l 110 365 m 689 96 b 689 81 693 92 693 86 l 676 69 b 661 69 672 65 667 65 l 374 358 b 374 371 368 363 368 367 l 664 663 b 678 663 668 668 672 668 l 689 651 b 689 636 693 647 693 642 l 418 365 "},"¬":{"ha":797,"x_min":0,"x_max":0,"o":"m 693 515 b 703 506 700 515 703 513 l 703 204 b 693 194 703 197 700 194 l 675 194 b 664 204 668 194 664 197 l 664 479 l 111 479 b 101 489 104 479 101 482 l 101 506 b 111 515 101 513 104 515 "},"®":{"ha":683,"x_min":0,"x_max":0,"o":"m 153 526 b 72 717 99 579 72 643 b 153 907 72 790 99 854 b 343 986 206 960 269 986 b 532 907 417 986 479 960 b 611 717 585 854 611 790 b 533 526 611 643 585 579 b 343 447 481 474 417 447 b 153 526 269 447 206 474 m 171 890 b 99 717 122 842 99 785 b 171 543 99 649 122 592 b 344 471 219 494 276 471 b 517 543 413 471 469 494 b 588 717 564 592 588 649 b 517 890 588 785 564 842 b 344 961 469 938 413 961 b 171 890 276 961 219 938 m 375 861 b 471 769 435 861 471 826 b 403 683 471 721 449 692 l 461 582 b 457 572 465 575 464 572 l 446 572 b 435 578 440 572 436 574 l 376 681 l 257 681 l 257 578 b 250 572 257 574 254 572 l 238 572 b 232 578 233 572 232 574 l 232 849 b 243 861 232 857 236 861 m 257 704 l 374 704 b 446 769 422 704 446 726 b 374 838 446 815 422 838 l 257 838 "},"¯":{"ha":489,"x_min":0,"x_max":0,"o":"m 407 917 b 417 906 414 917 417 913 l 417 896 b 407 885 417 889 414 885 l 75 885 b 65 896 68 885 65 889 l 65 906 b 75 917 65 913 68 917 "},"°":{"ha":528,"x_min":0,"x_max":0,"o":"m 461 771 b 403 632 461 717 442 671 b 264 574 364 593 318 574 b 125 632 210 574 163 593 b 67 771 86 669 67 717 b 124 911 67 826 86 874 b 264 967 161 949 208 967 b 404 911 318 967 365 949 b 461 771 442 874 461 826 m 149 886 b 101 771 117 854 101 817 b 149 656 101 725 117 688 b 264 608 181 624 218 608 b 379 657 308 608 347 625 b 426 771 411 689 426 728 b 264 932 426 861 354 932 b 149 886 218 932 181 917 "},"±":{"ha":933,"x_min":0,"x_max":0,"o":"m 783 567 b 794 557 790 567 794 564 l 794 543 b 783 532 794 536 790 532 l 486 532 l 486 336 b 475 325 486 329 482 325 l 461 325 b 450 336 454 325 450 329 l 450 532 l 150 532 b 139 543 143 532 139 536 l 139 557 b 150 567 139 564 143 567 l 450 567 l 450 768 b 461 779 450 775 454 779 l 475 779 b 486 768 482 779 486 775 l 486 567 m 783 228 b 794 218 790 228 794 225 l 794 204 b 783 193 794 197 790 193 l 150 193 b 139 204 143 193 139 197 l 139 218 b 150 228 139 225 143 228 "},"²":{"ha":483,"x_min":0,"x_max":0,"o":"m 57 978 l 58 983 b 249 1136 65 1015 103 1136 b 431 976 365 1136 431 1071 b 343 847 431 918 401 875 b 260 815 331 840 303 831 l 174 783 b 88 658 117 763 88 721 l 88 606 l 415 606 b 428 596 424 606 428 603 l 428 585 b 415 574 428 578 424 574 l 69 574 b 54 588 60 574 54 578 l 54 651 b 161 811 54 731 90 785 l 247 843 b 310 867 250 844 306 865 b 363 896 319 871 354 885 b 396 975 379 915 396 936 b 249 1104 396 1053 344 1104 b 92 975 124 1104 97 1000 l 90 969 b 76 960 89 963 83 958 l 64 964 b 57 978 57 965 54 971 "},"³":{"ha":497,"x_min":0,"x_max":0,"o":"m 56 979 b 264 1136 88 1089 149 1136 b 432 982 369 1136 432 1075 b 360 857 432 921 408 879 b 447 718 418 831 447 783 b 263 563 447 624 383 563 b 53 717 144 563 82 613 b 58 732 51 724 53 729 l 72 736 b 86 728 79 738 83 735 b 263 594 114 633 161 594 b 414 719 358 594 414 646 b 306 839 414 786 371 839 l 197 839 b 188 849 190 839 188 842 l 188 860 b 199 871 188 867 192 871 l 304 871 b 399 979 367 871 399 918 b 264 1106 399 1056 349 1106 b 89 969 169 1106 115 1064 b 72 961 86 960 81 957 l 63 964 b 56 979 56 967 53 972 "},"´":{"ha":357,"x_min":0,"x_max":0,"o":"m 296 1001 b 317 1000 304 1007 311 1007 l 325 990 b 324 976 332 985 331 981 l 75 825 b 60 826 68 822 64 822 l 53 835 b 54 849 49 840 49 844 "},"µ":{"ha":747,"x_min":0,"x_max":0,"o":"m 646 710 b 656 700 653 710 656 707 l 656 100 b 604 24 656 57 644 42 b 363 -21 529 -6 449 -21 b 129 111 243 -21 165 24 l 131 -296 b 121 -306 131 -303 128 -306 l 101 -306 b 93 -296 96 -306 93 -303 l 93 700 b 103 710 93 707 96 710 l 121 710 b 131 700 128 710 131 707 l 131 247 b 361 14 131 92 207 14 b 585 56 443 14 517 28 b 618 107 607 65 618 83 l 618 700 b 629 710 618 707 622 710 "},"¶":{"ha":436,"x_min":0,"x_max":0,"o":"m 317 986 b 328 976 324 986 328 983 l 328 -114 b 317 -124 328 -121 324 -124 l 300 -124 b 289 -114 293 -124 289 -121 l 289 946 l 218 946 l 218 -114 b 208 -124 218 -121 215 -124 l 193 -124 b 182 -114 186 -124 182 -121 l 182 771 b 76 876 119 771 76 814 b 186 986 76 943 119 986 "},"·":{"ha":249,"x_min":0,"x_max":0,"o":"m 128 396 b 154 368 149 396 154 390 l 154 363 b 128 335 154 342 149 335 l 121 335 b 94 363 100 335 94 340 l 94 368 b 121 396 94 390 100 396 "},"¸":{"ha":349,"x_min":0,"x_max":0,"o":"m 154 -121 b 204 -114 168 -117 185 -114 b 324 -214 281 -114 325 -151 b 175 -342 322 -296 265 -342 b 56 -308 131 -342 90 -331 b 46 -290 49 -304 46 -299 l 46 -278 b 53 -274 46 -271 49 -269 b 172 -314 85 -300 125 -314 b 290 -212 246 -314 290 -275 b 189 -139 290 -164 257 -139 b 132 -147 167 -139 147 -142 b 121 -132 121 -151 117 -144 l 169 0 l 197 0 "},"¹":{"ha":386,"x_min":0,"x_max":0,"o":"m 292 1125 b 303 1114 299 1125 303 1121 l 303 585 b 292 574 303 578 299 574 l 279 574 b 268 585 272 574 268 578 l 268 1082 l 54 964 b 39 967 47 960 43 961 l 35 976 b 38 992 32 983 33 988 l 269 1121 b 285 1125 274 1124 279 1125 "},"º":{"ha":528,"x_min":0,"x_max":0,"o":"m 81 767 b 263 931 81 871 144 931 b 446 767 381 931 446 871 l 446 658 b 263 494 446 554 381 494 b 81 658 144 494 81 554 m 411 768 b 263 899 411 850 358 899 b 114 768 168 899 114 850 l 114 657 b 263 526 114 574 168 526 b 411 657 361 526 411 574 "},"»":{"ha":756,"x_min":0,"x_max":0,"o":"m 81 636 b 81 651 75 643 75 647 l 92 663 b 106 663 97 668 101 668 l 396 371 b 396 358 401 367 401 363 l 108 69 b 93 69 101 64 97 64 l 81 81 b 81 96 76 86 76 92 l 351 365 m 389 636 b 389 651 385 642 385 647 l 400 663 b 414 663 406 668 410 668 l 706 371 b 706 358 710 367 710 363 l 417 69 b 401 69 411 65 406 65 l 390 81 b 390 96 386 86 386 92 l 660 365 "},"¼":{"ha":1072,"x_min":0,"x_max":0,"o":"m 310 997 b 321 986 317 997 321 993 l 321 457 b 310 446 321 450 317 446 l 297 446 b 286 457 290 446 286 450 l 286 954 l 72 835 b 57 839 65 832 60 833 l 53 849 b 57 863 49 856 50 860 l 288 993 b 303 997 292 996 296 997 m 924 986 b 931 974 933 986 936 982 l 222 11 b 197 0 217 4 208 0 l 183 0 b 178 13 174 0 172 4 l 886 975 b 907 986 892 982 899 986 m 929 551 b 940 540 936 551 940 547 l 940 194 l 1021 194 b 1031 185 1028 194 1031 192 l 1031 175 b 1021 164 1031 168 1028 164 l 940 164 l 940 10 b 931 0 940 3 938 0 l 917 0 b 907 10 910 0 907 3 l 907 164 l 619 164 b 610 174 613 164 610 167 l 610 182 b 614 197 610 189 611 194 l 896 543 b 914 551 901 549 907 551 m 650 194 l 907 194 l 907 507 "},"½":{"ha":1174,"x_min":0,"x_max":0,"o":"m 308 999 b 319 988 315 999 319 994 l 319 458 b 308 447 319 451 315 447 l 296 447 b 285 458 289 447 285 451 l 285 956 l 71 836 b 57 839 64 832 58 833 l 51 850 b 56 864 47 857 49 861 l 286 994 b 301 999 288 994 297 999 m 926 986 b 932 974 936 986 938 982 l 224 11 b 200 0 218 4 210 0 l 186 0 b 181 13 175 0 174 4 l 889 975 b 910 986 894 982 901 986 m 742 403 l 744 414 b 935 563 753 453 796 563 b 1117 403 1051 563 1117 497 b 1068 297 1117 354 1101 319 b 963 247 1033 274 1011 264 b 946 242 956 244 950 243 l 860 210 b 774 85 803 188 774 146 l 774 32 l 1101 32 b 1113 22 1108 32 1113 29 l 1113 10 b 1101 0 1113 3 1108 0 l 754 0 b 740 14 744 0 740 4 l 740 78 b 846 236 740 157 775 210 l 932 269 b 994 293 942 274 983 288 b 1046 322 1006 297 1036 311 b 1081 401 1064 342 1081 361 b 935 529 1081 479 1029 529 b 778 400 810 529 783 425 l 776 394 b 763 386 772 388 768 385 l 750 389 b 742 403 742 390 739 396 "},"¾":{"ha":1131,"x_min":0,"x_max":0,"o":"m 68 853 b 275 1010 97 963 160 1010 b 444 854 381 1010 444 949 b 371 729 444 794 419 753 b 460 590 431 704 460 658 b 274 436 460 496 396 436 b 65 590 157 436 94 486 b 71 606 64 597 65 603 l 83 608 b 97 600 90 611 96 608 b 274 468 125 506 172 468 b 425 593 372 468 425 517 b 318 713 425 660 381 713 l 210 713 b 199 722 203 713 199 715 l 199 733 b 210 743 199 740 203 743 l 315 743 b 411 853 378 743 411 792 b 276 978 411 926 360 978 b 101 843 181 978 128 936 b 85 833 97 833 92 831 l 74 838 b 68 853 68 840 67 846 m 983 986 b 990 974 993 986 996 982 l 282 11 b 258 0 276 4 268 0 l 243 0 b 238 13 233 0 232 4 l 946 975 b 967 986 951 982 958 986 m 986 551 b 997 540 993 551 997 547 l 997 194 l 1076 194 b 1086 185 1083 194 1086 192 l 1086 175 b 1076 164 1086 168 1083 164 l 997 164 l 997 10 b 988 0 997 3 994 0 l 974 0 b 964 10 967 0 964 3 l 964 164 l 676 164 b 665 174 669 164 665 167 l 665 182 b 669 197 665 189 667 194 l 953 543 b 971 551 957 549 964 551 m 964 194 l 964 507 l 707 194 "},"¿":{"ha":756,"x_min":0,"x_max":0,"o":"m 408 651 b 382 678 388 651 382 657 l 382 685 b 408 713 382 706 388 713 l 415 713 b 442 685 436 713 442 707 l 442 678 b 415 651 442 657 436 651 m 713 -93 b 369 -322 654 -246 540 -322 b 133 -240 271 -322 192 -294 b 46 -36 75 -186 46 -118 b 133 196 51 76 76 140 b 240 279 174 235 192 247 b 344 368 289 311 311 329 b 394 514 378 406 394 454 b 404 524 394 521 397 524 l 419 524 b 431 514 426 524 431 521 b 376 347 431 443 415 390 b 326 297 357 325 340 308 b 263 250 313 285 292 269 b 144 149 206 211 183 194 b 88 -36 104 103 88 43 b 164 -214 88 -107 113 -167 b 371 -285 214 -261 283 -285 b 676 -81 522 -285 624 -217 b 690 -74 679 -74 683 -71 l 707 -79 b 713 -93 714 -81 715 -86 "},"À":{"ha":871,"x_min":0,"x_max":0,"o":"m 307 1228 b 329 1229 313 1233 319 1233 l 575 1082 b 576 1069 581 1078 581 1074 l 569 1061 b 554 1060 565 1057 561 1057 l 301 1203 b 300 1218 294 1207 293 1211 m 857 11 b 849 0 860 4 857 0 l 832 0 b 813 10 822 0 815 3 l 678 344 l 200 344 l 65 10 b 44 0 63 3 56 0 l 31 0 b 22 11 22 0 19 4 l 415 982 b 431 993 418 989 424 993 l 447 993 b 464 983 456 993 461 990 m 449 914 b 439 951 444 926 440 939 l 438 951 b 429 914 435 933 432 921 l 213 379 l 665 379 "},"Á":{"ha":871,"x_min":0,"x_max":0,"o":"m 547 1240 b 568 1239 556 1244 563 1244 l 576 1229 b 574 1214 582 1222 581 1217 l 326 1064 b 311 1065 319 1060 315 1061 l 304 1074 b 306 1086 299 1078 299 1082 m 857 11 b 849 0 860 4 857 0 l 832 0 b 813 10 822 0 815 3 l 678 344 l 200 344 l 65 10 b 44 0 63 3 56 0 l 31 0 b 22 11 22 0 19 4 l 415 982 b 431 993 418 989 424 993 l 447 993 b 464 983 456 993 461 990 m 449 914 b 439 951 444 926 440 939 l 438 951 b 429 914 435 933 432 921 l 213 379 l 665 379 "},"Â":{"ha":871,"x_min":0,"x_max":0,"o":"m 442 1243 b 465 1232 450 1243 458 1239 l 658 1072 b 653 1063 665 1065 663 1063 l 635 1063 b 615 1069 626 1063 619 1065 l 439 1213 l 261 1069 b 243 1063 257 1065 250 1063 l 225 1063 b 219 1072 215 1063 213 1065 l 414 1232 b 436 1243 421 1239 429 1243 m 857 11 b 849 0 860 4 857 0 l 832 0 b 813 10 822 0 815 3 l 678 344 l 200 344 l 65 10 b 44 0 63 3 56 0 l 31 0 b 22 11 22 0 19 4 l 415 982 b 431 993 418 989 424 993 l 447 993 b 464 983 456 993 461 990 m 449 914 b 439 951 444 926 440 939 l 438 951 b 429 914 435 933 432 921 l 213 379 l 665 379 "},"Ã":{"ha":871,"x_min":0,"x_max":0,"o":"m 644 1210 b 653 1201 650 1210 653 1207 b 551 1076 653 1118 619 1076 b 328 1181 468 1071 400 1185 b 253 1085 282 1181 253 1142 b 244 1076 253 1079 250 1076 l 232 1076 b 224 1085 226 1076 224 1079 b 325 1210 224 1163 260 1210 b 550 1104 411 1214 481 1100 b 622 1201 599 1104 622 1136 b 631 1210 622 1207 625 1210 m 857 11 b 849 0 860 4 857 0 l 832 0 b 813 10 822 0 815 3 l 678 344 l 200 344 l 65 10 b 44 0 63 3 56 0 l 31 0 b 22 11 22 0 19 4 l 415 982 b 431 993 418 989 424 993 l 447 993 b 464 983 456 993 461 990 m 449 914 b 439 951 444 926 440 939 l 438 951 b 429 914 435 933 432 921 l 213 379 l 665 379 "},"Ä":{"ha":871,"x_min":0,"x_max":0,"o":"m 313 1174 b 335 1151 331 1174 335 1168 l 335 1143 b 313 1119 335 1125 331 1119 l 303 1119 b 281 1143 288 1119 281 1128 l 281 1151 b 303 1174 281 1167 288 1174 m 574 1174 b 599 1151 590 1174 599 1167 l 599 1143 b 574 1119 599 1128 590 1119 l 567 1119 b 543 1143 549 1119 543 1125 l 543 1151 b 567 1174 543 1168 549 1174 m 857 11 b 849 0 860 4 857 0 l 832 0 b 813 10 822 0 815 3 l 678 344 l 200 344 l 65 10 b 44 0 63 3 56 0 l 31 0 b 22 11 22 0 19 4 l 415 982 b 431 993 418 989 424 993 l 447 993 b 464 983 456 993 461 990 m 449 914 b 439 951 444 926 440 939 l 438 951 b 429 914 435 933 432 921 l 213 379 l 665 379 "},"Å":{"ha":871,"x_min":0,"x_max":0,"o":"m 304 1097 b 442 1228 304 1176 357 1228 b 572 1097 521 1228 572 1179 b 468 971 572 1024 538 981 l 857 11 b 849 0 860 4 857 0 l 832 0 b 813 10 822 0 815 3 l 678 344 l 200 344 l 65 10 b 44 0 63 3 56 0 l 31 0 b 22 11 22 0 19 4 l 410 974 b 304 1097 344 983 304 1029 m 518 1022 b 518 1174 556 1060 556 1135 b 442 1201 500 1192 474 1201 b 332 1097 374 1201 332 1163 b 442 994 332 1035 374 994 b 518 1022 474 994 500 1004 m 449 914 b 439 951 444 926 440 939 l 438 951 b 429 914 435 933 432 921 l 213 379 l 665 379 "},"Æ":{"ha":1122,"x_min":0,"x_max":0,"o":"m 1058 38 b 1069 26 1065 38 1069 33 l 1069 11 b 1058 0 1069 4 1065 0 l 604 0 b 593 11 597 0 593 4 l 593 271 l 201 271 l 44 10 b 25 0 40 3 35 0 l 8 0 b -1 11 -1 0 -4 4 l 583 975 b 599 986 588 982 593 986 l 1038 986 b 1049 975 1044 986 1049 982 l 1049 960 b 1038 949 1049 953 1044 949 l 633 949 l 633 518 l 979 518 b 990 507 986 518 990 514 l 990 490 b 979 479 990 483 986 479 l 633 479 l 633 38 m 593 921 l 224 307 l 593 307 "},"Ç":{"ha":879,"x_min":0,"x_max":0,"o":"m 815 247 b 822 232 822 246 824 240 b 457 -19 776 65 674 -18 l 421 -121 b 469 -114 435 -117 451 -114 b 590 -214 546 -114 590 -151 b 442 -342 589 -296 532 -342 b 322 -308 396 -342 356 -331 b 311 -290 315 -304 311 -299 l 311 -278 b 319 -274 311 -271 314 -269 b 439 -314 351 -300 392 -314 b 556 -212 511 -314 556 -275 b 454 -139 556 -164 522 -139 b 397 -147 433 -139 414 -142 b 388 -132 386 -151 382 -144 l 429 -19 b 88 319 211 -10 88 115 l 88 668 b 457 1006 88 879 218 1006 b 819 761 668 1006 771 926 b 811 747 822 753 819 749 l 796 742 b 781 749 789 739 783 742 b 457 968 735 900 646 968 b 129 669 242 968 129 857 l 129 318 b 457 18 129 131 246 18 b 785 246 650 18 739 90 b 799 253 788 253 792 256 "},"È":{"ha":789,"x_min":0,"x_max":0,"o":"m 283 1228 b 304 1229 289 1233 296 1233 l 551 1082 b 553 1069 556 1078 557 1074 l 544 1061 b 529 1060 542 1057 536 1056 l 276 1203 b 275 1218 269 1207 268 1211 m 700 986 b 711 975 707 986 711 982 l 711 960 b 700 949 711 953 707 949 l 158 949 l 158 519 l 640 519 b 651 508 647 519 651 515 l 651 492 b 640 481 651 485 647 481 l 158 481 l 158 38 l 719 38 b 731 26 726 38 731 33 l 731 11 b 719 0 731 4 726 0 l 129 0 b 118 11 122 0 118 4 l 118 975 b 129 986 118 982 122 986 "},"É":{"ha":789,"x_min":0,"x_max":0,"o":"m 522 1240 b 543 1239 532 1244 539 1244 l 551 1229 b 550 1214 558 1222 557 1218 l 301 1064 b 286 1065 294 1060 290 1061 l 279 1074 b 281 1086 275 1078 275 1082 m 700 986 b 711 975 707 986 711 982 l 711 960 b 700 949 711 953 707 949 l 158 949 l 158 519 l 640 519 b 651 508 647 519 651 515 l 651 492 b 640 481 651 485 647 481 l 158 481 l 158 38 l 719 38 b 731 26 726 38 731 33 l 731 11 b 719 0 731 4 726 0 l 129 0 b 118 11 122 0 118 4 l 118 975 b 129 986 118 982 122 986 "},"Ê":{"ha":789,"x_min":0,"x_max":0,"o":"m 418 1243 b 442 1232 425 1243 433 1239 l 635 1072 b 628 1063 639 1065 638 1063 l 611 1063 b 590 1069 603 1063 596 1065 l 415 1213 l 238 1069 b 219 1063 232 1065 226 1063 l 200 1063 b 194 1072 192 1063 190 1065 l 389 1232 b 413 1243 397 1239 406 1243 m 700 986 b 711 975 707 986 711 982 l 711 960 b 700 949 711 953 707 949 l 158 949 l 158 519 l 640 519 b 651 508 647 519 651 515 l 651 492 b 640 481 651 485 647 481 l 158 481 l 158 38 l 719 38 b 731 26 726 38 731 33 l 731 11 b 719 0 731 4 726 0 l 129 0 b 118 11 122 0 118 4 l 118 975 b 129 986 118 982 122 986 "},"Ë":{"ha":789,"x_min":0,"x_max":0,"o":"m 288 1174 b 310 1151 306 1174 310 1168 l 310 1143 b 288 1119 310 1125 306 1119 l 279 1119 b 256 1143 264 1119 256 1128 l 256 1151 b 279 1174 256 1167 264 1174 m 550 1174 b 574 1151 565 1174 574 1167 l 574 1143 b 550 1119 574 1128 565 1119 l 542 1119 b 518 1143 524 1119 518 1125 l 518 1151 b 542 1174 518 1168 524 1174 m 700 986 b 711 975 707 986 711 982 l 711 960 b 700 949 711 953 707 949 l 158 949 l 158 519 l 640 519 b 651 508 647 519 651 515 l 651 492 b 640 481 651 485 647 481 l 158 481 l 158 38 l 719 38 b 731 26 726 38 731 33 l 731 11 b 719 0 731 4 726 0 l 129 0 b 118 11 122 0 118 4 l 118 975 b 129 986 118 982 122 986 "},"Ì":{"ha":276,"x_min":0,"x_max":0,"o":"m 15 1228 b 36 1229 21 1233 28 1233 l 283 1082 b 285 1069 288 1078 289 1074 l 278 1061 b 263 1060 274 1057 268 1056 l 10 1203 b 7 1218 3 1207 1 1211 m 128 975 b 139 986 128 982 132 986 l 157 986 b 168 975 164 986 168 982 l 168 11 b 157 0 168 4 164 0 l 139 0 b 128 11 132 0 128 4 "},"Í":{"ha":276,"x_min":0,"x_max":0,"o":"m 251 1240 b 274 1239 261 1244 268 1244 l 282 1229 b 279 1214 288 1222 286 1218 l 32 1064 b 17 1065 25 1060 21 1061 l 8 1074 b 11 1086 4 1078 4 1082 m 125 975 b 136 986 125 982 129 986 l 154 986 b 165 975 161 986 165 982 l 165 11 b 154 0 165 4 161 0 l 136 0 b 125 11 129 0 125 4 "},"Î":{"ha":276,"x_min":0,"x_max":0,"o":"m 147 1243 b 171 1232 154 1243 163 1239 l 364 1072 b 358 1063 371 1065 368 1063 l 340 1063 b 321 1069 332 1063 325 1065 l 144 1213 l -33 1069 b -51 1063 -37 1065 -44 1063 l -69 1063 b -76 1072 -79 1063 -81 1065 l 118 1232 b 142 1243 126 1239 135 1243 m 125 975 b 136 986 125 982 129 986 l 154 986 b 165 975 161 986 165 982 l 165 11 b 154 0 165 4 161 0 l 136 0 b 125 11 129 0 125 4 "},"Ï":{"ha":276,"x_min":0,"x_max":0,"o":"m 10 1174 b 33 1151 28 1174 33 1168 l 33 1143 b 10 1119 33 1125 28 1119 l 1 1119 b -21 1143 -14 1119 -21 1128 l -21 1151 b 1 1174 -21 1167 -14 1174 m 272 1174 b 296 1151 288 1174 296 1167 l 296 1143 b 272 1119 296 1128 288 1119 l 265 1119 b 240 1143 247 1119 240 1125 l 240 1151 b 265 1174 240 1167 249 1174 m 118 975 b 129 986 118 982 122 986 l 147 986 b 158 975 154 986 158 982 l 158 11 b 147 0 158 4 154 0 l 129 0 b 118 11 122 0 118 4 "},"Ð":{"ha":903,"x_min":0,"x_max":0,"o":"m 418 986 b 821 619 674 986 821 847 l 821 367 b 418 0 821 139 674 0 l 140 0 b 129 11 133 0 129 4 l 129 478 l 11 478 b 0 488 4 478 0 481 l 0 500 b 11 510 0 507 4 510 l 129 510 l 129 975 b 140 986 129 982 133 986 m 781 619 b 418 949 781 826 651 949 l 169 949 l 169 510 l 454 510 b 463 500 460 510 463 507 l 463 488 b 454 478 463 481 460 478 l 169 478 l 169 38 l 418 38 b 781 367 650 38 781 160 "},"Ñ":{"ha":953,"x_min":0,"x_max":0,"o":"m 682 1210 b 690 1201 688 1210 690 1207 b 589 1076 690 1118 657 1076 b 474 1129 556 1076 517 1094 b 365 1181 431 1164 394 1181 b 292 1085 319 1181 292 1142 b 283 1076 292 1079 289 1076 l 269 1076 b 261 1085 264 1076 261 1079 b 364 1210 261 1163 297 1210 b 482 1157 399 1210 439 1192 b 588 1104 525 1122 560 1104 b 661 1201 636 1104 661 1144 b 669 1210 661 1207 664 1210 m 825 986 b 836 975 832 986 836 982 l 836 11 b 825 0 836 4 832 0 l 807 0 b 793 8 801 0 797 3 l 268 753 b 211 840 256 772 236 801 b 156 922 185 879 167 907 l 154 922 b 157 819 154 904 156 869 b 158 704 158 769 158 731 l 158 11 b 147 0 158 4 154 0 l 129 0 b 118 11 122 0 118 4 l 118 975 b 129 986 118 982 122 986 l 146 986 b 160 979 153 986 157 983 l 669 256 b 735 161 683 236 706 204 b 799 65 764 117 785 85 l 801 65 b 799 181 801 86 800 125 b 796 308 797 235 796 278 l 796 976 b 807 986 796 983 800 986 "},"Ò":{"ha":914,"x_min":0,"x_max":0,"o":"m 326 1242 b 347 1243 332 1247 339 1247 l 594 1096 b 596 1083 599 1092 600 1088 l 589 1075 b 572 1074 585 1071 579 1069 l 319 1217 b 318 1232 313 1221 311 1225 m 88 667 b 458 1006 88 879 219 1006 b 826 667 696 1006 826 879 l 826 319 b 458 -19 826 107 696 -19 b 88 319 219 -19 88 107 m 785 665 b 458 968 785 856 668 968 b 128 665 246 968 128 856 l 128 321 b 458 18 128 131 246 18 b 785 321 668 18 785 131 "},"Ó":{"ha":914,"x_min":0,"x_max":0,"o":"m 565 1254 b 586 1253 575 1258 582 1258 l 594 1243 b 593 1228 601 1236 600 1232 l 346 1078 b 329 1079 339 1074 333 1075 l 322 1088 b 324 1100 318 1092 318 1096 m 88 667 b 458 1006 88 879 219 1006 b 826 667 696 1006 826 879 l 826 319 b 458 -19 826 107 696 -19 b 88 319 219 -19 88 107 m 785 665 b 458 968 785 856 668 968 b 128 665 246 968 128 856 l 128 321 b 458 18 128 131 246 18 b 785 321 668 18 785 131 "},"Ô":{"ha":914,"x_min":0,"x_max":0,"o":"m 461 1257 b 485 1246 468 1257 476 1253 l 678 1086 b 671 1076 682 1079 681 1076 l 654 1076 b 633 1083 646 1076 639 1079 l 458 1226 l 281 1083 b 263 1076 275 1079 269 1076 l 244 1076 b 238 1086 235 1076 233 1079 l 432 1246 b 456 1257 440 1253 449 1257 m 88 667 b 458 1006 88 879 219 1006 b 826 667 696 1006 826 879 l 826 319 b 458 -19 826 107 696 -19 b 88 319 219 -19 88 107 m 785 665 b 458 968 785 856 668 968 b 128 665 246 968 128 856 l 128 321 b 458 18 128 131 246 18 b 785 321 668 18 785 131 "},"Õ":{"ha":914,"x_min":0,"x_max":0,"o":"m 663 1224 b 671 1215 668 1224 671 1221 b 569 1090 671 1132 638 1090 b 454 1143 536 1090 497 1108 b 346 1194 411 1178 375 1194 b 272 1099 300 1194 272 1156 b 264 1090 272 1093 269 1090 l 250 1090 b 242 1099 244 1090 242 1093 b 344 1224 242 1176 278 1224 b 463 1171 379 1224 419 1206 b 568 1118 506 1136 540 1118 b 642 1215 617 1118 642 1158 b 650 1224 642 1221 644 1224 m 88 667 b 458 1006 88 879 219 1006 b 826 667 696 1006 826 879 l 826 319 b 458 -19 826 107 696 -19 b 88 319 219 -19 88 107 m 785 665 b 458 968 785 856 668 968 b 128 665 246 968 128 856 l 128 321 b 458 18 128 131 246 18 b 785 321 668 18 785 131 "},"Ö":{"ha":914,"x_min":0,"x_max":0,"o":"m 331 1188 b 353 1165 349 1188 353 1182 l 353 1157 b 331 1133 353 1139 349 1133 l 322 1133 b 300 1157 307 1133 300 1142 l 300 1165 b 322 1188 300 1181 307 1188 m 593 1188 b 617 1165 608 1188 617 1181 l 617 1157 b 593 1133 617 1142 608 1133 l 586 1133 b 561 1157 568 1133 561 1139 l 561 1165 b 586 1188 561 1181 569 1188 m 88 667 b 458 1006 88 879 219 1006 b 826 667 696 1006 826 879 l 826 319 b 458 -19 826 107 696 -19 b 88 319 219 -19 88 107 m 785 665 b 458 968 785 856 668 968 b 128 665 246 968 128 856 l 128 321 b 458 18 128 131 246 18 b 785 321 668 18 785 131 "},"×":{"ha":699,"x_min":0,"x_max":0,"o":"m 613 222 b 613 206 619 215 619 210 l 604 196 b 588 196 599 192 593 192 l 358 425 l 129 196 b 113 196 125 192 119 192 l 104 206 b 104 222 97 210 97 215 l 332 450 l 104 679 b 104 696 97 686 97 692 l 113 706 b 129 706 119 710 125 710 l 358 475 l 588 706 b 604 706 593 711 599 711 l 613 697 b 613 679 618 692 618 686 l 383 450 "},"Ø":{"ha":914,"x_min":0,"x_max":0,"o":"m 828 1040 b 832 1035 832 1040 833 1039 l 746 900 b 826 667 800 842 826 764 l 826 319 b 458 -19 826 107 696 -19 b 204 53 351 -19 267 4 l 135 -56 b 122 -61 133 -60 129 -61 l 100 -61 b 97 -56 96 -61 94 -60 l 179 74 b 88 319 118 132 88 214 l 88 667 b 458 1006 88 879 219 1006 b 721 922 571 1006 658 978 l 793 1035 b 804 1040 796 1039 800 1040 m 700 888 b 458 968 642 942 561 968 b 128 665 246 968 128 856 l 128 321 b 204 113 128 233 153 164 m 226 88 b 458 18 285 42 363 18 b 785 321 668 18 785 131 l 785 665 b 722 861 785 747 764 813 "},"Ù":{"ha":942,"x_min":0,"x_max":0,"o":"m 339 1228 b 360 1229 344 1233 351 1233 l 607 1082 b 608 1069 611 1078 613 1074 l 601 1061 b 585 1060 597 1057 592 1056 l 332 1203 b 331 1218 325 1207 324 1211 m 150 333 b 471 17 150 135 260 17 b 790 333 682 17 790 135 l 790 975 b 801 986 790 982 794 986 l 821 986 b 832 975 828 986 832 982 l 832 333 b 471 -21 832 113 708 -21 b 110 333 232 -21 110 111 l 110 975 b 121 986 110 982 114 986 l 139 986 b 150 975 146 986 150 982 "},"Ú":{"ha":942,"x_min":0,"x_max":0,"o":"m 578 1240 b 599 1239 588 1244 594 1244 l 607 1229 b 606 1214 614 1222 613 1218 l 358 1064 b 342 1065 351 1060 346 1061 l 335 1074 b 336 1086 331 1078 331 1082 m 150 333 b 471 17 150 135 260 17 b 790 333 682 17 790 135 l 790 975 b 801 986 790 982 794 986 l 821 986 b 832 975 828 986 832 982 l 832 333 b 471 -21 832 113 708 -21 b 110 333 232 -21 110 111 l 110 975 b 121 986 110 982 114 986 l 139 986 b 150 975 146 986 150 982 "},"Û":{"ha":942,"x_min":0,"x_max":0,"o":"m 474 1243 b 497 1232 481 1243 489 1239 l 690 1072 b 683 1063 694 1065 693 1063 l 667 1063 b 646 1069 658 1063 651 1065 l 471 1213 l 293 1069 b 275 1063 288 1065 282 1063 l 257 1063 b 250 1072 247 1063 246 1065 l 444 1232 b 468 1243 453 1239 461 1243 m 150 333 b 471 17 150 135 260 17 b 790 333 682 17 790 135 l 790 975 b 801 986 790 982 794 986 l 821 986 b 832 975 828 986 832 982 l 832 333 b 471 -21 832 113 708 -21 b 110 333 232 -21 110 111 l 110 975 b 121 986 110 982 114 986 l 139 986 b 150 975 146 986 150 982 "},"Ü":{"ha":942,"x_min":0,"x_max":0,"o":"m 343 1174 b 365 1151 361 1174 365 1168 l 365 1143 b 343 1119 365 1125 361 1119 l 335 1119 b 313 1143 319 1119 313 1128 l 313 1151 b 335 1174 313 1167 319 1174 m 606 1174 b 629 1151 621 1174 629 1167 l 629 1143 b 606 1119 629 1128 621 1119 l 599 1119 b 574 1143 581 1119 574 1125 l 574 1151 b 599 1174 574 1167 582 1174 m 150 333 b 471 17 150 135 260 17 b 790 333 682 17 790 135 l 790 975 b 801 986 790 982 794 986 l 821 986 b 832 975 828 986 832 982 l 832 333 b 471 -21 832 113 708 -21 b 110 333 232 -21 110 111 l 110 975 b 121 986 110 982 114 986 l 139 986 b 150 975 146 986 150 982 "},"Ý":{"ha":851,"x_min":0,"x_max":0,"o":"m 543 1240 b 564 1239 551 1244 558 1244 l 572 1229 b 571 1214 579 1222 578 1218 l 322 1064 b 307 1065 315 1060 311 1061 l 300 1074 b 301 1086 296 1078 296 1082 m 832 986 b 839 975 840 986 843 982 l 454 408 l 454 11 b 443 0 454 4 450 0 l 425 0 b 414 11 418 0 414 4 l 414 410 l 32 975 b 39 986 26 982 29 986 l 61 986 b 82 976 71 986 78 983 l 435 451 l 789 976 b 808 986 793 983 799 986 "},"Þ":{"ha":851,"x_min":0,"x_max":0,"o":"m 490 811 b 807 499 685 811 807 692 b 490 189 807 306 685 189 l 158 189 l 158 11 b 147 0 158 4 154 0 l 129 0 b 118 11 122 0 118 4 l 118 975 b 129 986 118 982 122 986 l 147 986 b 158 975 154 986 158 982 l 158 811 m 486 228 b 764 499 658 228 764 331 b 486 772 764 669 658 772 l 158 772 l 158 228 "},"ß":{"ha":758,"x_min":0,"x_max":0,"o":"m 103 733 b 378 1042 103 924 200 1042 b 660 767 565 1042 660 950 b 515 539 660 672 614 572 l 515 536 b 694 282 631 507 694 415 b 417 0 694 94 596 0 l 271 0 b 260 11 264 0 260 4 l 260 26 b 271 38 260 33 264 38 l 415 38 b 654 285 575 38 654 119 b 429 517 654 428 569 517 l 278 517 b 267 528 271 517 267 521 l 267 542 b 278 553 267 549 271 553 l 426 553 b 603 671 515 553 581 610 b 619 764 614 700 619 732 b 378 1004 619 924 539 1004 b 140 733 224 1004 140 901 l 140 11 b 129 0 140 4 136 0 l 114 0 b 103 11 107 0 103 4 "},"à":{"ha":704,"x_min":0,"x_max":0,"o":"m 218 988 b 239 989 225 994 232 994 l 481 836 b 482 822 486 832 486 828 l 475 814 b 460 813 472 810 467 810 l 211 964 b 210 979 204 968 203 972 m 82 582 b 351 729 132 681 222 729 b 615 463 568 729 615 606 l 615 96 b 565 17 615 47 604 33 b 351 -19 510 -7 439 -19 b 121 32 239 -19 161 -3 b 58 190 79 65 58 118 b 357 396 58 340 140 396 b 578 379 399 396 472 390 l 578 464 b 350 694 578 590 540 694 b 115 567 240 694 161 651 b 101 561 111 561 107 560 l 88 567 b 82 582 79 569 78 575 m 578 346 b 354 364 501 358 428 364 b 97 190 165 364 97 317 b 150 57 97 129 115 85 b 350 14 185 28 251 14 b 542 46 429 14 493 25 b 578 101 574 58 578 67 "},"á":{"ha":704,"x_min":0,"x_max":0,"o":"m 454 989 b 476 988 463 994 469 994 l 483 979 b 482 964 490 972 489 968 l 235 813 b 219 814 228 810 222 810 l 211 822 b 213 836 207 828 207 832 m 82 582 b 351 729 132 681 222 729 b 615 463 568 729 615 606 l 615 96 b 565 17 615 47 604 33 b 351 -19 510 -7 439 -19 b 121 32 239 -19 161 -3 b 58 190 79 65 58 118 b 357 396 58 340 140 396 b 578 379 399 396 472 390 l 578 464 b 350 694 578 590 540 694 b 115 567 240 694 161 651 b 101 561 111 561 107 560 l 88 567 b 82 582 79 569 78 575 m 578 346 b 354 364 501 358 428 364 b 97 190 165 364 97 317 b 150 57 97 129 115 85 b 350 14 185 28 251 14 b 542 46 429 14 493 25 b 578 101 574 58 578 67 "},"â":{"ha":704,"x_min":0,"x_max":0,"o":"m 350 983 b 374 972 357 983 365 979 l 567 811 b 561 803 572 806 571 803 l 543 803 b 524 810 535 803 528 806 l 347 953 l 169 810 b 151 803 164 806 158 803 l 133 803 b 126 811 124 803 121 806 l 321 972 b 344 983 331 979 338 983 m 82 582 b 351 729 132 681 222 729 b 615 463 568 729 615 606 l 615 96 b 565 17 615 47 604 33 b 351 -19 510 -7 439 -19 b 121 32 239 -19 161 -3 b 58 190 79 65 58 118 b 357 396 58 340 140 396 b 578 379 399 396 472 390 l 578 464 b 350 694 578 590 540 694 b 115 567 240 694 161 651 b 101 561 111 561 107 560 l 88 567 b 82 582 79 569 78 575 m 578 346 b 354 364 501 358 428 364 b 97 190 165 364 97 317 b 150 57 97 129 115 85 b 350 14 185 28 251 14 b 542 46 429 14 493 25 b 578 101 574 58 578 67 "},"ã":{"ha":704,"x_min":0,"x_max":0,"o":"m 551 960 b 560 951 557 960 560 957 b 458 826 560 868 526 826 b 343 879 425 826 386 844 b 235 931 300 914 264 931 b 161 835 189 931 161 892 b 153 826 161 829 158 826 l 139 826 b 131 835 133 826 131 829 b 233 960 131 913 167 960 b 351 908 268 960 308 943 b 457 856 394 874 429 856 b 531 951 506 856 531 894 b 539 960 531 957 533 960 m 82 582 b 351 729 132 681 222 729 b 615 463 568 729 615 606 l 615 96 b 565 17 615 47 604 33 b 351 -19 510 -7 439 -19 b 121 32 239 -19 161 -3 b 58 190 79 65 58 118 b 357 396 58 340 140 396 b 578 379 399 396 472 390 l 578 464 b 350 694 578 590 540 694 b 115 567 240 694 161 651 b 101 561 111 561 107 560 l 88 567 b 82 582 79 569 78 575 m 578 346 b 354 364 501 358 428 364 b 97 190 165 364 97 317 b 150 57 97 129 115 85 b 350 14 185 28 251 14 b 542 46 429 14 493 25 b 578 101 574 58 578 67 "},"ä":{"ha":704,"x_min":0,"x_max":0,"o":"m 219 929 b 243 907 238 929 243 924 l 243 897 b 219 875 243 879 238 875 l 211 875 b 189 897 194 875 189 879 l 189 907 b 211 929 189 922 196 929 m 482 929 b 506 907 497 929 506 922 l 506 897 b 482 875 506 882 497 875 l 475 875 b 450 897 454 875 450 879 l 450 907 b 475 929 450 922 458 929 m 82 582 b 351 729 132 681 222 729 b 615 463 568 729 615 606 l 615 96 b 565 17 615 47 604 33 b 351 -19 510 -7 439 -19 b 121 32 239 -19 161 -3 b 58 190 79 65 58 118 b 357 396 58 340 140 396 b 578 379 399 396 472 390 l 578 464 b 350 694 578 590 540 694 b 115 567 240 694 161 651 b 101 561 111 561 107 560 l 88 567 b 82 582 79 569 78 575 m 578 346 b 354 364 501 358 428 364 b 97 190 165 364 97 317 b 150 57 97 129 115 85 b 350 14 185 28 251 14 b 542 46 429 14 493 25 b 578 101 574 58 578 67 "},"å":{"ha":704,"x_min":0,"x_max":0,"o":"m 253 854 b 217 947 229 876 217 907 b 253 1042 217 988 229 1018 b 350 1075 276 1064 310 1075 b 479 947 429 1075 479 1026 b 350 819 479 868 429 819 b 253 854 310 819 276 831 m 454 947 b 350 1050 454 1010 415 1050 b 242 947 283 1050 242 1010 b 350 843 242 882 283 843 b 454 947 415 843 454 882 m 82 582 b 351 729 132 681 222 729 b 615 463 568 729 615 606 l 615 96 b 565 17 615 47 604 33 b 351 -19 510 -7 439 -19 b 121 32 239 -19 161 -3 b 58 190 79 65 58 118 b 357 396 58 340 140 396 b 578 379 399 396 472 390 l 578 464 b 350 694 578 590 540 694 b 115 567 240 694 161 651 b 101 561 111 561 107 560 l 88 567 b 82 582 79 569 78 575 m 578 346 b 354 364 501 358 428 364 b 97 190 165 364 97 317 b 150 57 97 129 115 85 b 350 14 185 28 251 14 b 542 46 429 14 493 25 b 578 101 574 58 578 67 "},"æ":{"ha":1082,"x_min":0,"x_max":0,"o":"m 83 583 b 321 729 135 681 214 729 b 533 575 440 729 511 678 b 764 729 564 678 640 729 b 1017 446 932 729 1017 635 l 1017 374 b 992 350 1017 358 1008 350 l 550 350 l 550 244 b 758 14 550 90 619 14 b 890 49 817 14 861 25 b 974 160 919 72 947 108 b 990 165 978 167 983 168 l 1003 158 b 1006 143 1010 154 1010 150 b 913 21 978 89 947 47 b 758 -19 878 -6 826 -19 b 547 89 654 -19 583 17 b 321 -19 511 17 436 -19 b 60 186 122 -19 60 43 b 326 394 60 338 132 394 b 511 376 369 394 431 389 l 511 468 b 474 636 511 542 499 597 b 319 694 447 675 396 694 b 118 568 229 694 163 653 b 104 563 114 563 108 561 l 89 568 b 83 583 82 571 79 576 m 979 447 b 764 696 979 613 907 696 b 550 447 613 696 550 608 l 550 382 l 979 382 m 511 343 b 322 361 444 356 382 361 b 99 186 157 361 99 314 b 318 14 99 68 151 14 b 525 129 432 14 501 53 b 511 239 515 160 511 196 "},"ç":{"ha":711,"x_min":0,"x_max":0,"o":"m 650 199 b 657 185 657 196 658 192 b 381 -19 619 53 526 -15 l 343 -121 b 393 -114 357 -117 374 -114 b 513 -214 469 -114 514 -151 b 364 -342 511 -296 454 -342 b 244 -308 319 -342 279 -331 b 235 -290 238 -304 235 -299 l 235 -278 b 242 -274 235 -271 238 -269 b 361 -314 274 -300 314 -314 b 479 -212 435 -314 479 -275 b 378 -139 479 -164 446 -139 b 321 -147 356 -139 336 -142 b 310 -132 310 -151 306 -144 l 351 -19 b 76 247 174 -14 76 82 l 76 464 b 368 729 76 631 178 729 b 651 538 533 729 614 665 b 646 522 653 531 651 525 l 631 518 b 617 524 624 515 619 517 b 365 694 582 644 511 694 b 114 465 203 694 114 608 l 114 246 b 365 15 114 103 204 15 b 619 196 508 15 586 72 b 633 203 622 203 626 206 "},"è":{"ha":729,"x_min":0,"x_max":0,"o":"m 240 989 b 261 990 246 994 253 994 l 503 838 b 504 824 508 833 508 829 l 497 815 b 482 814 493 813 489 813 l 233 965 b 232 979 226 969 225 974 m 74 442 b 369 729 74 621 176 729 b 665 443 560 729 665 619 l 665 374 b 640 350 665 358 657 350 l 111 350 l 111 247 b 360 14 111 103 197 14 b 622 163 483 14 571 64 b 639 167 626 169 632 171 l 651 160 b 654 146 658 157 658 153 b 360 -19 599 36 500 -19 b 74 250 171 -19 74 82 m 626 444 b 369 696 626 600 538 696 b 111 444 201 696 111 600 l 111 382 l 626 382 "},"é":{"ha":729,"x_min":0,"x_max":0,"o":"m 476 990 b 499 989 486 994 493 994 l 506 979 b 504 965 513 974 511 969 l 257 814 b 242 815 250 811 244 811 l 233 824 b 235 838 229 829 229 833 m 74 442 b 369 729 74 621 176 729 b 665 443 560 729 665 619 l 665 374 b 640 350 665 358 657 350 l 111 350 l 111 247 b 360 14 111 103 197 14 b 622 163 483 14 571 64 b 639 167 626 169 632 171 l 651 160 b 654 146 658 157 658 153 b 360 -19 599 36 500 -19 b 74 250 171 -19 74 82 m 626 444 b 369 696 626 600 538 696 b 111 444 201 696 111 600 l 111 382 l 626 382 "},"ê":{"ha":729,"x_min":0,"x_max":0,"o":"m 372 978 b 394 967 379 978 388 974 l 585 811 b 578 801 589 804 588 801 l 561 801 b 542 808 553 801 546 804 l 369 949 l 196 808 b 178 801 190 804 185 801 l 160 801 b 154 811 150 801 147 804 l 344 967 b 367 978 351 974 360 978 m 74 442 b 369 729 74 621 176 729 b 665 443 560 729 665 619 l 665 374 b 640 350 665 358 657 350 l 111 350 l 111 247 b 360 14 111 103 197 14 b 622 163 483 14 571 64 b 639 167 626 169 632 171 l 651 160 b 654 146 658 157 658 153 b 360 -19 599 36 500 -19 b 74 250 171 -19 74 82 m 626 444 b 369 696 626 600 538 696 b 111 444 201 696 111 600 l 111 382 l 626 382 "},"ë":{"ha":729,"x_min":0,"x_max":0,"o":"m 242 931 b 265 908 260 931 265 925 l 265 899 b 242 876 265 881 260 876 l 233 876 b 211 899 217 876 211 881 l 211 908 b 233 931 211 924 218 931 m 504 931 b 528 908 519 931 528 924 l 528 899 b 504 876 528 883 519 876 l 497 876 b 472 899 476 876 472 881 l 472 908 b 497 931 472 924 481 931 m 74 442 b 369 729 74 621 176 729 b 665 443 560 729 665 619 l 665 374 b 640 350 665 358 657 350 l 111 350 l 111 247 b 360 14 111 103 197 14 b 622 163 483 14 571 64 b 639 167 626 169 632 171 l 651 160 b 654 146 658 157 658 153 b 360 -19 599 36 500 -19 b 74 250 171 -19 74 82 m 626 444 b 369 696 626 600 538 696 b 111 444 201 696 111 600 l 111 382 l 626 382 "},"ì":{"ha":240,"x_min":0,"x_max":0,"o":"m 32 981 b 51 983 36 986 43 988 l 239 836 b 242 821 246 832 246 828 l 236 814 b 221 814 233 810 228 810 l 26 957 b 24 971 19 960 18 964 m 138 710 b 149 700 144 710 149 707 l 149 10 b 138 0 149 3 144 0 l 121 0 b 111 10 114 0 111 3 l 111 700 b 121 710 111 707 114 710 "},"í":{"ha":240,"x_min":0,"x_max":0,"o":"m 208 983 b 228 981 217 988 224 986 l 236 971 b 233 957 242 964 240 960 l 39 813 b 24 814 31 810 25 810 l 18 821 b 21 835 13 825 14 831 m 138 710 b 147 700 144 710 147 707 l 147 10 b 138 0 147 3 144 0 l 119 0 b 110 10 113 0 110 3 l 110 700 b 119 710 110 707 113 710 "},"î":{"ha":240,"x_min":0,"x_max":0,"o":"m 290 822 b 283 814 296 817 293 814 l 269 814 b 250 819 260 814 253 815 l 125 951 l 0 819 b -18 814 -1 815 -8 814 l -35 814 b -40 822 -42 814 -44 817 l 101 971 b 122 981 108 978 115 981 l 128 981 b 150 971 136 981 143 978 m 135 710 b 144 700 142 710 144 707 l 144 10 b 135 0 144 3 142 0 l 117 0 b 107 10 110 0 107 3 l 107 700 b 117 710 107 707 110 710 "},"ï":{"ha":240,"x_min":0,"x_max":0,"o":"m 32 954 b 54 931 50 954 54 949 l 54 922 b 32 900 54 904 50 900 l 22 900 b 0 922 6 900 0 904 l 0 931 b 22 954 0 946 7 954 m 215 954 b 240 931 232 954 240 946 l 240 922 b 215 900 240 907 232 900 l 208 900 b 185 922 190 900 185 904 l 185 931 b 208 954 185 949 190 954 m 129 710 b 139 700 136 710 139 707 l 139 10 b 129 0 139 3 136 0 l 111 0 b 101 10 104 0 101 3 l 101 700 b 111 710 101 707 104 710 "},"ð":{"ha":763,"x_min":0,"x_max":0,"o":"m 604 1036 b 617 1036 608 1040 613 1040 l 625 1029 b 626 1017 629 1025 631 1021 l 542 931 b 668 557 626 856 668 731 l 668 239 b 372 -19 668 76 565 -19 b 76 239 179 -19 76 76 l 76 442 b 368 701 76 604 179 701 b 632 565 504 701 592 656 b 517 903 631 724 592 836 l 397 779 b 385 779 393 775 389 775 l 376 786 b 375 799 372 790 372 794 l 493 919 b 197 993 425 968 326 993 b 186 1004 190 993 186 997 l 186 1018 b 197 1028 186 1025 190 1028 b 517 947 339 1028 446 1001 m 631 442 b 372 667 631 585 539 667 b 114 442 206 667 114 585 l 114 239 b 372 15 114 96 204 15 b 631 239 539 15 631 99 "},"ñ":{"ha":757,"x_min":0,"x_max":0,"o":"m 581 961 b 589 953 586 961 589 958 b 488 828 589 869 556 828 b 264 932 388 828 350 932 b 189 836 215 932 189 893 b 181 828 189 831 186 828 l 168 828 b 160 836 163 828 160 831 b 261 961 160 914 196 961 b 379 910 296 961 336 944 b 486 857 422 875 458 857 b 558 953 535 857 558 889 b 567 961 558 958 561 961 m 150 685 b 397 729 224 714 306 729 b 661 464 574 729 661 640 l 661 10 b 651 0 661 3 658 0 l 635 0 b 624 10 628 0 624 3 l 624 461 b 394 694 624 617 547 694 b 169 653 306 694 231 681 b 136 603 147 643 136 626 l 136 10 b 126 0 136 3 133 0 l 108 0 b 99 10 101 0 99 3 l 99 610 b 150 685 99 650 110 667 "},"ò":{"ha":744,"x_min":0,"x_max":0,"o":"m 243 988 b 264 989 249 994 256 994 l 506 836 b 507 822 511 832 511 828 l 500 814 b 483 813 496 810 490 810 l 236 964 b 235 979 229 968 228 972 m 79 493 b 372 729 79 638 194 729 b 665 493 550 729 665 638 l 665 217 b 372 -19 665 72 550 -19 b 79 217 194 -19 79 72 m 628 494 b 372 694 628 617 526 694 b 117 494 221 694 117 617 l 117 215 b 372 15 117 93 221 15 b 628 215 526 15 628 93 "},"ó":{"ha":744,"x_min":0,"x_max":0,"o":"m 479 989 b 500 988 486 994 493 994 l 508 979 b 507 964 515 972 514 968 l 258 813 b 243 814 251 810 246 810 l 236 822 b 238 836 232 828 232 832 m 79 493 b 372 729 79 638 194 729 b 665 493 550 729 665 638 l 665 217 b 372 -19 665 72 550 -19 b 79 217 194 -19 79 72 m 628 494 b 372 694 628 617 526 694 b 117 494 221 694 117 617 l 117 215 b 372 15 117 93 221 15 b 628 215 526 15 628 93 "},"ô":{"ha":744,"x_min":0,"x_max":0,"o":"m 375 976 b 397 967 382 976 390 974 l 586 810 b 581 800 592 806 590 800 l 563 800 b 543 807 556 800 549 803 l 372 947 l 199 807 b 181 800 193 803 188 800 l 163 800 b 156 810 151 800 149 803 l 346 967 b 368 976 354 974 361 976 m 79 493 b 372 729 79 638 194 729 b 665 493 550 729 665 638 l 665 217 b 372 -19 665 72 550 -19 b 79 217 194 -19 79 72 m 628 494 b 372 694 628 617 526 694 b 117 494 221 694 117 617 l 117 215 b 372 15 117 93 221 15 b 628 215 526 15 628 93 "},"õ":{"ha":744,"x_min":0,"x_max":0,"o":"m 576 960 b 585 951 582 960 585 957 b 483 826 585 868 551 826 b 260 931 400 821 332 935 b 185 835 214 931 185 892 b 178 826 185 829 182 826 l 164 826 b 156 835 158 826 156 829 b 258 960 156 913 192 960 b 376 908 293 960 333 943 b 482 856 419 874 454 856 b 556 951 531 856 556 894 b 564 960 556 957 558 960 m 79 493 b 372 729 79 638 194 729 b 665 493 550 729 665 638 l 665 217 b 372 -19 665 72 550 -19 b 79 217 194 -19 79 72 m 628 494 b 372 694 628 617 526 694 b 117 494 221 694 117 617 l 117 215 b 372 15 117 93 221 15 b 628 215 526 15 628 93 "},"ö":{"ha":744,"x_min":0,"x_max":0,"o":"m 244 929 b 267 907 263 929 267 924 l 267 897 b 244 875 267 879 263 875 l 236 875 b 213 897 221 875 213 882 l 213 907 b 236 929 213 922 221 929 m 507 929 b 531 907 522 929 531 922 l 531 897 b 507 875 531 882 522 875 l 499 875 b 475 897 481 875 475 879 l 475 907 b 499 929 475 924 481 929 m 79 493 b 372 729 79 638 194 729 b 665 493 550 729 665 638 l 665 217 b 372 -19 665 72 550 -19 b 79 217 194 -19 79 72 m 628 494 b 372 694 628 617 526 694 b 117 494 221 694 117 617 l 117 215 b 372 15 117 93 221 15 b 628 215 526 15 628 93 "},"÷":{"ha":832,"x_min":0,"x_max":0,"o":"m 419 765 b 446 738 440 765 446 760 l 446 732 b 419 704 446 711 440 704 l 413 704 b 386 732 392 704 386 710 l 386 738 b 413 765 386 760 392 765 m 732 469 b 743 458 739 469 743 465 l 743 443 b 732 432 743 436 739 432 l 100 432 b 89 443 93 432 89 436 l 89 458 b 100 469 89 465 93 469 m 419 200 b 446 172 440 200 446 193 l 446 167 b 419 139 446 144 440 139 l 413 139 b 386 167 392 139 386 144 l 386 172 b 413 200 386 193 392 200 "},"ø":{"ha":744,"x_min":0,"x_max":0,"o":"m 646 767 b 647 761 647 767 649 765 l 586 665 b 665 493 639 624 665 567 l 665 217 b 372 -19 665 72 550 -19 b 183 28 296 -19 233 -4 l 138 -43 b 126 -49 135 -47 131 -49 l 107 -49 b 104 -43 103 -49 103 -47 l 158 44 b 79 217 106 86 79 143 l 79 493 b 372 729 79 638 194 729 b 563 682 450 729 514 714 l 615 763 b 625 767 617 765 621 767 m 543 650 b 372 694 497 679 440 694 b 117 494 221 694 117 617 l 117 215 b 182 78 117 158 139 113 m 201 60 b 372 15 247 31 304 15 b 628 215 526 15 628 93 l 628 494 b 564 631 628 550 607 596 "},"ù":{"ha":757,"x_min":0,"x_max":0,"o":"m 249 988 b 269 989 254 994 261 994 l 511 836 b 513 822 517 832 517 828 l 506 814 b 489 813 501 810 496 810 l 242 964 b 240 979 235 968 233 972 m 649 710 b 658 700 656 710 658 707 l 658 101 b 607 25 658 58 647 43 b 360 -19 533 -4 451 -19 b 96 246 183 -19 96 69 l 96 700 b 106 710 96 707 99 710 l 124 710 b 133 700 131 710 133 707 l 133 249 b 364 15 133 93 210 15 b 588 56 449 15 522 29 b 621 108 610 65 621 83 l 621 700 b 632 710 621 707 625 710 "},"ú":{"ha":757,"x_min":0,"x_max":0,"o":"m 485 989 b 506 988 492 994 499 994 l 514 979 b 513 964 521 972 519 968 l 264 813 b 249 814 257 810 253 810 l 242 822 b 243 836 238 828 238 832 m 649 710 b 658 700 656 710 658 707 l 658 101 b 607 25 658 58 647 43 b 360 -19 533 -4 451 -19 b 96 246 183 -19 96 69 l 96 700 b 106 710 96 707 99 710 l 124 710 b 133 700 131 710 133 707 l 133 249 b 364 15 133 93 210 15 b 588 56 449 15 522 29 b 621 108 610 65 621 83 l 621 700 b 632 710 621 707 625 710 "},"û":{"ha":757,"x_min":0,"x_max":0,"o":"m 381 983 b 403 972 388 983 396 979 l 597 811 b 590 803 603 806 600 803 l 572 803 b 553 810 565 803 558 806 l 378 953 l 200 810 b 182 803 194 806 189 803 l 163 803 b 157 811 151 803 150 806 l 351 972 b 374 983 360 979 367 983 m 649 710 b 658 700 656 710 658 707 l 658 101 b 607 25 658 58 647 43 b 360 -19 533 -4 451 -19 b 96 246 183 -19 96 69 l 96 700 b 106 710 96 707 99 710 l 124 710 b 133 700 131 710 133 707 l 133 249 b 364 15 133 93 210 15 b 588 56 449 15 522 29 b 621 108 610 65 621 83 l 621 700 b 632 710 621 707 625 710 "},"ü":{"ha":757,"x_min":0,"x_max":0,"o":"m 250 929 b 272 907 268 929 272 924 l 272 897 b 250 875 272 879 268 875 l 242 875 b 218 897 226 875 218 882 l 218 907 b 242 929 218 922 226 929 m 513 929 b 536 907 528 929 536 922 l 536 897 b 513 875 536 882 528 875 l 504 875 b 481 897 486 875 481 879 l 481 907 b 504 929 481 924 486 929 m 649 710 b 658 700 656 710 658 707 l 658 101 b 607 25 658 58 647 43 b 360 -19 533 -4 451 -19 b 96 246 183 -19 96 69 l 96 700 b 106 710 96 707 99 710 l 124 710 b 133 700 131 710 133 707 l 133 249 b 364 15 133 93 210 15 b 588 56 449 15 522 29 b 621 108 610 65 621 83 l 621 700 b 632 710 621 707 625 710 "},"ý":{"ha":761,"x_min":0,"x_max":0,"o":"m 485 989 b 506 988 492 994 499 994 l 514 979 b 513 964 521 972 519 968 l 264 813 b 249 814 257 810 253 810 l 242 822 b 243 836 238 828 238 832 m 649 710 b 658 700 656 710 658 707 l 658 -57 b 372 -357 658 -257 563 -357 b 106 -194 246 -357 157 -303 b 110 -178 101 -187 103 -182 l 122 -172 b 139 -176 128 -168 133 -169 b 372 -321 185 -272 263 -321 b 621 -58 538 -321 621 -233 l 621 38 b 360 -15 528 3 442 -15 b 96 251 183 -15 96 74 l 96 700 b 106 710 96 707 99 710 l 124 710 b 133 700 131 710 133 707 l 133 253 b 364 19 133 97 210 19 b 621 74 446 19 531 38 l 621 700 b 632 710 621 707 625 710 "},"þ":{"ha":743,"x_min":0,"x_max":0,"o":"m 103 1017 b 113 1028 103 1024 106 1028 l 131 1028 b 140 1017 138 1028 140 1024 l 140 661 b 382 718 214 699 294 718 b 665 443 571 718 665 626 l 665 246 b 401 -21 665 68 578 -21 b 140 46 310 -21 222 1 l 140 -296 b 131 -306 140 -303 138 -306 l 113 -306 b 103 -296 106 -306 103 -303 m 628 442 b 378 683 628 603 544 683 b 140 624 293 683 214 664 l 140 85 b 399 14 221 38 307 14 b 628 246 551 14 628 92 "},"ÿ":{"ha":761,"x_min":0,"x_max":0,"o":"m 250 929 b 272 907 268 929 272 924 l 272 897 b 250 875 272 879 268 875 l 242 875 b 218 897 226 875 218 882 l 218 907 b 242 929 218 922 226 929 m 513 929 b 536 907 528 929 536 922 l 536 897 b 513 875 536 882 528 875 l 504 875 b 481 897 486 875 481 879 l 481 907 b 504 929 481 924 486 929 m 649 710 b 658 700 656 710 658 707 l 658 -57 b 372 -357 658 -257 563 -357 b 106 -194 246 -357 157 -303 b 110 -178 101 -187 103 -182 l 122 -172 b 139 -176 128 -168 133 -169 b 372 -321 185 -272 263 -321 b 621 -58 538 -321 621 -233 l 621 38 b 360 -15 528 3 442 -15 b 96 251 183 -15 96 74 l 96 700 b 106 710 96 707 99 710 l 124 710 b 133 700 131 710 133 707 l 133 253 b 364 19 133 97 210 19 b 621 74 446 19 531 38 l 621 700 b 632 710 621 707 625 710 "},"Ā":{"ha":871,"x_min":0,"x_max":0,"o":"m 606 1157 b 615 1146 613 1157 615 1153 l 615 1136 b 606 1126 615 1129 613 1126 l 274 1126 b 264 1136 267 1126 264 1129 l 264 1146 b 274 1157 264 1153 267 1157 m 857 11 b 849 0 860 4 857 0 l 832 0 b 813 10 822 0 815 3 l 678 344 l 200 344 l 65 10 b 44 0 63 3 56 0 l 31 0 b 22 11 22 0 19 4 l 415 982 b 431 993 418 989 424 993 l 447 993 b 464 983 456 993 461 990 m 449 914 b 439 951 444 926 440 939 l 438 951 b 429 914 435 933 432 921 l 213 379 l 665 379 "},"ā":{"ha":704,"x_min":0,"x_max":0,"o":"m 513 904 b 524 893 519 904 524 900 l 524 883 b 513 872 524 876 519 872 l 181 872 b 171 883 174 872 171 876 l 171 893 b 181 904 171 900 174 904 m 82 582 b 351 729 132 681 222 729 b 615 463 568 729 615 606 l 615 96 b 565 17 615 47 604 33 b 351 -19 510 -7 439 -19 b 121 32 239 -19 161 -3 b 58 190 79 65 58 118 b 357 396 58 340 140 396 b 578 379 399 396 472 390 l 578 464 b 350 694 578 590 540 694 b 115 567 240 694 161 651 b 101 561 111 561 107 560 l 88 567 b 82 582 79 569 78 575 m 578 346 b 354 364 501 358 428 364 b 97 190 165 364 97 317 b 150 57 97 129 115 85 b 350 14 185 28 251 14 b 542 46 429 14 493 25 b 578 101 574 58 578 67 "},"Ă":{"ha":871,"x_min":0,"x_max":0,"o":"m 646 1221 b 439 1063 617 1111 551 1063 b 233 1221 326 1063 263 1111 b 238 1232 231 1225 232 1229 l 253 1236 b 265 1231 258 1239 263 1238 b 439 1094 289 1140 347 1094 b 614 1231 532 1094 590 1140 b 625 1238 615 1236 619 1239 l 642 1232 b 646 1221 646 1229 647 1225 m 857 11 b 849 0 860 4 857 0 l 832 0 b 813 10 822 0 815 3 l 678 344 l 200 344 l 65 10 b 44 0 63 3 56 0 l 31 0 b 22 11 22 0 19 4 l 415 982 b 431 993 418 989 424 993 l 447 993 b 464 983 456 993 461 990 m 449 914 b 439 951 444 926 440 939 l 438 951 b 429 914 435 933 432 921 l 213 379 l 665 379 "},"ă":{"ha":704,"x_min":0,"x_max":0,"o":"m 554 967 b 347 810 526 863 457 810 b 140 967 238 810 168 863 b 146 979 139 972 142 976 l 161 983 b 172 978 168 986 171 985 b 347 842 196 883 251 842 b 522 978 443 842 499 883 b 532 983 524 985 526 986 l 549 979 b 554 967 553 976 556 972 m 82 582 b 351 729 132 681 222 729 b 615 463 568 729 615 606 l 615 96 b 565 17 615 47 604 33 b 351 -19 510 -7 439 -19 b 121 32 239 -19 161 -3 b 58 190 79 65 58 118 b 357 396 58 340 140 396 b 578 379 399 396 472 390 l 578 464 b 350 694 578 590 540 694 b 115 567 240 694 161 651 b 101 561 111 561 107 560 l 88 567 b 82 582 79 569 78 575 m 578 346 b 354 364 501 358 428 364 b 97 190 165 364 97 317 b 150 57 97 129 115 85 b 350 14 185 28 251 14 b 542 46 429 14 493 25 b 578 101 574 58 578 67 "},"Ą":{"ha":869,"x_min":0,"x_max":0,"o":"m 447 993 b 464 983 456 993 461 990 l 854 17 b 853 -1 857 8 857 3 b 725 -143 796 -44 754 -92 b 700 -264 696 -193 688 -233 b 765 -311 710 -293 738 -311 b 867 -268 806 -311 839 -297 b 875 -269 871 -264 874 -265 l 879 -285 b 876 -296 881 -289 881 -292 b 757 -344 842 -328 803 -344 b 665 -282 717 -344 678 -321 b 824 7 636 -206 694 -89 b 810 19 817 8 811 13 l 672 357 l 206 357 l 65 10 b 46 0 63 3 56 0 l 31 0 b 22 11 22 0 19 4 l 415 982 b 431 993 418 989 424 993 m 542 689 b 493 815 532 713 517 756 b 440 949 469 875 453 919 l 439 949 b 386 815 426 919 410 875 b 338 689 363 756 347 713 l 219 392 l 660 392 "},"ą":{"ha":707,"x_min":0,"x_max":0,"o":"m 82 582 b 351 729 132 681 222 729 b 615 463 568 729 615 606 l 615 96 b 596 33 615 67 608 46 b 467 -125 539 -11 496 -64 b 439 -264 436 -185 426 -232 b 508 -311 451 -296 474 -311 b 606 -267 546 -311 579 -296 b 614 -268 610 -262 613 -264 l 619 -283 b 617 -294 621 -287 619 -290 b 497 -344 582 -328 542 -344 b 404 -282 449 -344 418 -324 b 419 -147 392 -247 396 -201 b 526 4 442 -92 478 -42 b 351 -19 481 -11 422 -19 b 121 32 239 -19 161 -3 b 58 190 79 65 58 118 b 357 396 58 340 140 396 b 578 379 399 396 472 390 l 578 464 b 350 694 578 590 540 694 b 115 567 240 694 161 651 b 101 561 111 561 107 560 l 88 567 b 82 582 79 569 78 575 m 578 346 b 354 364 501 358 428 364 b 97 190 165 364 97 317 b 150 57 97 129 115 85 b 350 14 185 28 251 14 b 542 46 429 14 493 25 b 578 101 574 58 578 67 "},"Ć":{"ha":879,"x_min":0,"x_max":0,"o":"m 565 1240 b 586 1239 574 1244 581 1244 l 594 1229 b 593 1214 601 1222 600 1218 l 344 1064 b 329 1065 338 1060 333 1061 l 322 1074 b 324 1086 318 1078 318 1082 m 88 668 b 457 1006 88 879 218 1006 b 819 761 668 1006 771 926 b 811 747 822 753 819 749 l 796 742 b 781 749 789 739 783 742 b 457 968 735 900 646 968 b 129 669 242 968 129 857 l 129 318 b 457 18 129 131 246 18 b 785 246 650 18 739 90 b 799 253 788 253 792 256 l 815 247 b 822 232 822 246 824 240 b 457 -19 776 64 674 -19 b 88 319 219 -19 88 107 "},"ć":{"ha":713,"x_min":0,"x_max":0,"o":"m 475 989 b 497 988 483 994 490 994 l 504 979 b 503 964 511 972 510 968 l 256 813 b 240 814 249 810 243 810 l 232 822 b 233 836 228 828 228 832 m 76 464 b 368 729 76 631 178 729 b 651 538 533 729 614 665 b 646 522 653 531 651 525 l 631 518 b 617 524 624 515 619 517 b 365 694 582 644 511 694 b 114 465 203 694 114 608 l 114 246 b 365 15 114 103 204 15 b 619 196 508 15 586 72 b 633 203 622 203 626 206 l 650 199 b 657 185 657 196 658 192 b 367 -19 618 49 521 -19 b 76 247 179 -19 76 79 "},"Ĉ":{"ha":879,"x_min":0,"x_max":0,"o":"m 461 1243 b 483 1232 468 1243 476 1239 l 678 1072 b 671 1063 682 1065 681 1063 l 653 1063 b 633 1069 646 1063 639 1065 l 458 1213 l 281 1069 b 263 1063 275 1065 269 1063 l 243 1063 b 238 1072 233 1063 231 1065 l 432 1232 b 454 1243 439 1239 447 1243 m 88 668 b 457 1006 88 879 218 1006 b 819 761 668 1006 771 926 b 811 747 822 753 819 749 l 796 742 b 781 749 789 739 783 742 b 457 968 735 900 646 968 b 129 669 242 968 129 857 l 129 318 b 457 18 129 131 246 18 b 785 246 650 18 739 90 b 799 253 788 253 792 256 l 815 247 b 822 232 822 246 824 240 b 457 -19 776 64 674 -19 b 88 319 219 -19 88 107 "},"ĉ":{"ha":713,"x_min":0,"x_max":0,"o":"m 371 976 b 393 967 378 976 386 974 l 583 810 b 576 800 590 803 588 800 l 560 800 b 540 807 551 800 544 803 l 368 947 l 194 807 b 176 800 189 803 183 800 l 158 800 b 153 810 146 800 144 803 l 343 967 b 365 976 350 974 358 976 m 76 464 b 368 729 76 631 178 729 b 651 538 533 729 614 665 b 646 522 653 531 651 525 l 631 518 b 617 524 624 515 619 517 b 365 694 582 644 511 694 b 114 465 203 694 114 608 l 114 246 b 365 15 114 103 204 15 b 619 196 508 15 586 72 b 633 203 622 203 626 206 l 650 199 b 657 185 657 196 658 192 b 367 -19 618 49 521 -19 b 76 247 179 -19 76 79 "},"Ċ":{"ha":879,"x_min":0,"x_max":0,"o":"m 461 1168 b 485 1144 479 1168 485 1163 l 485 1138 b 461 1114 485 1119 479 1114 l 454 1114 b 431 1138 436 1114 431 1119 l 431 1144 b 454 1168 431 1163 436 1168 m 88 668 b 457 1006 88 879 218 1006 b 819 761 668 1006 771 926 b 811 747 822 753 819 749 l 796 742 b 781 749 789 739 783 742 b 457 968 735 900 646 968 b 129 669 242 968 129 857 l 129 318 b 457 18 129 131 246 18 b 785 246 650 18 739 90 b 799 253 788 253 792 256 l 815 247 b 822 232 822 246 824 240 b 457 -19 776 64 674 -19 b 88 319 219 -19 88 107 "},"ċ":{"ha":713,"x_min":0,"x_max":0,"o":"m 371 918 b 394 893 386 918 394 910 l 394 888 b 371 863 394 869 389 863 l 365 863 b 340 888 347 863 340 867 l 340 893 b 365 918 340 910 349 918 m 76 464 b 368 729 76 631 178 729 b 651 538 533 729 614 665 b 646 522 653 531 651 525 l 631 518 b 617 524 624 515 619 517 b 365 694 582 644 511 694 b 114 465 203 694 114 608 l 114 246 b 365 15 114 103 204 15 b 619 196 508 15 586 72 b 633 203 622 203 626 206 l 650 199 b 657 185 657 196 658 192 b 367 -19 618 49 521 -19 b 76 247 179 -19 76 79 "},"Č":{"ha":879,"x_min":0,"x_max":0,"o":"m 671 1244 b 675 1233 681 1244 682 1240 l 483 1075 b 460 1064 475 1068 467 1064 l 454 1064 b 432 1075 447 1064 439 1068 l 238 1233 b 243 1244 231 1240 232 1244 l 261 1244 b 279 1238 268 1244 275 1242 l 457 1094 l 633 1238 b 653 1244 638 1242 644 1244 m 88 668 b 457 1006 88 879 218 1006 b 819 761 668 1006 771 926 b 811 747 822 753 819 749 l 796 742 b 781 749 789 739 783 742 b 457 968 735 900 646 968 b 129 669 242 968 129 857 l 129 318 b 457 18 129 131 246 18 b 785 246 650 18 739 90 b 799 253 788 253 792 256 l 815 247 b 822 232 822 246 824 240 b 457 -19 776 64 674 -19 b 88 319 219 -19 88 107 "},"č":{"ha":713,"x_min":0,"x_max":0,"o":"m 563 963 b 568 953 572 963 575 960 l 392 806 b 369 796 385 799 376 796 l 365 796 b 343 806 358 796 350 799 l 165 954 b 169 963 160 960 161 963 l 188 963 b 204 956 194 963 200 960 l 367 824 l 528 956 b 546 963 533 960 539 963 m 76 464 b 368 729 76 631 178 729 b 651 538 533 729 614 665 b 646 522 653 531 651 525 l 631 518 b 617 524 624 515 619 517 b 365 694 582 644 511 694 b 114 465 203 694 114 608 l 114 246 b 365 15 114 103 204 15 b 619 196 508 15 586 72 b 633 203 622 203 626 206 l 650 199 b 657 185 657 196 658 192 b 367 -19 618 49 521 -19 b 76 247 179 -19 76 79 "},"Ď":{"ha":892,"x_min":0,"x_max":0,"o":"m 639 1244 b 644 1233 649 1244 650 1240 l 453 1075 b 429 1064 444 1068 436 1064 l 424 1064 b 400 1075 417 1064 408 1068 l 207 1233 b 211 1244 203 1238 201 1244 l 231 1244 b 249 1238 238 1244 243 1242 l 426 1094 l 601 1238 b 622 1244 607 1242 614 1244 m 407 986 b 810 619 663 986 810 847 l 810 367 b 407 0 810 139 663 0 l 129 0 b 118 11 122 0 118 4 l 118 975 b 129 986 118 982 122 986 m 769 619 b 407 949 769 826 640 949 l 158 949 l 158 38 l 407 38 b 769 367 639 38 769 160 "},"ď":{"ha":764,"x_min":0,"x_max":0,"o":"m 78 463 b 340 729 78 640 165 729 b 603 672 433 729 521 710 l 603 1018 b 614 1028 603 1025 607 1028 l 631 1028 b 642 1018 638 1028 642 1025 l 642 96 b 586 19 642 51 631 38 b 364 -19 522 -7 449 -19 b 78 256 174 -19 78 72 m 796 718 b 782 707 793 711 789 707 l 772 707 b 764 717 765 707 763 710 l 831 1017 b 843 1028 832 1024 836 1028 l 858 1028 b 868 1017 868 1028 871 1024 m 603 635 b 344 694 526 675 440 694 b 115 461 192 694 115 617 l 115 257 b 365 15 115 96 199 15 b 564 51 438 15 504 28 b 603 104 599 67 603 71 "},"Đ":{"ha":903,"x_min":0,"x_max":0,"o":"m 418 986 b 821 619 674 986 821 847 l 821 367 b 418 0 821 139 674 0 l 140 0 b 129 11 133 0 129 4 l 129 478 l 11 478 b 0 488 4 478 0 481 l 0 500 b 11 510 0 507 4 510 l 129 510 l 129 975 b 140 986 129 982 133 986 m 781 619 b 418 949 781 826 651 949 l 169 949 l 169 510 l 454 510 b 463 500 460 510 463 507 l 463 488 b 454 478 463 481 460 478 l 169 478 l 169 38 l 418 38 b 781 367 650 38 781 160 "},"đ":{"ha":742,"x_min":0,"x_max":0,"o":"m 753 893 b 763 883 760 893 763 890 l 763 875 b 753 865 763 868 760 865 l 643 865 l 643 96 b 588 19 643 51 632 38 b 365 -19 525 -7 451 -19 b 81 256 175 -19 81 72 l 81 463 b 343 728 81 639 168 728 b 606 672 438 728 525 710 l 606 865 l 358 865 b 349 875 351 865 349 868 l 349 883 b 358 893 349 890 351 893 l 606 893 l 606 1018 b 617 1028 606 1025 610 1028 l 633 1028 b 643 1018 640 1028 643 1025 l 643 893 m 606 635 b 347 693 532 674 446 693 b 118 461 194 693 118 615 l 118 257 b 368 15 118 96 201 15 b 567 51 440 15 507 28 b 606 104 601 67 606 71 "},"Ē":{"ha":789,"x_min":0,"x_max":0,"o":"m 581 1157 b 590 1146 588 1157 590 1153 l 590 1136 b 581 1126 590 1129 588 1126 l 249 1126 b 239 1136 242 1126 239 1129 l 239 1146 b 249 1157 239 1153 242 1157 m 700 986 b 711 975 707 986 711 982 l 711 960 b 700 949 711 953 707 949 l 158 949 l 158 519 l 640 519 b 651 508 647 519 651 515 l 651 492 b 640 481 651 485 647 481 l 158 481 l 158 38 l 719 38 b 731 26 726 38 731 33 l 731 11 b 719 0 731 4 726 0 l 129 0 b 118 11 122 0 118 4 l 118 975 b 129 986 118 982 122 986 "},"ē":{"ha":729,"x_min":0,"x_max":0,"o":"m 521 897 b 531 888 528 897 531 894 l 531 878 b 521 868 531 871 528 868 l 217 868 b 207 878 210 868 207 871 l 207 888 b 217 897 207 894 210 897 m 74 442 b 369 729 74 621 176 729 b 665 443 560 729 665 619 l 665 374 b 640 350 665 358 657 350 l 111 350 l 111 247 b 360 14 111 103 197 14 b 622 163 483 14 571 64 b 639 167 626 169 632 171 l 651 160 b 654 146 658 157 658 153 b 360 -19 599 36 500 -19 b 74 250 171 -19 74 82 m 626 444 b 369 696 626 600 538 696 b 111 444 201 696 111 600 l 111 382 l 626 382 "},"Ĕ":{"ha":789,"x_min":0,"x_max":0,"o":"m 622 1221 b 415 1063 593 1115 524 1063 b 208 1221 306 1063 238 1115 b 213 1232 207 1225 208 1229 l 229 1236 b 240 1231 235 1238 239 1236 b 415 1094 264 1140 322 1094 b 589 1231 507 1094 565 1140 b 600 1238 592 1236 596 1239 l 617 1232 b 622 1221 621 1229 624 1225 m 700 986 b 711 975 707 986 711 982 l 711 960 b 700 949 711 953 707 949 l 158 949 l 158 519 l 640 519 b 651 508 647 519 651 515 l 651 492 b 640 481 651 485 647 481 l 158 481 l 158 38 l 719 38 b 731 26 726 38 731 33 l 731 11 b 719 0 731 4 726 0 l 129 0 b 118 11 122 0 118 4 l 118 975 b 129 986 118 982 122 986 "},"ĕ":{"ha":729,"x_min":0,"x_max":0,"o":"m 576 968 b 369 811 549 864 479 811 b 163 968 260 811 190 864 b 168 979 161 975 164 978 l 183 985 b 194 979 190 988 193 986 b 369 843 218 885 274 843 b 544 979 465 843 521 885 b 554 985 546 986 549 988 l 571 979 b 576 968 575 978 578 975 m 74 442 b 369 729 74 621 176 729 b 665 443 560 729 665 619 l 665 374 b 640 350 665 358 657 350 l 111 350 l 111 247 b 360 14 111 103 197 14 b 622 163 483 14 571 64 b 639 167 626 169 632 171 l 651 160 b 654 146 658 157 658 153 b 360 -19 599 36 500 -19 b 74 250 171 -19 74 82 m 626 444 b 369 696 626 600 538 696 b 111 444 201 696 111 600 l 111 382 l 626 382 "},"Ė":{"ha":789,"x_min":0,"x_max":0,"o":"m 418 1168 b 442 1144 436 1168 442 1163 l 442 1138 b 418 1114 442 1119 436 1114 l 413 1114 b 388 1138 392 1114 388 1119 l 388 1144 b 413 1168 388 1163 394 1168 m 700 986 b 711 975 707 986 711 982 l 711 960 b 700 949 711 953 707 949 l 158 949 l 158 519 l 640 519 b 651 508 647 519 651 515 l 651 492 b 640 481 651 485 647 481 l 158 481 l 158 38 l 719 38 b 731 26 726 38 731 33 l 731 11 b 719 0 731 4 726 0 l 129 0 b 118 11 122 0 118 4 l 118 975 b 129 986 118 982 122 986 "},"ė":{"ha":729,"x_min":0,"x_max":0,"o":"m 372 918 b 396 894 390 918 396 913 l 396 889 b 372 864 396 871 390 864 l 367 864 b 342 889 349 864 342 868 l 342 894 b 367 918 342 910 350 918 m 74 442 b 369 729 74 621 176 729 b 665 443 560 729 665 619 l 665 374 b 640 350 665 358 657 350 l 111 350 l 111 247 b 360 14 111 103 197 14 b 622 163 483 14 571 64 b 639 167 626 169 632 171 l 651 160 b 654 146 658 157 658 153 b 360 -19 599 36 500 -19 b 74 250 171 -19 74 82 m 626 444 b 369 696 626 600 538 696 b 111 444 201 696 111 600 l 111 382 l 626 382 "},"Ę":{"ha":789,"x_min":0,"x_max":0,"o":"m 700 986 b 711 975 707 986 711 982 l 711 960 b 700 949 711 953 707 949 l 158 949 l 158 518 l 640 518 b 651 507 647 518 651 514 l 651 490 b 640 479 651 483 647 479 l 158 479 l 158 38 l 719 38 b 731 26 726 38 731 33 l 731 11 b 728 1 731 7 729 3 b 558 -264 599 -94 532 -201 b 626 -310 568 -294 592 -310 b 724 -265 664 -310 697 -294 b 732 -268 728 -262 731 -264 l 738 -282 b 735 -293 739 -286 738 -290 b 617 -343 701 -326 663 -343 b 522 -282 568 -343 538 -322 b 686 0 494 -206 554 -99 l 129 0 b 118 11 122 0 118 4 l 118 975 b 129 986 118 982 122 986 "},"ę":{"ha":729,"x_min":0,"x_max":0,"o":"m 74 442 b 369 729 74 621 176 729 b 665 443 560 729 665 619 l 665 374 b 640 350 665 358 657 350 l 111 350 l 111 247 b 360 14 111 103 197 14 b 622 163 483 14 571 64 b 639 167 626 169 632 171 l 651 160 b 654 146 658 157 658 153 b 588 54 638 111 615 81 b 461 -121 533 1 490 -57 b 433 -264 431 -185 421 -232 b 504 -311 446 -296 469 -311 b 601 -267 542 -311 575 -296 b 610 -268 606 -262 608 -264 l 615 -283 b 613 -294 617 -287 615 -290 b 493 -344 578 -328 538 -344 b 400 -282 444 -344 414 -324 b 515 11 376 -215 422 -96 b 360 -19 472 -10 419 -19 b 74 250 171 -19 74 82 m 626 444 b 369 696 626 600 538 696 b 111 444 201 696 111 600 l 111 382 l 626 382 "},"Ě":{"ha":789,"x_min":0,"x_max":0,"o":"m 628 1244 b 633 1233 638 1244 639 1240 l 440 1075 b 417 1064 433 1068 425 1064 l 411 1064 b 389 1075 404 1064 396 1068 l 194 1233 b 200 1244 188 1240 189 1244 l 218 1244 b 236 1238 225 1244 232 1242 l 414 1094 l 590 1238 b 610 1244 594 1242 601 1244 m 700 986 b 711 975 707 986 711 982 l 711 960 b 700 949 711 953 707 949 l 158 949 l 158 519 l 640 519 b 651 508 647 519 651 515 l 651 492 b 640 481 651 485 647 481 l 158 481 l 158 38 l 719 38 b 731 26 726 38 731 33 l 731 11 b 719 0 731 4 726 0 l 129 0 b 118 11 122 0 118 4 l 118 975 b 129 986 118 982 122 986 "},"ě":{"ha":729,"x_min":0,"x_max":0,"o":"m 564 964 b 569 954 574 964 576 961 l 393 807 b 371 796 385 800 378 796 l 367 796 b 344 807 360 796 353 800 l 167 954 b 171 964 163 961 164 964 l 189 964 b 206 957 196 964 201 961 l 368 825 l 529 957 b 547 964 535 961 540 964 m 74 442 b 369 729 74 621 176 729 b 665 443 560 729 665 619 l 665 374 b 640 350 665 358 657 350 l 111 350 l 111 247 b 360 14 111 103 197 14 b 622 163 483 14 571 64 b 639 167 626 169 632 171 l 651 160 b 654 146 658 157 658 153 b 360 -19 599 36 500 -19 b 74 250 171 -19 74 82 m 626 444 b 369 696 626 600 538 696 b 111 444 201 696 111 600 l 111 382 l 626 382 "},"Ĝ":{"ha":901,"x_min":0,"x_max":0,"o":"m 460 1257 b 483 1246 467 1257 475 1253 l 676 1086 b 671 1076 681 1079 679 1076 l 653 1076 b 633 1083 644 1076 638 1079 l 457 1226 l 279 1083 b 261 1076 274 1079 268 1076 l 243 1076 b 236 1086 233 1076 232 1079 l 431 1246 b 454 1257 439 1253 447 1257 m 814 488 b 826 475 822 488 826 483 l 826 317 b 458 -19 826 107 693 -19 b 88 321 219 -19 88 108 l 88 668 b 457 1006 88 879 218 1006 b 819 761 668 1006 771 926 b 811 747 822 753 819 749 l 796 742 b 781 749 789 739 783 742 b 457 968 735 900 646 968 b 128 669 240 968 128 857 l 128 322 b 458 18 128 132 246 18 b 786 318 668 18 786 131 l 786 449 l 469 449 b 458 460 463 449 458 453 l 458 476 b 469 488 458 483 463 488 "},"ĝ":{"ha":739,"x_min":0,"x_max":0,"o":"m 382 976 b 404 967 389 976 397 974 l 593 810 b 588 800 601 803 600 800 l 569 800 b 551 807 563 800 556 803 l 379 947 l 206 807 b 188 800 200 803 194 800 l 169 800 b 163 810 158 800 156 803 l 354 967 b 376 976 361 974 369 976 m 78 453 b 365 729 78 638 174 729 b 586 690 450 729 524 717 b 640 614 631 672 640 660 l 640 -57 b 357 -357 640 -257 546 -357 b 93 -194 233 -357 144 -303 b 97 -178 89 -187 90 -182 l 108 -172 b 125 -176 115 -168 121 -169 b 357 -321 171 -269 236 -321 b 603 -58 521 -321 603 -233 l 603 42 b 340 -15 524 4 436 -15 b 78 250 165 -15 78 74 m 564 658 b 367 694 504 682 438 694 b 115 451 199 694 115 614 l 115 250 b 343 19 115 96 192 19 b 603 79 440 19 526 39 l 603 606 b 564 658 603 639 599 643 "},"Ğ":{"ha":901,"x_min":0,"x_max":0,"o":"m 664 1235 b 457 1076 635 1129 567 1076 b 250 1235 347 1076 279 1129 b 256 1246 249 1239 251 1243 l 271 1250 b 282 1244 278 1253 281 1251 b 457 1108 306 1154 364 1108 b 632 1244 550 1108 608 1154 b 642 1251 633 1250 636 1253 l 658 1246 b 664 1235 663 1243 665 1239 m 814 488 b 826 475 822 488 826 483 l 826 317 b 458 -19 826 107 693 -19 b 88 321 219 -19 88 108 l 88 668 b 457 1006 88 879 218 1006 b 819 761 668 1006 771 926 b 811 747 822 753 819 749 l 796 742 b 781 749 789 739 783 742 b 457 968 735 900 646 968 b 128 669 240 968 128 857 l 128 322 b 458 18 128 132 246 18 b 786 318 668 18 786 131 l 786 449 l 469 449 b 458 460 463 449 458 453 l 458 476 b 469 488 458 483 463 488 "},"ğ":{"ha":739,"x_min":0,"x_max":0,"o":"m 586 967 b 379 810 554 857 492 810 b 172 967 269 810 200 863 b 176 979 171 972 172 976 l 193 983 b 204 978 199 985 203 983 b 379 842 228 883 283 842 b 553 978 471 842 529 888 b 564 983 556 985 560 986 l 581 979 b 586 967 585 976 588 972 m 78 453 b 365 729 78 638 174 729 b 586 690 450 729 524 717 b 640 614 631 672 640 660 l 640 -57 b 357 -357 640 -257 546 -357 b 93 -194 233 -357 144 -303 b 97 -178 89 -187 90 -182 l 108 -172 b 125 -176 115 -168 121 -169 b 357 -321 171 -269 236 -321 b 603 -58 521 -321 603 -233 l 603 42 b 340 -15 524 4 436 -15 b 78 250 165 -15 78 74 m 564 658 b 367 694 504 682 438 694 b 115 451 199 694 115 614 l 115 250 b 343 19 115 96 192 19 b 603 79 440 19 526 39 l 603 606 b 564 658 603 639 599 643 "},"Ġ":{"ha":901,"x_min":0,"x_max":0,"o":"m 460 1182 b 483 1158 478 1182 483 1176 l 483 1151 b 460 1128 483 1133 478 1128 l 454 1128 b 429 1151 436 1128 429 1133 l 429 1158 b 454 1182 429 1174 438 1182 m 814 488 b 826 475 822 488 826 483 l 826 317 b 458 -19 826 107 693 -19 b 88 321 219 -19 88 108 l 88 668 b 457 1006 88 879 218 1006 b 819 761 668 1006 771 926 b 811 747 822 753 819 749 l 796 742 b 781 749 789 739 783 742 b 457 968 735 900 646 968 b 128 669 240 968 128 857 l 128 322 b 458 18 128 132 246 18 b 786 318 668 18 786 131 l 786 449 l 469 449 b 458 460 463 449 458 453 l 458 476 b 469 488 458 483 463 488 "},"ġ":{"ha":739,"x_min":0,"x_max":0,"o":"m 382 918 b 406 893 397 918 406 910 l 406 888 b 382 863 406 869 400 863 l 376 863 b 351 888 356 863 351 867 l 351 893 b 376 918 351 910 360 918 m 78 453 b 365 729 78 638 174 729 b 586 690 450 729 524 717 b 640 614 631 672 640 660 l 640 -57 b 357 -357 640 -257 546 -357 b 93 -194 233 -357 144 -303 b 97 -178 89 -187 90 -182 l 108 -172 b 125 -176 115 -168 121 -169 b 357 -321 171 -269 236 -321 b 603 -58 521 -321 603 -233 l 603 42 b 340 -15 524 4 436 -15 b 78 250 165 -15 78 74 m 564 658 b 367 694 504 682 438 694 b 115 451 199 694 115 614 l 115 250 b 343 19 115 96 192 19 b 603 79 440 19 526 39 l 603 606 b 564 658 603 639 599 643 "},"Ģ":{"ha":901,"x_min":0,"x_max":0,"o":"m 814 488 b 826 475 822 488 826 483 l 826 317 b 458 -19 826 107 693 -19 b 88 321 219 -19 88 108 l 88 668 b 457 1006 88 879 218 1006 b 819 761 668 1006 771 926 b 811 747 822 753 819 749 l 796 742 b 781 749 789 739 783 742 b 457 968 735 900 646 968 b 128 669 240 968 128 857 l 128 322 b 458 18 128 132 246 18 b 786 318 668 18 786 131 l 786 449 l 469 449 b 458 460 463 449 458 453 l 458 476 b 469 488 458 483 463 488 m 440 -326 b 426 -337 438 -333 433 -337 l 415 -337 b 407 -328 408 -337 406 -335 l 467 -125 b 481 -114 468 -118 472 -114 l 496 -114 b 507 -125 506 -114 510 -118 "},"ģ":{"ha":739,"x_min":0,"x_max":0,"o":"m 413 1004 b 426 1015 415 1011 419 1015 l 436 1015 b 446 1006 444 1015 447 1013 l 374 811 b 358 800 371 804 365 800 l 344 800 b 335 813 333 800 331 804 m 78 453 b 365 729 78 638 174 729 b 586 690 450 729 524 717 b 640 614 631 672 640 660 l 640 -57 b 357 -357 640 -257 546 -357 b 93 -194 233 -357 144 -303 b 97 -178 89 -187 90 -182 l 108 -172 b 125 -176 115 -168 121 -169 b 357 -321 171 -269 236 -321 b 603 -58 521 -321 603 -233 l 603 42 b 340 -15 524 4 436 -15 b 78 250 165 -15 78 74 m 564 658 b 367 694 504 682 438 694 b 115 451 199 694 115 614 l 115 250 b 343 19 115 96 192 19 b 603 79 440 19 526 39 l 603 606 b 564 658 603 639 599 643 "},"Ĥ":{"ha":940,"x_min":0,"x_max":0,"o":"m 474 1243 b 497 1232 481 1243 489 1239 l 690 1072 b 683 1063 694 1065 693 1063 l 667 1063 b 646 1069 658 1063 651 1065 l 471 1213 l 293 1069 b 275 1063 288 1065 282 1063 l 256 1063 b 250 1072 247 1063 246 1065 l 444 1232 b 468 1243 453 1239 461 1243 m 813 986 b 824 975 819 986 824 982 l 824 11 b 813 0 824 4 819 0 l 793 0 b 782 11 786 0 782 4 l 782 481 l 158 481 l 158 11 b 147 0 158 4 154 0 l 129 0 b 118 11 122 0 118 4 l 118 975 b 129 986 118 982 122 986 l 147 986 b 158 975 154 986 158 982 l 158 519 l 782 519 l 782 975 b 793 986 782 982 786 986 "},"ĥ":{"ha":761,"x_min":0,"x_max":0,"o":"m 132 1269 b 154 1258 139 1269 147 1265 l 340 1104 b 335 1096 346 1099 344 1096 l 317 1096 b 299 1101 310 1096 303 1097 l 129 1240 l -42 1101 b -58 1096 -46 1097 -51 1096 l -76 1096 b -82 1104 -86 1096 -87 1099 l 104 1258 b 126 1269 111 1265 119 1269 m 138 1028 b 149 1018 144 1028 149 1025 l 149 675 b 410 729 228 711 314 729 b 674 464 586 729 674 640 l 674 10 b 664 0 674 3 671 0 l 646 0 b 636 10 639 0 636 3 l 636 461 b 406 694 636 617 560 694 b 149 638 313 694 226 675 l 149 10 b 138 0 149 3 144 0 l 121 0 b 111 10 114 0 111 3 l 111 1018 b 121 1028 111 1025 114 1028 "},"Ħ":{"ha":947,"x_min":0,"x_max":0,"o":"m 926 803 b 936 793 933 803 936 800 l 936 785 b 926 774 936 778 933 774 l 826 774 l 826 11 b 815 0 826 4 822 0 l 797 0 b 786 11 790 0 786 4 l 786 481 l 163 481 l 163 11 b 151 0 163 4 158 0 l 132 0 b 121 11 125 0 121 4 l 121 774 l 22 774 b 13 785 15 774 13 778 l 13 793 b 22 803 13 800 15 803 l 121 803 l 121 975 b 132 986 121 982 125 986 l 151 986 b 163 975 158 986 163 982 l 163 803 l 786 803 l 786 975 b 797 986 786 982 790 986 l 815 986 b 826 975 822 986 826 982 l 826 803 m 163 774 l 163 519 l 786 519 l 786 774 "},"ħ":{"ha":760,"x_min":0,"x_max":0,"o":"m 139 675 b 400 729 218 711 304 729 b 664 464 576 729 664 640 l 664 10 b 654 0 664 3 661 0 l 638 0 b 626 10 631 0 626 3 l 626 461 b 397 694 626 617 550 694 b 139 638 303 694 217 675 l 139 10 b 129 0 139 3 136 0 l 111 0 b 101 10 104 0 101 3 l 101 872 l 7 872 b -3 883 0 872 -3 876 l -3 892 b 7 901 -3 899 0 901 l 101 901 l 101 1018 b 111 1028 101 1025 104 1028 l 129 1028 b 139 1018 136 1028 139 1025 l 139 901 l 382 901 b 392 892 389 901 392 899 l 392 883 b 382 872 392 876 389 872 l 139 872 "},"Ĩ":{"ha":276,"x_min":0,"x_max":0,"o":"m 342 1210 b 350 1201 347 1210 350 1207 b 250 1076 350 1118 317 1076 b 25 1181 149 1076 114 1181 b -49 1085 -21 1181 -49 1142 b -57 1076 -49 1079 -51 1076 l -69 1076 b -78 1085 -75 1076 -78 1079 b 24 1210 -78 1163 -42 1210 b 142 1157 58 1210 99 1192 b 249 1104 185 1122 221 1104 b 321 1201 294 1104 321 1144 b 329 1210 321 1207 324 1210 m 118 975 b 129 986 118 982 122 986 l 147 986 b 158 975 154 986 158 982 l 158 11 b 147 0 158 4 154 0 l 129 0 b 118 11 122 0 118 4 "},"ĩ":{"ha":240,"x_min":0,"x_max":0,"o":"m 265 968 b 272 960 269 968 272 965 b 197 838 272 878 247 838 b 118 888 169 838 143 854 b 46 938 93 921 69 938 b -10 846 8 938 -10 907 b -17 838 -10 840 -12 838 l -28 838 b -35 846 -32 838 -35 840 b 44 968 -35 928 -8 968 b 196 868 126 968 128 868 b 247 960 231 868 247 899 b 254 968 247 965 250 968 m 129 710 b 139 700 136 710 139 707 l 139 10 b 129 0 139 3 136 0 l 111 0 b 101 10 104 0 101 3 l 101 700 b 111 710 101 707 104 710 "},"Ī":{"ha":276,"x_min":0,"x_max":0,"o":"m 303 1157 b 314 1146 310 1157 314 1153 l 314 1136 b 303 1126 314 1129 310 1126 l -28 1126 b -39 1136 -35 1126 -39 1129 l -39 1146 b -28 1157 -39 1153 -35 1157 m 118 975 b 129 986 118 982 122 986 l 147 986 b 158 975 154 986 158 982 l 158 11 b 147 0 158 4 154 0 l 129 0 b 118 11 122 0 118 4 "},"ī":{"ha":240,"x_min":0,"x_max":0,"o":"m 224 908 b 229 899 228 908 229 906 l 229 889 b 224 879 229 882 228 879 l 18 879 b 11 889 14 879 11 882 l 11 899 b 18 908 11 906 14 908 m 129 710 b 139 700 136 710 139 707 l 139 10 b 129 0 139 3 136 0 l 111 0 b 101 10 104 0 101 3 l 101 700 b 111 710 101 707 104 710 "},"Ĭ":{"ha":276,"x_min":0,"x_max":0,"o":"m 346 1221 b 139 1063 317 1115 249 1063 b -68 1221 29 1063 -39 1115 b -62 1232 -69 1225 -67 1229 l -47 1236 b -36 1231 -40 1239 -37 1238 b 139 1094 -12 1140 46 1094 b 314 1231 232 1094 290 1140 b 324 1238 315 1236 318 1239 l 340 1232 b 346 1221 346 1229 347 1225 m 119 975 b 131 986 119 982 124 986 l 149 986 b 160 975 156 986 160 982 l 160 11 b 149 0 160 4 156 0 l 131 0 b 119 11 124 0 119 4 "},"ĭ":{"ha":240,"x_min":0,"x_max":0,"o":"m 279 976 b 286 965 283 975 286 971 b 119 815 268 865 213 815 b -46 965 26 815 -28 865 b -40 976 -46 972 -44 975 l -26 981 b -15 975 -19 981 -15 979 b 119 847 -1 890 43 847 b 254 975 196 847 242 890 b 265 981 256 979 258 981 m 129 710 b 139 700 136 710 139 707 l 139 10 b 129 0 139 3 136 0 l 111 0 b 101 10 104 0 101 3 l 101 700 b 111 710 101 707 104 710 "},"Į":{"ha":276,"x_min":0,"x_max":0,"o":"m 290 -283 b 288 -294 292 -287 292 -290 b 169 -344 253 -328 213 -344 b 76 -282 121 -344 89 -324 b 165 1 50 -214 81 -119 b 157 11 160 1 157 4 l 157 975 b 168 986 157 982 161 986 l 186 986 b 197 975 193 986 197 982 l 197 11 b 194 1 197 7 196 3 b 111 -264 115 -112 88 -201 b 179 -311 121 -296 144 -311 b 278 -267 217 -311 250 -296 b 286 -268 281 -264 283 -264 "},"į":{"ha":243,"x_min":0,"x_max":0,"o":"m 124 897 b 99 922 103 897 99 901 l 99 928 b 124 954 99 946 107 954 l 129 954 b 156 928 147 954 156 946 l 156 922 b 129 897 156 906 147 897 m 213 -278 b 213 -289 217 -282 217 -285 b 121 -342 190 -324 160 -342 b 33 -262 72 -342 38 -311 b 58 -117 29 -218 38 -169 b 113 3 78 -64 96 -24 b 108 10 110 4 108 7 l 108 700 b 118 710 108 707 111 710 l 135 710 b 146 700 142 710 146 707 l 146 10 b 143 3 146 6 144 3 b 67 -253 88 -96 63 -182 b 128 -311 68 -287 96 -311 b 196 -268 157 -311 179 -297 b 206 -268 199 -265 201 -265 "},"İ":{"ha":276,"x_min":0,"x_max":0,"o":"m 140 1168 b 165 1144 157 1168 165 1160 l 165 1138 b 140 1114 165 1122 157 1114 l 135 1114 b 110 1138 117 1114 110 1119 l 110 1144 b 135 1168 110 1160 118 1168 m 118 975 b 129 986 118 982 122 986 l 147 986 b 158 975 154 986 158 982 l 158 11 b 147 0 158 4 154 0 l 129 0 b 118 11 122 0 118 4 "},"ı":{"ha":243,"x_min":0,"x_max":0,"o":"m 129 710 b 140 700 136 710 140 707 l 140 10 b 129 0 140 3 136 0 l 113 0 b 103 10 106 0 103 3 l 103 700 b 113 710 103 707 106 710 "},"Ĳ":{"ha":1065,"x_min":0,"x_max":0,"o":"m 118 975 b 129 986 118 982 122 986 l 147 986 b 158 975 154 986 158 982 l 158 11 b 147 0 158 4 154 0 l 129 0 b 118 11 122 0 118 4 m 943 986 b 954 975 950 986 954 982 l 954 296 b 632 -21 954 100 838 -21 b 314 263 451 -21 346 74 b 319 276 311 269 313 275 l 336 283 b 351 275 344 286 350 283 b 632 18 381 107 465 18 b 913 296 811 18 913 124 l 913 975 b 924 986 913 982 917 986 "},"ĳ":{"ha":583,"x_min":0,"x_max":0,"o":"m 124 954 b 150 928 142 954 150 946 l 150 922 b 124 897 150 906 142 897 l 118 897 b 93 922 97 897 93 901 l 93 928 b 118 954 93 946 101 954 m 465 954 b 490 928 482 954 490 946 l 490 922 b 465 897 490 904 486 897 l 458 897 b 433 922 440 897 433 901 l 433 928 b 458 954 433 946 442 954 m 129 710 b 140 700 136 710 140 707 l 140 10 b 129 0 140 3 136 0 l 113 0 b 103 10 106 0 103 3 l 103 700 b 113 710 103 707 106 710 m 471 710 b 481 700 478 710 481 707 l 481 -14 b 217 -319 481 -219 411 -319 b 206 -308 210 -319 206 -315 l 206 -293 b 217 -283 206 -286 210 -283 b 443 -14 388 -283 443 -197 l 443 700 b 454 710 443 707 447 710 "},"Ĵ":{"ha":785,"x_min":0,"x_max":0,"o":"m 660 1243 b 683 1232 667 1243 675 1239 l 876 1072 b 871 1063 883 1065 881 1063 l 853 1063 b 833 1069 844 1063 838 1065 l 657 1213 l 479 1069 b 461 1063 475 1065 468 1063 l 443 1063 b 436 1072 433 1063 432 1065 l 632 1232 b 654 1243 639 1239 647 1243 m 667 986 b 678 975 674 986 678 982 l 678 296 b 357 -21 678 100 561 -21 b 38 263 176 -21 69 74 b 43 276 35 269 36 274 l 61 283 b 76 275 68 286 74 283 b 357 18 106 107 189 18 b 638 296 536 18 638 124 l 638 975 b 649 986 638 982 642 986 "},"ĵ":{"ha":242,"x_min":0,"x_max":0,"o":"m 122 978 b 146 967 132 978 139 974 l 297 808 b 290 800 303 803 300 800 l 275 800 b 256 807 265 800 260 803 l 119 949 l -17 807 b -35 800 -21 803 -28 800 l -53 800 b -58 808 -62 800 -64 803 l 94 967 b 117 978 101 974 110 978 m 129 710 b 140 700 136 710 140 707 l 140 -14 b -125 -319 140 -221 71 -319 b -135 -308 -132 -319 -135 -315 l -135 -293 b -125 -283 -135 -286 -132 -283 b 103 -14 46 -283 103 -197 l 103 700 b 113 710 103 707 106 710 "},"Ķ":{"ha":825,"x_min":0,"x_max":0,"o":"m 794 13 b 789 0 801 4 799 0 l 772 0 b 750 10 761 0 754 3 l 583 342 b 357 481 533 442 475 481 l 158 481 l 158 11 b 147 0 158 4 154 0 l 129 0 b 118 11 122 0 118 4 l 118 975 b 129 986 118 982 122 986 l 147 986 b 158 975 154 986 158 982 l 158 519 l 356 519 b 394 518 374 519 386 519 l 732 976 b 756 986 736 983 744 986 l 774 986 b 781 974 785 986 788 982 l 438 511 b 619 360 517 496 578 444 m 414 -326 b 400 -337 411 -333 407 -337 l 388 -337 b 379 -328 381 -337 378 -335 l 440 -125 b 454 -114 442 -118 446 -114 l 469 -114 b 479 -125 479 -114 482 -118 "},"ķ":{"ha":686,"x_min":0,"x_max":0,"o":"m 651 11 b 646 0 656 4 654 0 l 629 0 b 611 8 621 0 615 3 l 490 251 b 335 349 456 319 414 349 l 140 349 l 140 11 b 129 0 140 4 136 0 l 113 0 b 103 11 106 0 103 4 l 103 1017 b 113 1028 103 1024 106 1028 l 129 1028 b 140 1017 136 1028 140 1024 l 140 383 l 332 383 l 347 383 l 599 701 b 619 710 603 707 610 710 l 635 710 b 642 697 644 710 647 706 l 386 376 b 524 268 446 368 492 332 m 340 -304 b 325 -315 339 -311 333 -315 l 314 -315 b 306 -306 307 -315 304 -312 l 358 -87 b 372 -76 360 -81 365 -76 l 389 -76 b 399 -87 399 -76 401 -81 "},"ĸ":{"ha":625,"x_min":0,"x_max":0,"o":"m 597 14 b 590 0 604 4 603 0 l 575 0 b 553 10 565 0 557 3 l 288 383 l 140 228 l 140 11 b 129 0 140 4 136 0 l 113 0 b 103 11 106 0 103 4 l 103 699 b 113 710 103 706 106 710 l 129 710 b 140 699 136 710 140 706 l 140 281 l 539 701 b 564 710 544 707 553 710 l 579 710 b 585 697 590 710 592 706 l 314 413 "},"Ĺ":{"ha":717,"x_min":0,"x_max":0,"o":"m 253 1240 b 275 1239 263 1244 269 1244 l 283 1229 b 281 1214 289 1222 288 1218 l 33 1064 b 18 1065 26 1060 21 1061 l 10 1074 b 11 1086 6 1078 6 1082 m 154 986 b 165 975 161 986 165 982 l 165 38 l 693 38 b 704 26 700 38 704 33 l 704 11 b 693 0 704 4 700 0 l 136 0 b 125 11 129 0 125 4 l 125 975 b 136 986 125 982 129 986 "},"ĺ":{"ha":253,"x_min":0,"x_max":0,"o":"m 215 1218 b 235 1215 222 1222 229 1221 l 243 1204 b 240 1190 247 1197 247 1192 l 39 1079 b 24 1081 32 1075 28 1076 l 17 1089 b 21 1103 13 1096 14 1100 m 151 10 b 140 0 151 3 147 0 l 124 0 b 113 10 117 0 113 3 l 113 1018 b 124 1028 113 1025 117 1028 l 140 1028 b 151 1018 147 1028 151 1025 "},"Ļ":{"ha":717,"x_min":0,"x_max":0,"o":"m 147 986 b 158 975 154 986 158 982 l 158 38 l 686 38 b 697 26 693 38 697 33 l 697 11 b 686 0 697 4 693 0 l 129 0 b 118 11 122 0 118 4 l 118 975 b 129 986 118 982 122 986 m 368 -326 b 354 -337 365 -333 361 -337 l 342 -337 b 333 -328 335 -337 332 -335 l 394 -125 b 408 -114 396 -118 400 -114 l 424 -114 b 433 -125 433 -114 436 -118 "},"ļ":{"ha":253,"x_min":0,"x_max":0,"o":"m 147 10 b 136 0 147 3 143 0 l 119 0 b 108 10 113 0 108 3 l 108 1018 b 119 1028 108 1025 113 1028 l 136 1028 b 147 1018 143 1028 147 1025 m 96 -294 b 81 -306 93 -301 88 -306 l 72 -306 b 64 -296 65 -306 63 -303 l 117 -65 b 131 -54 118 -58 124 -54 l 144 -54 b 154 -65 154 -54 157 -58 "},"Ľ":{"ha":717,"x_min":0,"x_max":0,"o":"m 147 986 b 158 975 154 986 158 982 l 158 38 l 686 38 b 697 26 693 38 697 33 l 697 11 b 686 0 697 4 693 0 l 129 0 b 118 11 122 0 118 4 l 118 975 b 129 986 118 982 122 986 m 489 692 b 475 681 486 685 482 681 l 464 681 b 456 690 457 681 454 683 l 517 975 b 531 986 518 982 522 986 l 546 986 b 556 975 556 986 558 982 "},"ľ":{"ha":263,"x_min":0,"x_max":0,"o":"m 146 10 b 135 0 146 3 142 0 l 118 0 b 107 10 111 0 107 3 l 107 1018 b 118 1028 107 1025 111 1028 l 135 1028 b 146 1018 142 1028 146 1025 m 315 760 b 301 749 314 753 308 749 l 292 749 b 283 758 285 749 282 751 l 335 1017 b 347 1028 336 1024 340 1028 l 364 1028 b 374 1017 374 1028 376 1024 "},"Ŀ":{"ha":717,"x_min":0,"x_max":0,"o":"m 147 986 b 158 975 154 986 158 982 l 158 38 l 686 38 b 697 26 693 38 697 33 l 697 11 b 686 0 697 4 693 0 l 129 0 b 118 11 122 0 118 4 l 118 975 b 129 986 118 982 122 986 m 464 513 b 490 486 485 513 490 507 l 490 479 b 464 451 490 458 485 451 l 457 451 b 431 479 436 451 431 457 l 431 486 b 457 513 431 507 436 513 "},"ŀ":{"ha":389,"x_min":0,"x_max":0,"o":"m 146 10 b 135 0 146 3 142 0 l 118 0 b 107 10 111 0 107 3 l 107 1018 b 118 1028 107 1025 111 1028 l 135 1028 b 146 1018 142 1028 146 1025 m 325 549 b 351 522 346 549 351 543 l 351 515 b 325 488 351 494 346 488 l 318 488 b 290 515 297 488 290 493 l 290 522 b 318 549 290 543 297 549 "},"Ł":{"ha":750,"x_min":0,"x_max":0,"o":"m 725 38 b 736 26 732 38 736 33 l 736 11 b 725 0 736 4 732 0 l 168 0 b 157 11 161 0 157 4 l 157 425 l 21 358 b 10 363 15 356 11 357 l 3 376 b 6 389 -1 383 0 388 l 157 464 l 157 975 b 168 986 157 982 161 986 l 186 986 b 197 975 193 986 197 982 l 197 482 l 549 656 b 564 650 556 657 560 656 l 569 638 b 565 625 572 632 571 628 l 197 444 l 197 38 "},"ł":{"ha":342,"x_min":0,"x_max":0,"o":"m 331 606 b 326 593 333 601 332 597 l 189 511 l 189 10 b 179 0 189 3 186 0 l 163 0 b 151 10 156 0 151 3 l 151 489 l 38 421 b 25 424 33 418 29 419 l 18 435 b 22 447 15 439 17 443 l 151 525 l 151 1018 b 163 1028 151 1025 156 1028 l 179 1028 b 189 1018 186 1028 189 1025 l 189 546 l 311 618 b 324 615 315 622 319 621 "},"Ń":{"ha":953,"x_min":0,"x_max":0,"o":"m 585 1240 b 606 1239 594 1244 601 1244 l 614 1229 b 613 1214 621 1222 619 1218 l 365 1064 b 349 1065 358 1060 353 1061 l 342 1074 b 343 1086 338 1078 338 1082 m 825 986 b 836 975 832 986 836 982 l 836 11 b 825 0 836 4 832 0 l 807 0 b 793 8 801 0 797 3 l 268 753 b 211 840 256 772 236 801 b 156 922 185 879 167 907 l 154 922 b 157 819 154 904 156 869 b 158 704 158 769 158 731 l 158 11 b 147 0 158 4 154 0 l 129 0 b 118 11 122 0 118 4 l 118 975 b 129 986 118 982 122 986 l 146 986 b 160 979 153 986 157 983 l 669 256 b 735 161 683 236 706 204 b 799 65 764 117 785 85 l 801 65 b 799 181 801 86 800 125 b 796 308 797 235 796 278 l 796 976 b 807 986 796 983 800 986 "},"ń":{"ha":757,"x_min":0,"x_max":0,"o":"m 483 990 b 504 989 492 994 499 994 l 513 979 b 510 965 518 974 517 969 l 263 814 b 247 815 256 813 251 813 l 240 824 b 242 838 235 829 235 833 m 150 685 b 397 729 224 714 306 729 b 661 464 574 729 661 640 l 661 10 b 651 0 661 3 658 0 l 635 0 b 624 10 628 0 624 3 l 624 461 b 394 694 624 617 547 694 b 169 653 306 694 231 681 b 136 603 147 643 136 626 l 136 10 b 126 0 136 3 133 0 l 108 0 b 99 10 101 0 99 3 l 99 610 b 150 685 99 650 110 667 "},"Ņ":{"ha":953,"x_min":0,"x_max":0,"o":"m 825 986 b 836 975 832 986 836 982 l 836 11 b 825 0 836 4 832 0 l 807 0 b 793 8 801 0 797 3 l 268 753 b 211 840 256 772 236 801 b 156 922 185 879 167 907 l 154 922 b 157 819 154 904 156 869 b 158 704 158 769 158 731 l 158 11 b 147 0 158 4 154 0 l 129 0 b 118 11 122 0 118 4 l 118 975 b 129 986 118 982 122 986 l 146 986 b 160 979 153 986 157 983 l 669 256 b 735 161 683 236 706 204 b 799 65 764 117 785 85 l 801 65 b 799 181 801 86 800 125 b 796 308 797 235 796 278 l 796 976 b 807 986 796 983 800 986 m 438 -326 b 424 -337 436 -333 432 -337 l 413 -337 b 404 -328 406 -337 403 -335 l 465 -125 b 479 -114 467 -118 471 -114 l 494 -114 b 504 -125 504 -114 507 -118 "},"ņ":{"ha":757,"x_min":0,"x_max":0,"o":"m 150 685 b 397 729 224 714 306 729 b 661 464 574 729 661 640 l 661 10 b 651 0 661 3 658 0 l 635 0 b 624 10 628 0 624 3 l 624 461 b 394 694 624 617 547 694 b 169 653 306 694 231 681 b 136 603 147 643 136 626 l 136 10 b 126 0 136 3 133 0 l 108 0 b 99 10 101 0 99 3 l 99 610 b 150 685 99 650 110 667 m 354 -289 b 340 -300 353 -296 347 -300 l 329 -300 b 321 -290 322 -300 319 -297 l 375 -65 b 388 -54 376 -58 381 -54 l 403 -54 b 413 -65 413 -54 415 -58 "},"Ň":{"ha":953,"x_min":0,"x_max":0,"o":"m 690 1244 b 696 1233 700 1244 701 1240 l 503 1075 b 479 1064 496 1068 488 1064 l 474 1064 b 451 1075 467 1064 458 1068 l 257 1233 b 263 1244 250 1240 251 1244 l 281 1244 b 299 1238 288 1244 294 1242 l 476 1094 l 653 1238 b 672 1244 657 1242 664 1244 m 825 986 b 836 975 832 986 836 982 l 836 11 b 825 0 836 4 832 0 l 807 0 b 793 8 801 0 797 3 l 268 753 b 211 840 256 772 236 801 b 156 922 185 879 167 907 l 154 922 b 157 819 154 904 156 869 b 158 704 158 769 158 731 l 158 11 b 147 0 158 4 154 0 l 129 0 b 118 11 122 0 118 4 l 118 975 b 129 986 118 982 122 986 l 146 986 b 160 979 153 986 157 983 l 669 256 b 735 161 683 236 706 204 b 799 65 764 117 785 85 l 801 65 b 799 181 801 86 800 125 b 796 308 797 235 796 278 l 796 976 b 807 986 796 983 800 986 "},"ň":{"ha":757,"x_min":0,"x_max":0,"o":"m 571 964 b 575 954 581 964 582 961 l 399 807 b 378 796 390 800 383 796 l 372 796 b 351 807 365 796 358 800 l 172 954 b 176 964 168 961 169 964 l 196 964 b 213 957 201 964 207 961 l 375 825 l 536 957 b 554 964 540 961 547 964 m 150 685 b 397 729 224 714 306 729 b 661 464 574 729 661 640 l 661 10 b 651 0 661 3 658 0 l 635 0 b 624 10 628 0 624 3 l 624 461 b 394 694 624 617 547 694 b 169 653 306 694 231 681 b 136 603 147 643 136 626 l 136 10 b 126 0 136 3 133 0 l 108 0 b 99 10 101 0 99 3 l 99 610 b 150 685 99 650 110 667 "},"ŉ":{"ha":757,"x_min":0,"x_max":0,"o":"m 103 758 b 88 749 99 751 93 749 l 76 749 b 71 760 69 749 68 753 l 189 1018 b 203 1028 190 1025 196 1028 l 219 1028 b 228 1017 231 1028 233 1024 m 154 685 b 401 729 228 714 310 729 b 665 464 578 729 665 640 l 665 10 b 656 0 665 3 663 0 l 639 0 b 628 10 632 0 628 3 l 628 461 b 399 694 628 617 551 694 b 174 653 310 694 235 681 b 140 603 151 643 140 626 l 140 10 b 131 0 140 3 138 0 l 113 0 b 103 10 106 0 103 3 l 103 610 b 154 685 103 650 114 667 "},"Ŋ":{"ha":953,"x_min":0,"x_max":0,"o":"m 825 986 b 836 975 832 986 836 982 l 836 -19 b 532 -319 836 -208 725 -319 b 521 -308 525 -319 521 -315 l 521 -293 b 532 -283 521 -286 525 -283 b 796 -18 699 -283 796 -185 l 796 4 l 268 753 b 211 840 256 772 236 801 b 156 922 185 879 167 907 l 154 922 b 157 833 154 906 156 876 b 158 733 158 790 158 757 l 158 11 b 147 0 158 4 154 0 l 129 0 b 118 11 122 0 118 4 l 118 975 b 129 986 118 982 122 986 l 146 986 b 160 979 153 986 157 983 l 669 256 b 735 161 683 236 706 204 b 799 65 764 117 785 85 l 801 65 b 799 181 801 86 800 125 b 796 308 797 235 796 278 l 796 976 b 807 986 796 983 800 986 "},"ŋ":{"ha":757,"x_min":0,"x_max":0,"o":"m 150 685 b 397 729 224 714 306 729 b 661 464 574 729 661 640 l 661 -21 b 360 -319 661 -208 553 -319 b 350 -310 353 -319 350 -317 l 350 -294 b 360 -283 350 -287 353 -283 b 624 -19 526 -283 624 -186 l 624 461 b 394 694 624 617 547 694 b 169 653 306 694 231 681 b 136 603 147 643 136 626 l 136 10 b 126 0 136 3 133 0 l 108 0 b 99 10 101 0 99 3 l 99 610 b 150 685 99 650 110 667 "},"Ō":{"ha":914,"x_min":0,"x_max":0,"o":"m 624 1171 b 633 1160 631 1171 633 1167 l 633 1150 b 624 1140 633 1143 631 1140 l 292 1140 b 282 1150 285 1140 282 1143 l 282 1160 b 292 1171 282 1167 285 1171 m 88 667 b 458 1006 88 879 219 1006 b 826 667 696 1006 826 879 l 826 319 b 458 -19 826 107 696 -19 b 88 319 219 -19 88 107 m 785 665 b 458 968 785 856 668 968 b 128 665 246 968 128 856 l 128 321 b 458 18 128 131 246 18 b 785 321 668 18 785 131 "},"ō":{"ha":744,"x_min":0,"x_max":0,"o":"m 524 896 b 532 886 529 896 532 893 l 532 876 b 524 867 532 869 529 867 l 219 867 b 210 876 213 867 210 869 l 210 886 b 219 896 210 893 213 896 m 79 493 b 372 729 79 638 194 729 b 665 493 550 729 665 638 l 665 217 b 372 -19 665 72 550 -19 b 79 217 194 -19 79 72 m 628 494 b 372 694 628 617 526 694 b 117 494 221 694 117 617 l 117 215 b 372 15 117 93 221 15 b 628 215 526 15 628 93 "},"Ŏ":{"ha":914,"x_min":0,"x_max":0,"o":"m 665 1235 b 458 1076 636 1129 568 1076 b 251 1235 349 1076 281 1129 b 257 1246 250 1239 251 1243 l 272 1250 b 283 1244 279 1253 282 1251 b 458 1108 307 1154 365 1108 b 632 1244 550 1108 608 1154 b 643 1251 635 1250 639 1253 l 660 1246 b 665 1235 664 1243 667 1239 m 88 667 b 458 1006 88 879 219 1006 b 826 667 696 1006 826 879 l 826 319 b 458 -19 826 107 696 -19 b 88 319 219 -19 88 107 m 785 665 b 458 968 785 856 668 968 b 128 665 246 968 128 856 l 128 321 b 458 18 128 131 246 18 b 785 321 668 18 785 131 "},"ŏ":{"ha":744,"x_min":0,"x_max":0,"o":"m 579 967 b 372 810 547 857 485 810 b 165 967 260 810 194 857 b 169 979 164 972 165 976 l 186 983 b 197 978 190 986 194 985 b 372 842 221 883 276 842 b 546 978 464 842 522 888 b 557 983 549 985 553 986 l 574 979 b 579 967 578 976 581 972 m 79 493 b 372 729 79 638 194 729 b 665 493 550 729 665 638 l 665 217 b 372 -19 665 72 550 -19 b 79 217 194 -19 79 72 m 628 494 b 372 694 628 617 526 694 b 117 494 221 694 117 617 l 117 215 b 372 15 117 93 221 15 b 628 215 526 15 628 93 "},"Ő":{"ha":914,"x_min":0,"x_max":0,"o":"m 425 1250 b 443 1258 431 1257 436 1260 l 458 1254 b 463 1242 467 1251 468 1247 l 303 1078 b 288 1074 297 1072 292 1071 l 278 1076 b 275 1089 271 1078 271 1082 m 669 1250 b 688 1258 675 1257 681 1260 l 703 1254 b 707 1242 713 1253 714 1249 l 546 1078 b 531 1072 542 1072 536 1071 l 521 1076 b 518 1088 514 1078 513 1082 m 88 667 b 458 1006 88 879 219 1006 b 826 667 696 1006 826 879 l 826 319 b 458 -19 826 107 696 -19 b 88 319 219 -19 88 107 m 785 665 b 458 968 785 856 668 968 b 128 665 246 968 128 856 l 128 321 b 458 18 128 131 246 18 b 785 321 668 18 785 131 "},"ő":{"ha":744,"x_min":0,"x_max":0,"o":"m 340 957 b 357 964 346 964 351 965 l 372 961 b 376 950 379 958 381 954 l 229 799 b 215 794 225 794 219 793 l 206 797 b 203 808 199 800 199 804 m 568 956 b 585 961 574 961 579 963 l 600 958 b 604 947 608 957 610 953 l 450 801 b 436 796 446 797 442 794 l 426 800 b 424 810 421 801 419 804 m 79 493 b 372 729 79 638 194 729 b 665 493 550 729 665 638 l 665 217 b 372 -19 665 72 550 -19 b 79 217 194 -19 79 72 m 628 494 b 372 694 628 617 526 694 b 117 494 221 694 117 617 l 117 215 b 372 15 117 93 221 15 b 628 215 526 15 628 93 "},"Œ":{"ha":1157,"x_min":0,"x_max":0,"o":"m 1088 38 b 1099 26 1094 38 1099 33 l 1099 11 b 1088 0 1099 4 1094 0 l 611 0 b 458 -21 563 -14 511 -21 b 88 319 219 -21 88 107 l 88 667 b 458 1007 88 879 219 1007 b 610 986 511 1007 561 1000 l 1068 986 b 1079 975 1075 986 1079 982 l 1079 960 b 1068 949 1079 953 1075 949 l 639 949 l 639 518 l 1008 518 b 1019 507 1015 518 1019 514 l 1019 490 b 1008 479 1019 483 1015 479 l 639 479 l 639 38 m 128 321 b 458 17 128 131 246 17 b 597 36 508 17 554 24 l 597 949 b 458 969 550 963 504 969 b 128 665 246 969 128 856 "},"œ":{"ha":1121,"x_min":0,"x_max":0,"o":"m 572 572 b 803 729 603 676 679 729 b 1056 446 971 729 1056 635 l 1056 374 b 1031 350 1056 358 1047 350 l 589 350 l 589 244 b 797 14 589 90 658 14 b 929 49 856 14 900 25 b 1014 160 958 72 986 108 b 1029 165 1018 167 1022 169 l 1042 158 b 1046 143 1049 154 1050 150 b 951 21 1017 88 986 47 b 797 -19 917 -7 865 -19 b 571 131 675 -19 600 31 b 336 -19 542 36 453 -19 b 82 215 185 -19 82 71 l 82 494 b 336 729 82 639 185 729 b 572 572 454 729 544 671 m 1018 447 b 803 696 1018 613 946 696 b 589 447 651 696 589 608 l 589 382 l 1018 382 m 550 496 b 336 694 550 617 463 694 b 121 496 208 694 121 617 l 121 215 b 336 15 121 93 208 15 b 550 215 463 15 550 93 "},"Ŕ":{"ha":886,"x_min":0,"x_max":0,"o":"m 538 1240 b 558 1239 546 1244 553 1244 l 567 1229 b 564 1214 572 1222 571 1217 l 317 1064 b 301 1065 310 1060 306 1061 l 294 1074 b 296 1086 289 1078 289 1082 m 531 986 b 807 714 704 986 807 886 b 549 449 807 553 708 456 b 678 324 601 429 644 388 l 835 13 b 828 0 839 4 838 0 l 811 0 b 789 10 801 0 794 3 l 640 306 b 415 444 590 406 532 444 l 158 444 l 158 11 b 147 0 158 4 154 0 l 129 0 b 118 11 122 0 118 4 l 118 975 b 129 986 118 982 122 986 m 764 714 b 526 949 764 864 678 949 l 158 949 l 158 483 l 526 483 b 764 714 676 483 764 565 "},"ŕ":{"ha":464,"x_min":0,"x_max":0,"o":"m 385 989 b 406 988 392 994 399 994 l 414 979 b 411 964 419 972 418 967 l 164 813 b 149 814 157 810 153 810 l 142 822 b 143 836 136 828 136 832 m 394 729 l 438 729 b 447 719 444 729 447 726 l 447 706 b 438 694 447 699 444 694 l 394 694 b 169 654 310 694 235 681 b 136 601 147 644 136 626 l 136 10 b 126 0 136 3 133 0 l 108 0 b 99 10 101 0 99 3 l 99 610 b 150 685 99 650 110 667 b 394 729 224 714 304 729 "},"Ŗ":{"ha":886,"x_min":0,"x_max":0,"o":"m 531 986 b 807 714 704 986 807 886 b 549 449 807 553 708 456 b 678 324 601 429 644 388 l 835 13 b 828 0 839 4 838 0 l 811 0 b 789 10 801 0 794 3 l 640 306 b 415 444 590 406 532 444 l 158 444 l 158 11 b 147 0 158 4 154 0 l 129 0 b 118 11 122 0 118 4 l 118 975 b 129 986 118 982 122 986 m 764 714 b 526 949 764 864 678 949 l 158 949 l 158 483 l 526 483 b 764 714 676 483 764 565 m 432 -326 b 418 -337 429 -333 425 -337 l 406 -337 b 397 -328 399 -337 396 -335 l 458 -125 b 472 -114 460 -118 464 -114 l 488 -114 b 497 -125 497 -114 500 -118 "},"ŗ":{"ha":464,"x_min":0,"x_max":0,"o":"m 396 729 l 439 729 b 449 719 446 729 449 726 l 449 706 b 439 694 449 699 446 694 l 396 694 b 171 654 311 694 236 681 b 138 601 149 644 138 626 l 138 10 b 128 0 138 3 135 0 l 110 0 b 100 10 103 0 100 3 l 100 610 b 151 685 100 650 111 667 b 396 729 225 714 306 729 m 89 -296 b 75 -307 86 -303 82 -307 l 64 -307 b 54 -296 57 -307 53 -303 l 106 -72 b 119 -60 107 -64 111 -60 l 136 -60 b 144 -72 144 -60 147 -64 "},"Ř":{"ha":886,"x_min":0,"x_max":0,"o":"m 643 1244 b 647 1233 651 1244 653 1240 l 456 1075 b 432 1064 447 1068 439 1064 l 426 1064 b 403 1075 419 1064 411 1068 l 210 1233 b 215 1244 203 1240 204 1244 l 233 1244 b 251 1238 240 1244 246 1242 l 429 1094 l 604 1238 b 625 1244 610 1242 617 1244 m 531 986 b 807 714 704 986 807 886 b 549 449 807 553 708 456 b 678 324 601 429 644 388 l 835 13 b 828 0 839 4 838 0 l 811 0 b 789 10 801 0 794 3 l 640 306 b 415 444 590 406 532 444 l 158 444 l 158 11 b 147 0 158 4 154 0 l 129 0 b 118 11 122 0 118 4 l 118 975 b 129 986 118 982 122 986 m 764 714 b 526 949 764 864 678 949 l 158 949 l 158 483 l 526 483 b 764 714 676 483 764 565 "},"ř":{"ha":464,"x_min":0,"x_max":0,"o":"m 481 963 b 485 953 490 963 492 960 l 308 806 b 288 796 301 799 294 796 l 282 796 b 261 806 275 796 268 799 l 82 954 b 86 963 76 960 78 963 l 106 963 b 122 956 113 963 118 960 l 285 824 l 446 956 b 464 963 450 960 457 963 m 403 729 l 446 729 b 456 719 453 729 456 726 l 456 706 b 446 694 456 699 453 694 l 403 694 b 178 654 318 694 243 681 b 144 601 156 644 144 626 l 144 10 b 135 0 144 3 142 0 l 117 0 b 107 10 110 0 107 3 l 107 610 b 158 685 107 650 118 667 b 403 729 232 714 313 729 "},"Ś":{"ha":861,"x_min":0,"x_max":0,"o":"m 549 1253 b 569 1251 558 1257 565 1257 l 578 1242 b 576 1226 585 1235 583 1231 l 329 1076 b 313 1078 322 1072 317 1074 l 306 1086 b 307 1099 301 1090 301 1094 m 88 736 b 429 1006 88 903 217 1006 b 793 789 611 1006 719 940 b 788 774 797 782 794 776 l 771 767 b 756 771 764 764 760 765 b 429 965 689 906 592 965 b 129 738 242 965 129 881 b 271 550 136 631 181 579 b 454 514 335 528 372 524 b 618 486 525 507 557 501 b 692 457 649 479 674 469 b 799 257 753 417 799 367 b 438 -19 799 78 675 -19 b 65 226 249 -19 136 56 b 72 243 61 233 64 239 l 88 249 b 103 243 94 251 100 250 b 438 19 169 89 275 19 b 758 256 651 19 758 99 b 624 442 751 363 713 414 b 542 463 592 451 564 458 b 447 475 519 467 488 471 b 247 515 363 485 318 490 b 163 560 211 528 183 542 b 88 736 122 593 88 654 "},"ś":{"ha":681,"x_min":0,"x_max":0,"o":"m 453 990 b 475 989 463 994 471 994 l 483 979 b 481 965 489 974 488 969 l 233 814 b 218 815 226 813 222 813 l 210 824 b 211 838 206 829 206 833 m 79 535 b 339 729 79 658 168 729 b 613 578 482 729 572 679 b 608 563 615 569 614 564 l 596 556 b 581 561 589 553 585 554 b 340 694 546 650 479 694 b 117 535 192 694 117 642 b 142 442 117 494 129 463 b 210 394 153 419 192 403 b 307 375 224 388 290 376 b 365 369 317 374 336 372 b 574 307 451 363 521 347 b 624 178 603 281 624 238 b 353 -19 624 46 533 -19 b 60 157 203 -19 106 31 b 67 172 57 164 60 169 l 81 176 b 93 171 86 179 90 178 b 353 15 131 67 217 15 b 586 176 508 15 586 69 b 358 335 586 292 510 322 b 254 347 308 340 299 340 b 165 375 210 353 199 361 b 104 432 132 389 121 407 b 79 535 86 457 79 492 "},"Ŝ":{"ha":861,"x_min":0,"x_max":0,"o":"m 444 1256 b 468 1244 451 1256 460 1251 l 661 1085 b 654 1075 668 1078 665 1075 l 638 1075 b 617 1082 629 1075 622 1078 l 442 1225 l 264 1082 b 246 1075 258 1078 253 1075 l 228 1075 b 221 1085 217 1075 214 1078 l 415 1244 b 439 1256 424 1251 432 1256 m 88 736 b 429 1006 88 903 217 1006 b 793 789 611 1006 719 940 b 788 774 797 782 794 776 l 771 767 b 756 771 764 764 760 765 b 429 965 689 906 592 965 b 129 738 242 965 129 881 b 271 550 136 631 181 579 b 454 514 335 528 372 524 b 618 486 525 507 557 501 b 692 457 649 479 674 469 b 799 257 753 417 799 367 b 438 -19 799 78 675 -19 b 65 226 249 -19 136 56 b 72 243 61 233 64 239 l 88 249 b 103 243 94 251 100 250 b 438 19 169 89 275 19 b 758 256 651 19 758 99 b 624 442 751 363 713 414 b 542 463 592 451 564 458 b 447 475 519 467 488 471 b 247 515 363 485 318 490 b 163 560 211 528 183 542 b 88 736 122 593 88 654 "},"ŝ":{"ha":681,"x_min":0,"x_max":0,"o":"m 349 978 b 371 967 356 978 364 974 l 561 811 b 554 801 565 804 564 801 l 538 801 b 518 808 529 801 522 804 l 346 949 l 172 808 b 154 801 167 804 161 801 l 136 801 b 131 811 126 801 124 804 l 321 967 b 343 978 328 974 336 978 m 79 535 b 339 729 79 658 168 729 b 613 578 482 729 572 679 b 608 563 615 569 614 564 l 596 556 b 581 561 589 553 585 554 b 340 694 546 650 479 694 b 117 535 192 694 117 642 b 142 442 117 494 129 463 b 210 394 153 419 192 403 b 307 375 224 388 290 376 b 365 369 317 374 336 372 b 574 307 451 363 521 347 b 624 178 603 281 624 238 b 353 -19 624 46 533 -19 b 60 157 203 -19 106 31 b 67 172 57 164 60 169 l 81 176 b 93 171 86 179 90 178 b 353 15 131 67 217 15 b 586 176 508 15 586 69 b 358 335 586 292 510 322 b 254 347 308 340 299 340 b 165 375 210 353 199 361 b 104 432 132 389 121 407 b 79 535 86 457 79 492 "},"Ş":{"ha":861,"x_min":0,"x_max":0,"o":"m 454 514 b 618 486 525 507 557 501 b 692 457 649 479 674 469 b 799 257 753 417 799 367 b 457 -19 799 81 683 -14 l 421 -124 b 469 -118 438 -119 454 -118 b 590 -218 546 -118 592 -156 b 442 -346 589 -300 532 -346 b 322 -312 397 -346 357 -335 b 313 -294 315 -310 313 -304 l 311 -282 b 319 -276 311 -275 314 -272 b 439 -317 350 -303 390 -317 b 557 -217 511 -317 557 -279 b 454 -143 557 -168 522 -143 b 399 -151 429 -143 411 -146 b 388 -136 386 -156 382 -149 l 429 -19 b 65 226 246 -18 136 58 b 72 243 61 233 64 239 l 88 249 b 103 243 94 251 100 250 b 438 19 169 89 272 19 b 758 256 651 19 758 99 b 725 374 758 306 743 346 b 636 438 707 401 665 425 b 514 467 607 449 546 461 b 446 475 497 468 475 471 b 246 515 361 485 317 490 b 163 560 211 528 183 542 b 88 736 122 593 88 654 b 429 1006 88 903 217 1006 b 793 789 611 1006 719 940 b 788 774 797 782 794 776 l 771 767 b 756 771 764 764 760 765 b 429 965 688 906 592 965 b 128 738 240 965 128 881 b 269 550 135 631 179 579 b 454 514 335 528 372 524 "},"ş":{"ha":681,"x_min":0,"x_max":0,"o":"m 79 535 b 339 729 79 658 168 729 b 613 578 482 729 572 679 b 608 563 615 569 614 564 l 596 556 b 581 561 589 553 585 554 b 340 694 546 650 479 694 b 117 535 192 694 117 642 b 142 442 117 494 129 463 b 210 394 153 419 192 403 b 307 375 224 388 290 376 b 365 369 317 374 336 372 b 574 307 451 363 521 347 b 624 178 603 281 624 238 b 358 -19 624 49 535 -17 l 321 -122 b 369 -118 332 -119 349 -118 b 486 -212 442 -118 488 -153 b 340 -335 485 -292 429 -335 b 224 -304 294 -335 256 -325 b 214 -287 217 -300 214 -294 l 214 -275 b 221 -269 214 -268 217 -267 b 338 -308 253 -296 292 -308 b 453 -212 410 -308 453 -274 b 354 -140 453 -164 419 -140 b 299 -150 331 -140 313 -143 b 288 -135 286 -153 283 -147 l 331 -19 b 60 157 192 -14 101 44 b 67 172 57 164 60 169 l 81 176 b 93 171 86 179 90 178 b 353 15 131 67 217 15 b 586 176 508 15 586 69 b 358 335 586 292 510 322 b 254 347 308 340 299 340 b 165 375 210 353 199 361 b 104 432 132 389 121 407 b 79 535 86 457 79 492 "},"Š":{"ha":861,"x_min":0,"x_max":0,"o":"m 654 1257 b 660 1246 664 1257 665 1253 l 467 1088 b 443 1076 460 1081 451 1076 l 438 1076 b 415 1088 431 1076 422 1081 l 221 1246 b 226 1257 214 1253 215 1257 l 244 1257 b 263 1250 251 1257 258 1254 l 440 1107 l 617 1250 b 636 1257 621 1254 628 1257 m 88 736 b 429 1006 88 903 217 1006 b 793 789 611 1006 719 940 b 788 774 797 782 794 776 l 771 767 b 756 771 764 764 760 765 b 429 965 689 906 592 965 b 129 738 242 965 129 881 b 271 550 136 631 181 579 b 454 514 335 528 372 524 b 618 486 525 507 557 501 b 692 457 649 479 674 469 b 799 257 753 417 799 367 b 438 -19 799 78 675 -19 b 65 226 249 -19 136 56 b 72 243 61 233 64 239 l 88 249 b 103 243 94 251 100 250 b 438 19 169 89 275 19 b 758 256 651 19 758 99 b 624 442 751 363 713 414 b 542 463 592 451 564 458 b 447 475 519 467 488 471 b 247 515 363 485 318 490 b 163 560 211 528 183 542 b 88 736 122 593 88 654 "},"š":{"ha":681,"x_min":0,"x_max":0,"o":"m 538 958 b 543 949 547 958 550 956 l 369 804 b 347 794 363 797 354 794 l 343 794 b 322 804 336 794 329 797 l 146 950 b 150 958 140 956 142 958 l 168 958 b 185 953 175 958 181 957 l 346 822 l 504 953 b 522 958 508 957 515 958 m 79 535 b 339 729 79 658 168 729 b 613 578 482 729 572 679 b 608 563 615 569 614 564 l 596 556 b 581 561 589 553 585 554 b 340 694 546 650 479 694 b 117 535 192 694 117 642 b 142 442 117 494 129 463 b 210 394 153 419 192 403 b 307 375 224 388 290 376 b 365 369 317 374 336 372 b 574 307 451 363 521 347 b 624 178 603 281 624 238 b 353 -19 624 46 533 -19 b 60 157 203 -19 106 31 b 67 172 57 164 60 169 l 81 176 b 93 171 86 179 90 178 b 353 15 131 67 217 15 b 586 176 508 15 586 69 b 358 335 586 292 510 322 b 254 347 308 340 299 340 b 165 375 210 353 199 361 b 104 432 132 389 121 407 b 79 535 86 457 79 492 "},"Ť":{"ha":729,"x_min":0,"x_max":0,"o":"m 578 1244 b 583 1233 588 1244 589 1240 l 390 1075 b 368 1064 383 1068 375 1064 l 363 1064 b 339 1075 354 1064 346 1068 l 146 1233 b 150 1244 142 1238 140 1244 l 169 1244 b 188 1238 176 1244 182 1242 l 365 1094 l 540 1238 b 560 1244 546 1242 553 1244 m 700 986 b 711 975 707 986 711 982 l 711 960 b 700 949 711 953 707 949 l 385 949 l 385 11 b 374 0 385 4 381 0 l 356 0 b 344 11 349 0 344 4 l 344 949 l 29 949 b 18 960 22 949 18 953 l 18 975 b 29 986 18 982 22 986 "},"ť":{"ha":464,"x_min":0,"x_max":0,"o":"m 406 782 b 392 771 403 775 399 771 l 382 771 b 374 781 375 771 372 774 l 429 1017 b 442 1028 431 1024 435 1028 l 457 1028 b 467 1017 467 1028 469 1024 m 203 876 b 214 867 210 876 214 874 l 214 710 l 447 710 b 458 700 454 710 458 707 l 458 685 b 447 675 458 678 454 675 l 214 675 l 214 247 b 263 63 214 154 231 93 b 446 17 294 32 356 17 b 456 7 453 17 456 14 l 456 -8 b 446 -19 456 -15 453 -19 b 233 35 343 -21 272 -3 b 175 246 194 72 175 142 l 175 675 l 14 675 b 4 685 7 675 4 678 l 4 700 b 14 710 4 707 7 710 l 175 710 l 175 867 b 186 876 175 874 179 876 "},"Ŧ":{"ha":763,"x_min":0,"x_max":0,"o":"m 718 986 b 728 975 725 986 728 982 l 728 960 b 718 949 728 953 725 949 l 403 949 l 403 476 l 622 476 b 632 467 629 476 632 474 l 632 456 b 622 443 632 447 629 443 l 403 443 l 403 11 b 392 0 403 4 399 0 l 372 0 b 361 11 365 0 361 4 l 361 443 l 142 443 b 132 456 135 443 132 447 l 132 467 b 142 476 132 474 135 476 l 361 476 l 361 949 l 46 949 b 36 960 39 949 36 953 l 36 975 b 46 986 36 982 39 986 "},"ŧ":{"ha":479,"x_min":0,"x_max":0,"o":"m 217 876 b 226 867 224 876 226 874 l 226 710 l 461 710 b 472 700 468 710 472 707 l 472 685 b 461 675 472 678 468 675 l 226 675 l 226 379 l 419 379 b 429 369 426 379 429 376 l 429 358 b 419 349 429 351 426 349 l 226 349 l 226 247 b 275 64 226 154 243 93 b 458 18 307 33 368 18 b 469 7 465 18 469 14 l 469 -8 b 458 -19 469 -15 465 -19 b 247 35 357 -21 286 -3 b 189 246 208 72 189 142 l 189 349 l 43 349 b 33 358 36 349 33 351 l 33 369 b 43 379 33 376 36 379 l 189 379 l 189 675 l 28 675 b 18 685 21 675 18 678 l 18 700 b 28 710 18 707 21 710 l 189 710 l 189 867 b 200 876 189 874 193 876 "},"Ũ":{"ha":942,"x_min":0,"x_max":0,"o":"m 675 1210 b 683 1201 681 1210 683 1207 b 582 1076 683 1118 650 1076 b 358 1181 499 1071 431 1185 b 285 1085 313 1181 285 1142 b 276 1076 285 1079 282 1076 l 263 1076 b 254 1085 257 1076 254 1079 b 357 1210 254 1163 292 1210 b 475 1157 392 1210 432 1192 b 581 1104 518 1122 553 1104 b 654 1201 629 1104 654 1144 b 663 1210 654 1207 657 1210 m 150 333 b 471 17 150 135 260 17 b 790 333 682 17 790 135 l 790 975 b 801 986 790 982 794 986 l 821 986 b 832 975 828 986 832 982 l 832 333 b 471 -21 832 113 708 -21 b 110 333 232 -21 110 111 l 110 975 b 121 986 110 982 114 986 l 139 986 b 150 975 146 986 150 982 "},"ũ":{"ha":757,"x_min":0,"x_max":0,"o":"m 582 960 b 590 951 588 960 590 957 b 489 826 590 868 557 826 b 265 931 406 821 338 935 b 190 835 219 931 190 892 b 183 826 190 829 188 826 l 169 826 b 161 835 164 826 161 829 b 264 960 161 913 197 960 b 382 908 299 960 339 943 b 488 856 425 874 460 856 b 561 951 536 856 561 894 b 569 960 561 957 564 960 m 649 710 b 658 700 656 710 658 707 l 658 101 b 607 25 658 58 647 43 b 360 -19 533 -4 451 -19 b 96 246 183 -19 96 69 l 96 700 b 106 710 96 707 99 710 l 124 710 b 133 700 131 710 133 707 l 133 249 b 364 15 133 93 210 15 b 588 56 449 15 522 29 b 621 108 610 65 621 83 l 621 700 b 632 710 621 707 625 710 "},"Ū":{"ha":942,"x_min":0,"x_max":0,"o":"m 636 1157 b 646 1146 643 1157 646 1153 l 646 1136 b 636 1126 646 1129 643 1126 l 304 1126 b 294 1136 297 1126 294 1129 l 294 1146 b 304 1157 294 1153 297 1157 m 150 333 b 471 17 150 135 260 17 b 790 333 682 17 790 135 l 790 975 b 801 986 790 982 794 986 l 821 986 b 832 975 828 986 832 982 l 832 333 b 471 -21 832 113 708 -21 b 110 333 232 -21 110 111 l 110 975 b 121 986 110 982 114 986 l 139 986 b 150 975 146 986 150 982 "},"ū":{"ha":757,"x_min":0,"x_max":0,"o":"m 543 904 b 553 893 550 904 553 900 l 553 883 b 543 872 553 876 550 872 l 211 872 b 201 883 204 872 201 876 l 201 893 b 211 904 201 900 204 904 m 649 710 b 658 700 656 710 658 707 l 658 101 b 607 25 658 58 647 43 b 360 -19 533 -4 451 -19 b 96 246 183 -19 96 69 l 96 700 b 106 710 96 707 99 710 l 124 710 b 133 700 131 710 133 707 l 133 249 b 364 15 133 93 210 15 b 588 56 449 15 522 29 b 621 108 610 65 621 83 l 621 700 b 632 710 621 707 625 710 "},"Ŭ":{"ha":942,"x_min":0,"x_max":0,"o":"m 678 1221 b 471 1063 649 1115 581 1063 b 264 1221 361 1063 293 1115 b 269 1232 263 1225 264 1229 l 285 1236 b 296 1231 292 1239 294 1238 b 471 1094 319 1140 378 1094 b 644 1231 563 1094 621 1140 b 656 1238 647 1236 651 1239 l 672 1232 b 678 1221 676 1229 679 1225 m 150 333 b 471 17 150 135 260 17 b 790 333 682 17 790 135 l 790 975 b 801 986 790 982 794 986 l 821 986 b 832 975 828 986 832 982 l 832 333 b 471 -21 832 113 708 -21 b 110 333 232 -21 110 111 l 110 975 b 121 986 110 982 114 986 l 139 986 b 150 975 146 986 150 982 "},"ŭ":{"ha":757,"x_min":0,"x_max":0,"o":"m 585 967 b 378 810 553 857 490 810 b 171 967 265 810 200 857 b 175 979 169 972 171 976 l 192 983 b 203 978 196 986 200 985 b 378 842 226 883 282 842 b 551 978 469 842 528 888 b 563 983 554 985 558 986 l 579 979 b 585 967 583 976 586 972 m 649 710 b 658 700 656 710 658 707 l 658 101 b 607 25 658 58 647 43 b 360 -19 533 -4 451 -19 b 96 246 183 -19 96 69 l 96 700 b 106 710 96 707 99 710 l 124 710 b 133 700 131 710 133 707 l 133 249 b 364 15 133 93 210 15 b 588 56 449 15 522 29 b 621 108 610 65 621 83 l 621 700 b 632 710 621 707 625 710 "},"Ů":{"ha":942,"x_min":0,"x_max":0,"o":"m 375 1067 b 338 1160 350 1089 338 1119 b 375 1254 338 1200 350 1231 b 472 1288 399 1276 432 1288 b 601 1160 551 1288 601 1239 b 472 1032 601 1081 551 1032 b 375 1067 432 1032 399 1043 m 549 1085 b 549 1235 585 1121 585 1199 b 472 1263 531 1253 504 1263 b 363 1160 404 1263 363 1222 b 472 1057 363 1097 404 1057 b 549 1085 504 1057 531 1067 m 150 333 b 471 17 150 135 260 17 b 790 333 682 17 790 135 l 790 975 b 801 986 790 982 794 986 l 821 986 b 832 975 828 986 832 982 l 832 333 b 471 -21 832 113 708 -21 b 110 333 232 -21 110 111 l 110 975 b 121 986 110 982 114 986 l 139 986 b 150 975 146 986 150 982 "},"ů":{"ha":757,"x_min":0,"x_max":0,"o":"m 254 896 b 388 1025 254 975 306 1025 b 517 896 467 1025 517 975 b 388 768 517 818 467 768 b 254 896 306 768 254 818 m 492 896 b 388 1000 492 961 453 1000 b 279 896 319 1000 279 961 b 388 793 279 833 321 793 b 492 896 450 793 492 833 m 649 710 b 658 700 656 710 658 707 l 658 101 b 607 25 658 58 647 43 b 360 -19 533 -4 451 -19 b 96 246 183 -19 96 69 l 96 700 b 106 710 96 707 99 710 l 124 710 b 133 700 131 710 133 707 l 133 249 b 364 15 133 93 210 15 b 588 56 449 15 522 29 b 621 108 610 65 621 83 l 621 700 b 632 710 621 707 625 710 "},"Ű":{"ha":942,"x_min":0,"x_max":0,"o":"m 438 1236 b 456 1244 443 1243 449 1246 l 471 1240 b 475 1228 479 1238 481 1233 l 315 1064 b 300 1060 310 1058 304 1057 l 290 1063 b 288 1075 283 1064 283 1068 m 682 1236 b 700 1244 688 1243 693 1246 l 715 1240 b 719 1228 725 1239 726 1235 l 558 1064 b 543 1058 554 1058 550 1057 l 533 1063 b 531 1074 526 1064 525 1068 m 150 333 b 471 17 150 135 260 17 b 790 333 682 17 790 135 l 790 975 b 801 986 790 982 794 986 l 821 986 b 832 975 828 986 832 982 l 832 333 b 471 -21 832 113 708 -21 b 110 333 232 -21 110 111 l 110 975 b 121 986 110 982 114 986 l 139 986 b 150 975 146 986 150 982 "},"ű":{"ha":757,"x_min":0,"x_max":0,"o":"m 343 979 b 361 986 350 986 356 988 l 378 983 b 382 971 385 982 386 978 l 222 807 b 207 801 218 801 214 800 l 197 806 b 193 817 189 807 188 811 m 590 976 b 608 983 597 983 603 985 l 625 981 b 629 968 633 978 635 974 l 463 808 b 447 804 457 803 451 801 l 438 807 b 435 818 431 810 431 814 m 649 710 b 658 700 656 710 658 707 l 658 101 b 607 25 658 58 647 43 b 360 -19 533 -4 451 -19 b 96 246 183 -19 96 69 l 96 700 b 106 710 96 707 99 710 l 124 710 b 133 700 131 710 133 707 l 133 249 b 364 15 133 93 210 15 b 588 56 449 15 522 29 b 621 108 610 65 621 83 l 621 700 b 632 710 621 707 625 710 "},"Ų":{"ha":942,"x_min":0,"x_max":0,"o":"m 821 986 b 832 975 828 986 832 982 l 832 333 b 701 42 832 199 789 101 b 551 -124 640 -6 590 -61 b 513 -264 513 -186 500 -232 b 581 -311 522 -296 546 -311 b 679 -267 618 -311 651 -296 b 688 -268 682 -262 685 -264 l 692 -283 b 689 -294 693 -287 693 -290 b 571 -344 654 -328 614 -344 b 478 -282 522 -344 490 -324 b 501 -151 465 -247 472 -204 b 621 3 529 -99 569 -47 b 471 -21 581 -12 531 -21 b 110 333 232 -21 110 111 l 110 975 b 121 986 110 982 114 986 l 139 986 b 150 975 146 986 150 982 l 150 333 b 471 17 150 135 260 17 b 790 333 682 17 790 135 l 790 975 b 801 986 790 982 794 986 "},"ų":{"ha":757,"x_min":0,"x_max":0,"o":"m 649 710 b 658 700 656 710 658 707 l 658 101 b 633 39 658 72 650 51 b 504 -121 576 -6 533 -58 b 478 -264 474 -183 465 -231 b 546 -311 488 -296 511 -311 b 644 -267 583 -311 617 -296 b 653 -268 647 -264 650 -264 l 657 -283 b 654 -294 658 -287 658 -290 b 536 -344 619 -328 579 -344 b 443 -282 488 -344 456 -324 b 458 -143 431 -246 435 -200 b 569 13 482 -86 518 -33 b 360 -19 510 -8 439 -19 b 96 246 183 -19 96 69 l 96 700 b 106 710 96 707 99 710 l 124 710 b 133 700 131 710 133 707 l 133 249 b 364 15 133 93 210 15 b 588 56 449 15 522 29 b 621 108 610 65 621 83 l 621 700 b 632 710 621 707 625 710 "},"Ŵ":{"ha":1200,"x_min":0,"x_max":0,"o":"m 610 1243 b 632 1232 617 1243 625 1239 l 826 1072 b 819 1063 831 1065 829 1063 l 801 1063 b 782 1069 794 1063 788 1065 l 606 1213 l 429 1069 b 411 1063 424 1065 418 1063 l 392 1063 b 386 1072 382 1063 379 1065 l 581 1232 b 603 1243 588 1239 596 1243 m 1163 986 b 1169 975 1169 986 1172 982 l 906 11 b 889 0 904 4 899 0 l 872 0 b 856 11 864 0 858 4 l 636 781 b 606 900 632 793 622 833 l 604 900 l 571 781 l 351 11 b 336 0 350 4 346 0 l 318 0 b 303 11 308 0 304 4 l 39 975 b 46 986 36 982 39 986 l 67 986 b 82 976 76 986 81 983 l 299 181 b 313 124 300 172 306 153 b 328 60 319 94 324 72 l 329 60 b 346 124 332 74 338 94 b 360 179 353 153 358 171 l 581 951 b 596 961 582 958 588 961 l 615 961 b 631 951 624 961 629 958 l 851 176 b 882 60 869 108 879 69 l 883 60 b 910 175 888 78 897 117 l 1126 976 b 1143 986 1129 983 1135 986 "},"ŵ":{"ha":1011,"x_min":0,"x_max":0,"o":"m 514 976 b 536 967 521 976 529 974 l 725 810 b 719 800 733 803 732 800 l 703 800 b 683 807 694 800 688 803 l 511 947 l 338 807 b 319 800 332 803 326 800 l 301 800 b 294 810 290 800 288 803 l 486 967 b 508 976 493 974 501 976 m 972 710 b 981 697 981 710 983 706 l 758 4 b 746 -7 757 -3 753 -7 l 731 -7 b 715 4 724 -7 718 -3 l 539 538 l 510 633 l 507 633 l 478 538 l 303 4 b 288 -7 300 -3 294 -7 l 274 -7 b 260 4 267 -7 261 -3 l 39 697 b 47 710 36 706 39 710 l 63 710 b 79 699 72 710 78 706 l 246 169 b 281 47 251 151 275 65 l 283 47 l 300 106 b 321 172 308 135 315 157 l 488 675 b 504 685 489 682 494 685 l 515 685 b 531 675 524 685 529 682 l 696 178 b 718 110 701 163 708 139 b 736 47 726 79 732 58 l 739 47 b 775 176 744 64 757 107 l 942 699 b 958 710 943 706 949 710 "},"Ŷ":{"ha":851,"x_min":0,"x_max":0,"o":"m 439 1243 b 461 1232 446 1243 454 1239 l 656 1072 b 649 1063 660 1065 658 1063 l 631 1063 b 611 1069 624 1063 617 1065 l 436 1213 l 258 1069 b 240 1063 253 1065 247 1063 l 221 1063 b 215 1072 211 1063 208 1065 l 410 1232 b 432 1243 417 1239 425 1243 m 832 986 b 839 975 840 986 843 982 l 454 408 l 454 11 b 443 0 454 4 450 0 l 425 0 b 414 11 418 0 414 4 l 414 410 l 32 975 b 39 986 26 982 29 986 l 61 986 b 82 976 71 986 78 983 l 435 451 l 789 976 b 808 986 793 983 799 986 "},"ŷ":{"ha":761,"x_min":0,"x_max":0,"o":"m 381 976 b 403 967 388 976 396 974 l 592 810 b 586 800 597 806 596 800 l 568 800 b 549 807 561 800 554 803 l 378 947 l 204 807 b 186 800 199 803 193 800 l 168 800 b 161 810 157 800 154 803 l 351 967 b 374 976 360 974 367 976 m 649 710 b 658 700 656 710 658 707 l 658 -57 b 372 -357 658 -257 563 -357 b 106 -194 246 -357 157 -303 b 110 -178 101 -187 103 -182 l 122 -172 b 139 -176 128 -168 133 -169 b 372 -321 185 -272 263 -321 b 621 -58 538 -321 621 -233 l 621 38 b 360 -15 528 3 442 -15 b 96 251 183 -15 96 74 l 96 700 b 106 710 96 707 99 710 l 124 710 b 133 700 131 710 133 707 l 133 253 b 364 19 133 97 210 19 b 621 74 446 19 531 38 l 621 700 b 632 710 621 707 625 710 "},"Ÿ":{"ha":851,"x_min":0,"x_max":0,"o":"m 308 1174 b 331 1151 326 1174 331 1168 l 331 1143 b 308 1119 331 1125 326 1119 l 300 1119 b 276 1143 282 1119 276 1125 l 276 1151 b 300 1174 276 1167 285 1174 m 569 1174 b 594 1151 586 1174 594 1167 l 594 1143 b 569 1119 594 1128 586 1119 l 563 1119 b 539 1143 544 1119 539 1125 l 539 1151 b 563 1174 539 1168 544 1174 m 832 986 b 839 975 840 986 843 982 l 454 408 l 454 11 b 443 0 454 4 450 0 l 425 0 b 414 11 418 0 414 4 l 414 410 l 32 975 b 39 986 26 982 29 986 l 61 986 b 82 976 71 986 78 983 l 435 451 l 789 976 b 808 986 793 983 799 986 "},"Ź":{"ha":761,"x_min":0,"x_max":0,"o":"m 493 1240 b 514 1239 501 1244 508 1244 l 522 1229 b 521 1214 529 1222 528 1218 l 272 1064 b 257 1065 265 1060 261 1061 l 250 1074 b 251 1086 244 1078 244 1082 m 694 986 b 706 975 701 986 706 982 l 706 961 b 701 946 706 954 704 950 l 94 39 l 713 39 b 724 28 719 39 724 35 l 724 11 b 713 0 724 4 719 0 l 54 0 b 43 11 47 0 43 4 l 43 26 b 50 44 43 33 46 39 l 654 949 l 60 949 b 50 960 53 949 50 953 l 50 975 b 60 986 50 982 53 986 "},"ź":{"ha":614,"x_min":0,"x_max":0,"o":"m 415 989 b 436 988 422 994 429 994 l 444 979 b 442 964 450 972 449 968 l 194 813 b 179 814 188 810 182 810 l 172 822 b 174 836 167 828 167 832 m 563 35 b 571 25 568 35 571 32 l 571 10 b 563 0 571 3 568 0 l 53 0 b 43 10 46 0 43 3 l 43 25 b 49 39 43 29 44 35 l 518 675 l 58 675 b 49 686 51 675 49 679 l 49 700 b 58 710 49 707 51 710 l 556 710 b 565 700 563 710 565 707 l 565 686 b 560 669 565 679 564 674 l 92 35 "},"Ż":{"ha":761,"x_min":0,"x_max":0,"o":"m 388 1168 b 413 1144 406 1168 413 1163 l 413 1138 b 388 1114 413 1119 406 1114 l 382 1114 b 358 1138 364 1114 358 1119 l 358 1144 b 382 1168 358 1163 364 1168 m 694 986 b 706 975 701 986 706 982 l 706 961 b 701 946 706 954 704 950 l 94 39 l 713 39 b 724 28 719 39 724 35 l 724 11 b 713 0 724 4 719 0 l 54 0 b 43 11 47 0 43 4 l 43 26 b 50 44 43 33 46 39 l 654 949 l 60 949 b 50 960 53 949 50 953 l 50 975 b 60 986 50 982 53 986 "},"ż":{"ha":614,"x_min":0,"x_max":0,"o":"m 310 918 b 335 893 326 918 335 910 l 335 888 b 310 863 335 867 331 863 l 304 863 b 281 888 286 863 281 867 l 281 893 b 304 918 281 910 289 918 m 563 35 b 571 25 568 35 571 32 l 571 10 b 563 0 571 3 568 0 l 53 0 b 43 10 46 0 43 3 l 43 25 b 49 39 43 29 44 35 l 518 675 l 58 675 b 49 686 51 675 49 679 l 49 700 b 58 710 49 707 51 710 l 556 710 b 565 700 563 710 565 707 l 565 686 b 560 669 565 679 564 674 l 92 35 "},"Ž":{"ha":761,"x_min":0,"x_max":0,"o":"m 599 1244 b 603 1233 608 1244 610 1240 l 411 1075 b 388 1064 403 1068 394 1064 l 382 1064 b 358 1075 375 1064 367 1068 l 165 1233 b 171 1244 158 1240 160 1244 l 189 1244 b 207 1238 196 1244 201 1242 l 385 1094 l 561 1238 b 581 1244 565 1242 572 1244 m 694 986 b 706 975 701 986 706 982 l 706 961 b 701 946 706 954 704 950 l 94 39 l 713 39 b 724 28 719 39 724 35 l 724 11 b 713 0 724 4 719 0 l 54 0 b 43 11 47 0 43 4 l 43 26 b 50 44 43 33 46 39 l 654 949 l 60 949 b 50 960 53 949 50 953 l 50 975 b 60 986 50 982 53 986 "},"ž":{"ha":614,"x_min":0,"x_max":0,"o":"m 500 957 b 504 947 510 957 511 954 l 331 803 b 310 793 324 796 317 793 l 304 793 b 283 803 297 793 290 796 l 108 949 b 113 957 103 954 104 957 l 131 957 b 147 950 138 957 143 954 l 307 821 l 465 950 b 483 957 469 954 476 957 m 563 35 b 571 25 568 35 571 32 l 571 10 b 563 0 571 3 568 0 l 53 0 b 43 10 46 0 43 3 l 43 25 b 49 39 43 29 44 35 l 518 675 l 58 675 b 49 686 51 675 49 679 l 49 700 b 58 710 49 707 51 710 l 556 710 b 565 700 563 710 565 707 l 565 686 b 560 669 565 679 564 674 l 92 35 "},"ſ":{"ha":322,"x_min":0,"x_max":0,"o":"m 154 763 b 214 972 154 864 174 935 b 424 1028 253 1010 322 1028 b 435 1017 431 1028 435 1024 l 435 1001 b 424 992 435 994 431 992 b 242 946 333 992 274 976 b 193 761 210 914 193 853 l 193 10 b 182 0 193 3 189 0 l 165 0 b 154 10 158 0 154 3 l 154 675 l 21 675 b 11 685 14 675 11 678 l 11 700 b 21 710 11 707 14 710 l 154 710 "},"ƒ":{"ha":600,"x_min":0,"x_max":0,"o":"m 297 758 b 579 1028 315 931 400 1028 b 590 1017 586 1028 590 1024 l 590 1001 b 579 992 590 994 586 992 b 338 756 422 992 354 910 l 311 515 l 539 515 b 549 506 546 515 549 513 l 549 489 b 539 479 549 482 546 479 l 306 479 l 251 -35 b -32 -306 231 -215 136 -306 b -43 -294 -39 -306 -43 -301 l -43 -279 b -32 -269 -43 -272 -39 -269 b 211 -31 125 -269 194 -185 l 267 479 l 53 479 b 42 489 46 479 42 482 l 42 506 b 53 515 42 513 46 515 l 271 515 "},"Ǻ":{"ha":871,"x_min":0,"x_max":0,"o":"m 546 1322 b 565 1321 554 1326 561 1326 l 572 1311 b 571 1300 576 1307 576 1303 l 335 1197 b 321 1199 329 1194 325 1194 l 315 1206 b 321 1218 313 1208 314 1213 m 310 1064 b 439 1186 310 1135 365 1186 b 565 1064 513 1186 565 1135 b 471 960 565 1010 528 967 l 857 11 b 847 0 860 4 857 0 l 832 0 b 813 10 822 0 815 3 l 672 357 l 206 357 l 65 10 b 44 0 63 3 56 0 l 31 0 b 22 11 22 0 19 4 l 408 960 b 310 1064 349 967 310 1010 m 539 1065 b 439 1160 539 1121 499 1160 b 338 1065 379 1160 338 1121 b 439 979 338 1015 379 979 b 539 1065 496 979 539 1015 m 508 769 b 474 860 500 788 489 818 b 440 944 458 901 447 929 l 438 944 b 407 861 432 929 422 901 b 372 771 392 819 379 789 l 218 392 l 658 392 "},"ǻ":{"ha":704,"x_min":0,"x_max":0,"o":"m 449 1225 b 468 1224 458 1228 464 1228 l 476 1217 b 475 1206 481 1213 481 1208 l 243 1094 b 228 1094 236 1093 232 1093 l 221 1101 b 222 1111 217 1106 217 1108 m 258 839 b 221 932 233 861 221 892 b 258 1026 221 972 233 1003 b 356 1060 282 1049 315 1060 b 485 932 435 1060 485 1011 b 356 804 485 853 435 804 b 258 839 315 804 282 815 m 432 857 b 432 1007 469 893 468 971 b 356 1035 414 1025 388 1035 b 246 932 288 1035 246 994 b 356 829 246 869 288 829 b 432 857 388 829 413 839 m 82 582 b 351 729 132 681 222 729 b 615 463 568 729 615 606 l 615 96 b 565 17 615 47 604 33 b 351 -19 510 -7 439 -19 b 121 32 239 -19 161 -3 b 58 190 79 65 58 118 b 357 396 58 340 140 396 b 578 379 399 396 472 390 l 578 464 b 350 694 578 590 540 694 b 115 567 240 694 161 651 b 101 561 111 561 107 560 l 88 567 b 82 582 79 569 78 575 m 578 346 b 354 364 501 358 428 364 b 97 190 165 364 97 317 b 150 57 97 129 115 85 b 350 14 185 28 251 14 b 542 46 429 14 493 25 b 578 101 574 58 578 67 "},"Ǽ":{"ha":1122,"x_min":0,"x_max":0,"o":"m 925 1240 b 946 1239 933 1244 940 1244 l 954 1229 b 953 1214 961 1222 960 1218 l 704 1064 b 689 1065 697 1060 693 1061 l 682 1074 b 683 1086 678 1078 678 1082 m 1058 38 b 1069 26 1065 38 1069 33 l 1069 11 b 1058 0 1069 4 1065 0 l 604 0 b 593 11 597 0 593 4 l 593 271 l 201 271 l 44 10 b 25 0 40 3 35 0 l 8 0 b -1 11 -1 0 -4 4 l 583 975 b 599 986 588 982 593 986 l 1038 986 b 1049 975 1044 986 1049 982 l 1049 960 b 1038 949 1049 953 1044 949 l 633 949 l 633 518 l 979 518 b 990 507 986 518 990 514 l 990 490 b 979 479 990 483 986 479 l 633 479 l 633 38 m 593 921 l 224 307 l 593 307 "},"ǽ":{"ha":1082,"x_min":0,"x_max":0,"o":"m 650 1001 b 671 1000 657 1007 664 1007 l 679 990 b 676 976 685 985 683 981 l 429 825 b 414 826 422 824 418 824 l 406 835 b 408 849 401 840 401 844 m 83 583 b 321 729 135 681 214 729 b 533 575 440 729 511 678 b 764 729 564 678 640 729 b 1017 446 932 729 1017 635 l 1017 374 b 992 350 1017 358 1008 350 l 550 350 l 550 244 b 758 14 550 90 619 14 b 890 49 817 14 861 25 b 974 160 919 72 947 108 b 990 165 978 167 983 168 l 1003 158 b 1006 143 1010 154 1010 150 b 913 21 978 89 947 47 b 758 -19 878 -6 826 -19 b 547 89 654 -19 583 17 b 321 -19 511 17 436 -19 b 60 186 122 -19 60 43 b 326 394 60 338 132 394 b 511 376 369 394 431 389 l 511 468 b 474 636 511 542 499 597 b 319 694 447 675 396 694 b 118 568 229 694 163 653 b 104 563 114 563 108 561 l 89 568 b 83 583 82 571 79 576 m 979 447 b 764 696 979 613 907 696 b 550 447 613 696 550 608 l 550 382 l 979 382 m 511 343 b 322 361 444 356 382 361 b 99 186 157 361 99 314 b 318 14 99 68 151 14 b 525 129 432 14 501 53 b 511 239 515 160 511 196 "},"Ǿ":{"ha":914,"x_min":0,"x_max":0,"o":"m 575 1254 b 597 1253 585 1258 592 1258 l 606 1243 b 603 1228 611 1236 610 1232 l 356 1078 b 340 1079 349 1074 343 1075 l 332 1088 b 333 1100 328 1092 328 1096 m 828 1040 b 832 1035 832 1040 833 1039 l 746 900 b 826 667 800 842 826 764 l 826 319 b 458 -19 826 107 696 -19 b 204 53 351 -19 267 4 l 135 -56 b 122 -61 133 -60 129 -61 l 100 -61 b 97 -56 96 -61 94 -60 l 179 74 b 88 319 118 132 88 214 l 88 667 b 458 1006 88 879 219 1006 b 721 922 571 1006 658 978 l 793 1035 b 804 1040 796 1039 800 1040 m 700 888 b 458 968 642 942 561 968 b 128 665 246 968 128 856 l 128 321 b 204 113 128 233 153 164 m 226 88 b 458 18 285 42 363 18 b 785 321 668 18 785 131 l 785 665 b 722 861 785 747 764 813 "},"ǿ":{"ha":744,"x_min":0,"x_max":0,"o":"m 479 989 b 500 988 486 994 493 994 l 508 979 b 507 964 515 972 514 968 l 258 813 b 243 814 251 810 246 810 l 236 822 b 238 836 232 828 232 832 m 646 767 b 647 761 647 767 649 765 l 586 665 b 665 493 639 624 665 567 l 665 217 b 372 -19 665 72 550 -19 b 183 28 296 -19 233 -4 l 138 -43 b 126 -49 135 -47 131 -49 l 107 -49 b 104 -43 103 -49 103 -47 l 158 44 b 79 217 106 86 79 143 l 79 493 b 372 729 79 638 194 729 b 563 682 450 729 514 714 l 615 763 b 625 767 617 765 621 767 m 543 650 b 372 694 497 679 440 694 b 117 494 221 694 117 617 l 117 215 b 182 78 117 158 139 113 m 201 60 b 372 15 247 31 304 15 b 628 215 526 15 628 93 l 628 494 b 564 631 628 550 607 596 "},"Ș":{"ha":861,"x_min":0,"x_max":0,"o":"m 88 736 b 429 1006 88 903 217 1006 b 793 789 611 1006 719 940 b 788 774 797 782 794 776 l 771 767 b 756 771 764 764 760 765 b 429 965 689 906 592 965 b 129 738 242 965 129 881 b 271 550 136 631 181 579 b 454 514 335 528 372 524 b 618 486 525 507 557 501 b 692 457 649 479 674 469 b 799 257 753 417 799 367 b 438 -19 799 78 675 -19 b 65 226 249 -19 136 56 b 72 243 61 233 64 239 l 88 249 b 103 243 94 251 100 250 b 438 19 169 89 275 19 b 758 256 651 19 758 99 b 624 442 751 363 713 414 b 542 463 592 451 564 458 b 447 475 519 467 488 471 b 247 515 363 485 318 490 b 163 560 211 528 183 542 b 88 736 122 593 88 654 m 425 -337 b 411 -349 422 -344 418 -349 l 400 -349 b 392 -339 393 -349 390 -346 l 451 -136 b 465 -125 453 -129 457 -125 l 481 -125 b 492 -136 489 -125 493 -129 "},"ș":{"ha":681,"x_min":0,"x_max":0,"o":"m 79 535 b 339 729 79 658 168 729 b 613 578 482 729 572 679 b 608 563 615 569 614 564 l 596 556 b 581 561 589 553 585 554 b 340 694 546 650 479 694 b 117 535 192 694 117 642 b 142 442 117 494 129 463 b 210 394 153 419 192 403 b 307 375 224 388 290 376 b 365 369 317 374 336 372 b 574 307 451 363 521 347 b 624 178 603 281 624 238 b 353 -19 624 46 533 -19 b 60 157 203 -19 106 31 b 67 172 57 164 60 169 l 81 176 b 93 171 86 179 90 178 b 353 15 131 67 217 15 b 586 176 508 15 586 69 b 358 335 586 292 510 322 b 254 347 308 340 299 340 b 165 375 210 353 199 361 b 104 432 132 389 121 407 b 79 535 86 457 79 492 m 335 -294 b 321 -306 333 -301 328 -306 l 310 -306 b 301 -296 303 -306 300 -303 l 356 -87 b 368 -75 357 -79 361 -75 l 383 -75 b 393 -87 393 -75 396 -79 "},"Ț":{"ha":729,"x_min":0,"x_max":0,"o":"m 700 986 b 711 975 707 986 711 982 l 711 960 b 700 949 711 953 707 949 l 385 949 l 385 11 b 374 0 385 4 381 0 l 356 0 b 344 11 349 0 344 4 l 344 949 l 29 949 b 18 960 22 949 18 953 l 18 975 b 29 986 18 982 22 986 m 332 -326 b 318 -337 329 -333 325 -337 l 307 -337 b 299 -328 300 -337 297 -335 l 358 -125 b 372 -114 360 -118 364 -114 l 388 -114 b 399 -125 396 -114 400 -118 "},"ț":{"ha":464,"x_min":0,"x_max":0,"o":"m 203 876 b 214 867 210 876 214 874 l 214 710 l 447 710 b 458 700 454 710 458 707 l 458 685 b 447 675 458 678 454 675 l 214 675 l 214 247 b 263 63 214 154 231 93 b 446 17 294 32 356 17 b 456 7 453 17 456 14 l 456 -8 b 446 -19 456 -15 453 -19 b 233 35 343 -21 272 -3 b 175 246 194 72 175 142 l 175 675 l 14 675 b 4 685 7 675 4 678 l 4 700 b 14 710 4 707 7 710 l 175 710 l 175 867 b 186 876 175 874 179 876 m 260 -326 b 247 -337 258 -333 254 -337 l 235 -337 b 226 -328 228 -337 225 -335 l 288 -125 b 301 -114 289 -118 293 -114 l 317 -114 b 326 -125 326 -114 329 -118 "},"ȷ":{"ha":243,"x_min":0,"x_max":0,"o":"m 129 710 b 140 700 136 710 140 707 l 140 -14 b -125 -319 140 -221 71 -319 b -135 -308 -132 -319 -135 -315 l -135 -293 b -125 -283 -135 -286 -132 -283 b 103 -14 46 -283 103 -197 l 103 700 b 113 710 103 707 106 710 "},"ˆ":{"ha":506,"x_min":0,"x_max":0,"o":"m 264 996 b 288 985 271 996 279 992 l 481 824 b 474 815 486 818 483 815 l 457 815 b 436 822 449 815 442 818 l 261 965 l 83 822 b 65 815 78 818 72 815 l 47 815 b 40 824 38 815 35 818 l 235 985 b 258 996 244 992 251 996 "},"ˇ":{"ha":461,"x_min":0,"x_max":0,"o":"m 456 994 b 461 985 465 994 468 992 l 268 825 b 246 814 260 818 253 814 l 239 814 b 217 825 232 814 225 818 l 22 986 b 25 994 15 992 15 994 l 46 994 b 65 989 53 994 58 993 l 242 844 l 418 989 b 438 994 425 993 431 994 "},"˘":{"ha":399,"x_min":0,"x_max":0,"o":"m 400 979 b 193 822 372 875 303 822 b -14 979 83 822 14 875 b -8 990 -15 986 -12 989 l 7 996 b 18 990 14 999 17 997 b 193 854 42 896 97 854 b 368 990 289 854 344 896 b 378 996 369 997 372 999 l 394 990 b 400 979 401 989 403 985 "},"˙":{"ha":300,"x_min":0,"x_max":0,"o":"m 153 929 b 178 906 169 929 178 921 l 178 900 b 153 875 178 883 169 875 l 147 875 b 122 900 129 875 122 879 l 122 906 b 147 929 122 921 131 929 "},"˚":{"ha":333,"x_min":0,"x_max":0,"o":"m 72 788 b 36 881 49 810 36 840 b 72 975 36 921 49 951 b 169 1008 96 997 129 1008 b 299 881 249 1008 299 960 b 169 753 299 801 249 753 b 72 788 129 753 96 764 m 246 806 b 246 956 283 842 282 919 b 169 983 228 974 201 983 b 61 881 103 983 61 943 b 169 778 61 818 103 778 b 246 806 201 778 226 788 "},"˛":{"ha":350,"x_min":0,"x_max":0,"o":"m 278 0 b 153 -142 221 -44 179 -92 b 131 -264 125 -192 118 -232 b 199 -311 140 -296 164 -311 b 297 -267 236 -311 269 -296 b 306 -268 300 -262 303 -264 l 310 -283 b 307 -294 311 -287 311 -290 b 189 -344 272 -328 232 -344 b 96 -282 140 -344 108 -324 b 243 0 68 -204 122 -90 "},"˜":{"ha":424,"x_min":0,"x_max":0,"o":"m 418 972 b 426 964 424 972 426 969 b 325 839 426 881 393 839 b 101 943 225 839 188 943 b 26 847 56 943 26 904 b 19 839 26 842 24 839 l 6 839 b -3 847 0 839 -3 842 b 100 972 -3 925 33 972 b 218 921 135 972 175 956 b 324 868 261 886 296 868 b 397 964 372 868 397 907 b 406 972 397 969 400 972 "},"˝":{"ha":549,"x_min":0,"x_max":0,"o":"m 239 992 b 257 999 246 999 251 1000 l 274 996 b 278 983 282 993 283 989 l 118 819 b 103 814 114 814 108 813 l 92 818 b 89 829 85 819 85 822 m 486 989 b 504 996 492 996 497 997 l 521 993 b 525 981 531 990 532 986 l 358 821 b 343 815 354 817 349 814 l 333 819 b 329 831 326 822 325 826 "},"̦":{"ha":0,"x_min":0,"x_max":0,"o":"m 133 -326 b 119 -337 131 -333 126 -337 l 108 -337 b 99 -328 101 -337 97 -335 l 160 -125 b 174 -114 161 -118 165 -114 l 189 -114 b 200 -125 197 -114 201 -118 "},"π":{"ha":828,"x_min":0,"x_max":0,"o":"m 801 710 b 811 700 808 710 811 707 l 811 685 b 801 675 811 678 808 675 l 693 675 l 693 199 b 736 22 693 128 707 68 b 732 6 740 15 739 10 l 718 -1 b 703 4 711 -6 707 -3 b 656 200 671 53 656 118 l 656 675 l 250 675 l 250 10 b 240 0 250 3 247 0 l 222 0 b 213 10 215 0 213 3 l 213 675 b 43 625 153 674 96 657 b 28 628 35 621 29 622 l 21 642 b 25 657 17 649 18 653 b 233 710 82 692 151 710 "},"Ё":{"ha":789,"x_min":0,"x_max":0,"o":"m 289 1160 b 311 1138 307 1160 311 1154 l 311 1128 b 289 1106 311 1110 307 1106 l 281 1106 b 258 1128 264 1106 258 1110 l 258 1138 b 281 1160 258 1153 265 1160 m 551 1160 b 575 1138 567 1160 575 1153 l 575 1128 b 551 1106 575 1113 567 1106 l 544 1106 b 519 1128 524 1106 519 1110 l 519 1138 b 544 1160 519 1153 528 1160 m 700 986 b 711 975 707 986 711 982 l 711 960 b 700 949 711 953 707 949 l 158 949 l 158 519 l 640 519 b 651 508 647 519 651 515 l 651 492 b 640 481 651 485 647 481 l 158 481 l 158 38 l 719 38 b 731 26 726 38 731 33 l 731 11 b 719 0 731 4 726 0 l 129 0 b 118 11 122 0 118 4 l 118 975 b 129 986 118 982 122 986 "},"А":{"ha":871,"x_min":0,"x_max":0,"o":"m 857 11 b 849 0 860 4 857 0 l 832 0 b 813 10 822 0 815 3 l 678 344 l 200 344 l 65 10 b 44 0 63 3 56 0 l 31 0 b 22 11 22 0 19 4 l 415 982 b 431 993 418 989 424 993 l 447 993 b 464 983 456 993 461 990 m 449 914 b 439 951 444 926 440 939 l 438 951 b 429 914 435 933 432 921 l 213 379 l 665 379 "},"Б":{"ha":865,"x_min":0,"x_max":0,"o":"m 731 986 b 742 975 738 986 742 982 l 742 960 b 731 949 742 953 738 949 l 158 949 l 158 543 l 539 543 b 814 271 711 543 814 443 b 539 0 814 100 711 0 l 129 0 b 118 11 122 0 118 4 l 118 975 b 129 986 118 982 122 986 m 710 99 b 772 271 751 139 772 196 b 710 444 772 346 751 404 b 535 504 668 485 610 504 l 158 504 l 158 38 l 535 38 b 710 99 610 38 668 58 "},"В":{"ha":886,"x_min":0,"x_max":0,"o":"m 525 986 b 781 740 688 986 781 900 b 631 508 781 617 731 540 l 631 507 b 815 260 749 483 815 397 b 546 0 815 93 717 0 l 129 0 b 118 11 122 0 118 4 l 118 975 b 129 986 118 982 122 986 m 685 578 b 740 736 722 614 740 667 b 685 894 740 806 722 858 b 522 949 647 931 593 949 l 158 949 l 158 522 l 522 522 b 685 578 593 522 647 540 m 713 96 b 772 263 753 135 772 190 b 714 428 772 335 753 390 b 544 485 674 465 618 485 l 158 485 l 158 38 l 544 38 b 713 96 617 38 672 57 "},"Г":{"ha":703,"x_min":0,"x_max":0,"o":"m 668 986 b 679 975 675 986 679 982 l 679 960 b 668 949 679 953 675 949 l 158 949 l 158 11 b 147 0 158 4 154 0 l 129 0 b 118 11 122 0 118 4 l 118 975 b 129 986 118 982 122 986 "},"Д":{"ha":958,"x_min":0,"x_max":0,"o":"m 806 986 b 817 975 813 986 817 982 l 817 38 l 917 38 b 928 26 924 38 928 33 l 928 -201 b 917 -212 928 -208 924 -212 l 899 -212 b 888 -201 892 -212 888 -208 l 888 0 l 57 0 l 57 -201 b 46 -212 57 -208 53 -212 l 28 -212 b 17 -201 21 -212 17 -208 l 17 26 b 28 38 17 33 21 38 l 92 38 b 146 89 114 53 132 71 b 194 183 160 107 176 139 b 249 696 231 272 249 446 l 249 975 b 260 986 249 982 253 986 m 288 949 l 288 696 b 213 122 288 392 249 189 b 146 38 194 89 172 61 l 776 38 l 776 949 "},"Е":{"ha":789,"x_min":0,"x_max":0,"o":"m 700 986 b 711 975 707 986 711 982 l 711 960 b 700 949 711 953 707 949 l 158 949 l 158 519 l 640 519 b 651 508 647 519 651 515 l 651 492 b 640 481 651 485 647 481 l 158 481 l 158 38 l 719 38 b 731 26 726 38 731 33 l 731 11 b 719 0 731 4 726 0 l 129 0 b 118 11 122 0 118 4 l 118 975 b 129 986 118 982 122 986 "},"Ж":{"ha":1247,"x_min":0,"x_max":0,"o":"m 1201 986 b 1208 974 1211 986 1213 982 l 890 504 b 1047 360 957 485 1010 436 l 1222 13 b 1215 0 1226 4 1225 0 l 1199 0 b 1178 10 1189 0 1182 3 l 1010 342 b 785 481 961 440 901 481 l 650 481 l 650 11 b 640 0 650 4 647 0 l 621 0 b 610 11 614 0 610 4 l 610 481 l 476 481 b 250 342 358 481 300 442 l 83 10 b 61 0 79 3 72 0 l 44 0 b 38 13 35 0 33 4 l 214 360 b 369 504 251 436 303 483 l 53 974 b 58 986 46 982 49 986 l 78 986 b 101 976 89 986 97 983 l 413 515 b 476 519 431 518 451 519 l 610 519 l 610 975 b 621 986 610 982 614 986 l 640 986 b 650 975 647 986 650 982 l 650 519 l 785 519 b 849 515 808 519 829 518 l 1160 976 b 1183 986 1164 983 1172 986 "},"З":{"ha":844,"x_min":0,"x_max":0,"o":"m 747 733 b 610 510 747 628 703 539 b 778 264 721 478 778 388 b 435 -19 778 85 664 -19 b 63 231 214 -19 108 63 b 69 246 61 239 63 244 l 86 251 b 100 244 93 254 97 251 b 435 18 146 89 236 18 b 736 265 636 18 736 108 b 518 488 736 400 657 488 l 243 488 b 232 499 236 488 232 492 l 232 514 b 243 525 232 521 236 525 l 515 525 b 710 732 644 525 710 615 b 435 968 710 883 614 968 b 108 750 242 968 154 904 b 94 743 106 743 101 740 l 78 747 b 71 763 71 750 68 756 b 436 1006 117 928 221 1006 b 747 733 640 1006 747 907 "},"И":{"ha":957,"x_min":0,"x_max":0,"o":"m 828 986 b 839 975 835 986 839 982 l 839 11 b 828 0 839 4 835 0 l 808 0 b 799 11 801 0 799 4 l 799 671 b 804 925 799 764 800 849 l 801 925 l 646 697 l 161 8 b 147 0 157 3 151 0 l 129 0 b 118 11 122 0 118 4 l 118 975 b 129 986 118 982 122 986 l 147 986 b 158 975 154 986 158 982 l 158 338 b 154 61 158 247 157 156 l 156 61 l 325 310 l 797 979 b 810 986 799 983 803 986 "},"Й":{"ha":957,"x_min":0,"x_max":0,"o":"m 699 1225 b 483 1072 669 1124 597 1072 b 268 1225 365 1072 297 1119 b 274 1235 265 1229 267 1233 l 289 1240 b 301 1235 294 1242 299 1239 b 483 1103 328 1144 383 1103 b 665 1235 579 1103 640 1147 b 676 1240 668 1239 672 1242 l 693 1235 b 699 1225 700 1233 701 1229 m 828 986 b 839 975 835 986 839 982 l 839 11 b 828 0 839 4 835 0 l 808 0 b 799 11 801 0 799 4 l 799 671 b 804 925 799 764 800 849 l 801 925 l 646 697 l 161 8 b 147 0 157 3 151 0 l 129 0 b 118 11 122 0 118 4 l 118 975 b 129 986 118 982 122 986 l 147 986 b 158 975 154 986 158 982 l 158 338 b 154 61 158 247 157 156 l 156 61 l 325 310 l 797 979 b 810 986 799 983 803 986 "},"К":{"ha":825,"x_min":0,"x_max":0,"o":"m 794 13 b 789 0 801 4 799 0 l 772 0 b 750 10 761 0 754 3 l 583 342 b 357 481 533 442 475 481 l 158 481 l 158 11 b 147 0 158 4 154 0 l 129 0 b 118 11 122 0 118 4 l 118 975 b 129 986 118 982 122 986 l 147 986 b 158 975 154 986 158 982 l 158 519 l 356 519 b 394 518 374 519 386 519 l 732 976 b 756 986 736 983 744 986 l 774 986 b 781 974 785 986 788 982 l 438 511 b 619 360 517 496 578 444 "},"Л":{"ha":889,"x_min":0,"x_max":0,"o":"m 768 986 b 779 975 775 986 779 982 l 779 11 b 768 0 779 4 775 0 l 749 0 b 738 11 742 0 738 4 l 738 949 l 253 949 l 253 647 b 233 279 253 488 243 363 b 175 92 222 194 190 125 b 89 10 158 58 107 21 b 38 -17 79 4 63 -4 b 21 -12 31 -21 25 -19 l 14 3 b 18 18 10 10 11 15 b 108 76 63 40 74 46 b 174 194 142 107 151 133 b 213 647 201 283 208 418 l 213 975 b 224 986 213 982 217 986 "},"М":{"ha":1100,"x_min":0,"x_max":0,"o":"m 971 986 b 982 975 978 986 982 982 l 982 11 b 971 0 982 4 978 0 l 953 0 b 942 11 946 0 942 4 l 943 694 b 949 917 943 775 944 849 l 946 917 b 844 731 919 865 886 804 l 574 249 b 558 239 569 242 565 239 l 544 239 b 528 249 538 239 532 242 l 253 738 b 156 918 215 803 183 863 l 153 918 b 157 694 156 842 157 767 l 157 11 b 146 0 157 4 153 0 l 129 0 b 118 11 122 0 118 4 l 118 975 b 129 986 118 982 122 986 l 144 986 b 161 975 151 986 157 982 l 551 289 l 938 974 b 956 986 942 982 947 986 "},"Н":{"ha":940,"x_min":0,"x_max":0,"o":"m 813 986 b 824 975 819 986 824 982 l 824 11 b 813 0 824 4 819 0 l 793 0 b 782 11 786 0 782 4 l 782 481 l 158 481 l 158 11 b 147 0 158 4 154 0 l 129 0 b 118 11 122 0 118 4 l 118 975 b 129 986 118 982 122 986 l 147 986 b 158 975 154 986 158 982 l 158 519 l 782 519 l 782 975 b 793 986 782 982 786 986 "},"О":{"ha":914,"x_min":0,"x_max":0,"o":"m 88 667 b 458 1006 88 879 219 1006 b 826 667 696 1006 826 879 l 826 319 b 458 -19 826 107 696 -19 b 88 319 219 -19 88 107 m 785 665 b 458 968 785 856 668 968 b 128 665 246 968 128 856 l 128 321 b 458 18 128 131 246 18 b 785 321 668 18 785 131 "},"П":{"ha":932,"x_min":0,"x_max":0,"o":"m 803 986 b 814 975 810 986 814 982 l 814 11 b 803 0 814 4 810 0 l 783 0 b 772 11 776 0 772 4 l 772 949 l 158 949 l 158 11 b 147 0 158 4 154 0 l 129 0 b 118 11 122 0 118 4 l 118 975 b 129 986 118 982 122 986 "},"Р":{"ha":854,"x_min":0,"x_max":0,"o":"m 504 986 b 807 688 692 986 807 875 b 504 393 807 504 692 393 l 158 393 l 158 11 b 147 0 158 4 154 0 l 129 0 b 118 11 122 0 118 4 l 118 975 b 129 986 118 982 122 986 m 500 431 b 764 688 665 431 764 526 b 500 949 764 853 665 949 l 158 949 l 158 431 "},"С":{"ha":879,"x_min":0,"x_max":0,"o":"m 88 668 b 457 1006 88 879 218 1006 b 819 761 668 1006 771 926 b 811 747 822 753 819 749 l 796 742 b 781 749 789 739 783 742 b 457 968 735 900 646 968 b 129 669 242 968 129 857 l 129 318 b 457 18 129 131 246 18 b 785 246 650 18 739 90 b 799 253 788 253 792 256 l 815 247 b 822 232 822 246 824 240 b 457 -19 776 64 674 -19 b 88 319 219 -19 88 107 "},"Т":{"ha":729,"x_min":0,"x_max":0,"o":"m 700 986 b 711 975 707 986 711 982 l 711 960 b 700 949 711 953 707 949 l 385 949 l 385 11 b 374 0 385 4 381 0 l 356 0 b 344 11 349 0 344 4 l 344 949 l 29 949 b 18 960 22 949 18 953 l 18 975 b 29 986 18 982 22 986 "},"У":{"ha":800,"x_min":0,"x_max":0,"o":"m 785 986 b 790 975 792 986 794 982 l 296 10 b 276 0 292 3 286 0 l 257 0 b 250 11 247 0 246 4 l 388 276 l 15 975 b 22 986 11 982 14 986 l 42 986 b 61 976 51 986 57 983 l 410 321 l 746 976 b 765 986 749 983 756 986 "},"Ф":{"ha":1140,"x_min":0,"x_max":0,"o":"m 579 1021 b 590 1010 586 1021 590 1017 l 590 903 l 690 903 b 1065 550 933 903 1065 772 l 1065 443 b 690 90 1065 221 933 90 l 590 90 l 590 -17 b 579 -28 590 -24 586 -28 l 561 -28 b 550 -17 554 -28 550 -24 l 550 90 l 450 90 b 75 443 207 90 75 221 l 75 550 b 450 903 75 772 207 903 l 550 903 l 550 1010 b 561 1021 550 1017 554 1021 m 450 865 b 115 551 233 865 115 750 l 115 442 b 450 128 115 243 233 128 l 550 128 l 550 865 m 1025 551 b 690 865 1025 750 907 865 l 590 865 l 590 128 l 690 128 b 1025 442 907 128 1025 243 "},"Х":{"ha":833,"x_min":0,"x_max":0,"o":"m 819 15 b 815 0 826 6 825 0 l 792 0 b 771 10 782 0 775 3 l 425 469 l 81 10 b 61 0 76 3 69 0 l 38 0 b 33 15 28 0 26 6 l 400 500 l 43 975 b 49 986 38 982 39 986 l 72 986 b 93 976 81 986 88 983 l 426 533 l 760 976 b 781 986 765 983 772 986 l 803 986 b 810 975 813 986 815 982 l 453 500 "},"Ц":{"ha":951,"x_min":0,"x_max":0,"o":"m 908 38 b 919 26 915 38 919 33 l 919 -201 b 908 -212 919 -208 915 -212 l 890 -212 b 881 -201 883 -212 881 -208 l 881 0 l 129 0 b 118 11 122 0 118 4 l 118 975 b 129 986 118 982 122 986 l 147 986 b 158 975 154 986 158 982 l 158 38 l 768 38 l 768 975 b 779 986 768 982 772 986 l 799 986 b 810 975 806 986 810 982 l 810 38 "},"Ч":{"ha":858,"x_min":0,"x_max":0,"o":"m 731 986 b 742 975 738 986 742 982 l 742 11 b 731 0 742 4 738 0 l 711 0 b 700 11 704 0 700 4 l 700 415 b 403 382 617 393 518 382 b 60 722 157 382 60 496 l 60 975 b 71 986 60 982 64 986 l 89 986 b 100 975 96 986 100 982 l 100 722 b 404 419 100 517 182 419 b 700 454 514 419 613 431 l 700 975 b 711 986 700 982 704 986 "},"Ш":{"ha":1249,"x_min":0,"x_max":0,"o":"m 1121 986 b 1131 975 1128 986 1131 982 l 1131 11 b 1121 0 1131 4 1128 0 l 129 0 b 118 11 122 0 118 4 l 118 975 b 129 986 118 982 122 986 l 147 986 b 158 975 154 986 158 982 l 158 38 l 604 38 l 604 975 b 615 986 604 982 608 986 l 633 986 b 644 975 640 986 644 982 l 644 38 l 1090 38 l 1090 975 b 1101 986 1090 982 1094 986 "},"Щ":{"ha":1274,"x_min":0,"x_max":0,"o":"m 1233 38 b 1244 26 1240 38 1244 33 l 1244 -201 b 1233 -212 1244 -208 1240 -212 l 1215 -212 b 1204 -201 1208 -212 1204 -208 l 1204 0 l 129 0 b 118 11 122 0 118 4 l 118 975 b 129 986 118 982 122 986 l 147 986 b 158 975 154 986 158 982 l 158 38 l 604 38 l 604 975 b 615 986 604 982 608 986 l 633 986 b 644 975 640 986 644 982 l 644 38 l 1090 38 l 1090 975 b 1101 986 1090 982 1094 986 l 1121 986 b 1131 975 1128 986 1131 982 l 1131 38 "},"Ъ":{"ha":996,"x_min":0,"x_max":0,"o":"m 646 593 b 949 299 833 593 949 482 b 646 0 949 111 833 0 l 271 0 b 260 11 264 0 260 4 l 260 949 l 28 949 b 17 960 21 949 17 953 l 17 975 b 28 986 17 982 21 986 l 290 986 b 301 975 297 986 301 982 l 301 593 m 643 38 b 907 299 806 38 907 133 b 643 556 907 460 806 556 l 301 556 l 301 38 "},"Ы":{"ha":1150,"x_min":0,"x_max":0,"o":"m 129 0 b 118 11 122 0 118 4 l 118 975 b 129 986 118 982 122 986 l 147 986 b 158 975 154 986 158 982 l 158 593 l 504 593 b 807 299 692 593 807 482 b 504 0 807 111 692 0 m 992 975 b 1001 986 992 982 994 986 l 1021 986 b 1032 975 1028 986 1032 982 l 1032 11 b 1021 0 1032 4 1028 0 l 1001 0 b 992 11 994 0 992 4 m 158 556 l 158 38 l 500 38 b 764 299 665 38 764 133 b 500 556 764 460 665 556 "},"Ь":{"ha":854,"x_min":0,"x_max":0,"o":"m 129 0 b 118 11 122 0 118 4 l 118 975 b 129 986 118 982 122 986 l 147 986 b 158 975 154 986 158 982 l 158 593 l 504 593 b 807 299 692 593 807 482 b 504 0 807 111 692 0 m 158 556 l 158 38 l 500 38 b 764 299 665 38 764 133 b 500 556 764 460 665 556 "},"Э":{"ha":885,"x_min":0,"x_max":0,"o":"m 68 763 b 431 1006 117 928 219 1006 b 800 668 671 1006 800 881 l 800 318 b 431 -19 800 107 668 -19 b 65 231 214 -19 114 63 b 72 246 64 239 65 244 l 89 251 b 104 244 96 254 100 251 b 431 18 149 89 238 18 b 758 317 642 18 758 129 l 758 479 l 278 479 b 267 490 271 479 267 483 l 267 507 b 278 518 267 514 271 518 l 758 518 l 758 669 b 431 968 758 858 646 968 b 107 750 242 968 153 901 b 92 743 104 743 99 740 l 76 747 b 68 763 68 750 65 756 "},"Ю":{"ha":1260,"x_min":0,"x_max":0,"o":"m 440 668 b 807 1006 440 881 569 1006 b 1172 668 1042 1006 1172 881 l 1172 318 b 807 -19 1172 106 1042 -19 b 440 318 569 -19 440 106 l 440 481 l 158 481 l 158 11 b 147 0 158 4 154 0 l 129 0 b 118 11 122 0 118 4 l 118 975 b 129 986 118 982 122 986 l 147 986 b 158 975 154 986 158 982 l 158 519 l 440 519 m 1131 668 b 807 968 1131 857 1017 968 b 482 668 597 968 482 857 l 482 318 b 807 18 482 129 597 18 b 1131 318 1017 18 1131 129 "},"Я":{"ha":885,"x_min":0,"x_max":0,"o":"m 85 714 b 361 986 85 886 188 986 l 763 986 b 774 975 769 986 774 982 l 774 11 b 763 0 774 4 769 0 l 744 0 b 733 11 738 0 733 4 l 733 444 l 472 444 b 249 306 354 444 294 406 l 107 10 b 86 0 103 3 96 0 l 69 0 b 63 13 60 0 58 4 l 211 324 b 329 449 242 389 281 431 b 85 714 174 460 85 554 m 364 949 b 126 714 214 949 126 864 b 364 483 126 565 214 483 l 733 483 l 733 949 "},"а":{"ha":704,"x_min":0,"x_max":0,"o":"m 82 582 b 351 729 132 681 222 729 b 615 463 568 729 615 606 l 615 96 b 565 17 615 47 604 33 b 351 -19 510 -7 439 -19 b 121 32 239 -19 161 -3 b 58 190 79 65 58 118 b 357 396 58 340 140 396 b 578 379 399 396 472 390 l 578 464 b 350 694 578 590 540 694 b 115 567 240 694 161 651 b 101 561 111 561 107 560 l 88 567 b 82 582 79 569 78 575 m 578 346 b 354 364 501 358 428 364 b 97 190 165 364 97 317 b 150 57 97 129 115 85 b 350 14 185 28 251 14 b 542 46 429 14 493 25 b 578 101 574 58 578 67 "},"б":{"ha":765,"x_min":0,"x_max":0,"o":"m 522 1018 b 638 1039 576 1018 614 1025 b 653 1033 644 1043 649 1040 l 658 1018 b 651 1004 660 1013 658 1008 b 522 982 625 989 582 982 l 469 982 b 204 900 340 982 251 954 b 132 604 156 844 132 746 l 132 568 b 396 700 189 656 276 700 b 690 438 586 700 690 603 l 690 243 b 392 -19 690 78 586 -19 b 96 243 199 -19 96 78 l 96 599 b 176 926 96 756 122 864 b 469 1018 231 988 328 1018 m 651 438 b 392 665 651 582 563 665 b 253 633 340 665 293 654 b 168 571 213 611 183 590 b 133 515 153 550 140 532 l 133 243 b 392 15 133 99 225 15 b 651 243 563 15 651 99 "},"в":{"ha":738,"x_min":0,"x_max":0,"o":"m 646 533 b 549 371 646 453 614 399 b 671 190 631 344 671 285 b 478 0 671 69 599 0 l 114 0 b 103 11 107 0 103 4 l 103 699 b 114 710 103 706 107 710 l 460 710 b 646 533 578 710 646 646 m 463 385 b 608 531 551 385 608 436 b 454 676 608 628 557 676 l 140 676 l 140 385 m 474 33 b 632 193 574 33 632 92 b 469 353 632 294 574 353 l 140 353 l 140 33 "},"г":{"ha":588,"x_min":0,"x_max":0,"o":"m 553 710 b 564 700 560 710 564 707 l 564 685 b 553 675 564 678 560 675 l 140 675 l 140 10 b 129 0 140 3 136 0 l 113 0 b 103 10 106 0 103 3 l 103 700 b 113 710 103 707 106 710 "},"д":{"ha":797,"x_min":0,"x_max":0,"o":"m 757 35 b 768 25 764 35 768 32 l 768 -183 b 757 -193 768 -190 764 -193 l 740 -193 b 731 -183 733 -193 731 -190 l 731 0 l 53 0 l 53 -183 b 43 -193 53 -190 50 -193 l 26 -193 b 17 -183 19 -193 17 -190 l 17 25 b 26 35 17 32 19 35 l 79 35 b 132 97 101 54 119 75 b 169 225 144 118 157 161 b 186 472 181 289 186 371 l 186 700 b 197 710 186 707 190 710 l 658 710 b 669 700 665 710 669 707 l 669 35 m 224 471 b 199 178 224 339 215 240 b 126 35 182 114 158 67 l 631 35 l 631 675 l 224 675 "},"е":{"ha":729,"x_min":0,"x_max":0,"o":"m 74 442 b 369 729 74 621 176 729 b 665 443 560 729 665 619 l 665 374 b 640 350 665 358 657 350 l 111 350 l 111 247 b 360 14 111 103 197 14 b 622 163 483 14 571 64 b 639 167 626 169 632 171 l 651 160 b 654 146 658 157 658 153 b 360 -19 599 36 500 -19 b 74 250 171 -19 74 82 m 626 444 b 369 696 626 600 538 696 b 111 444 201 696 111 600 l 111 382 l 626 382 "},"ж":{"ha":1028,"x_min":0,"x_max":0,"o":"m 529 710 b 540 699 536 710 540 706 l 540 383 l 681 383 b 714 382 696 383 707 383 l 943 701 b 965 710 947 707 956 710 l 981 710 b 988 697 990 710 993 706 l 753 374 b 869 268 801 361 840 326 l 997 11 b 992 0 1001 4 1000 0 l 974 0 b 957 8 964 0 958 3 l 836 251 b 681 349 803 319 760 349 l 540 349 l 540 11 b 529 0 540 4 536 0 l 513 0 b 501 11 506 0 501 4 l 501 349 l 361 349 b 206 251 282 349 239 319 l 85 8 b 68 0 83 3 78 0 l 50 0 b 44 11 42 0 40 4 l 172 268 b 289 374 201 326 240 361 l 54 697 b 61 710 49 706 51 710 l 76 710 b 99 701 86 710 94 707 l 328 382 b 361 383 335 383 346 383 l 501 383 l 501 699 b 513 710 501 706 506 710 "},"з":{"ha":710,"x_min":0,"x_max":0,"o":"m 68 546 b 157 668 69 554 92 615 b 363 729 196 700 274 729 b 633 533 540 729 633 649 b 521 369 633 451 596 396 l 521 367 b 649 186 606 344 649 285 b 368 -19 649 63 556 -19 b 153 46 275 -19 193 15 b 97 104 132 61 114 81 b 69 150 81 128 71 143 b 58 176 67 157 63 165 b 65 192 54 183 57 189 l 81 196 b 94 189 88 199 93 196 l 96 186 b 244 36 122 114 171 64 b 368 15 281 22 322 15 b 608 189 528 15 608 83 b 425 349 608 299 553 349 l 261 349 b 250 360 254 349 250 353 l 250 371 b 261 382 250 378 254 382 l 424 382 b 594 531 535 382 594 438 b 363 694 594 626 517 694 b 142 600 244 690 176 650 b 106 538 114 563 113 556 l 104 535 b 89 526 101 526 96 524 l 75 531 b 68 546 68 533 65 539 "},"и":{"ha":781,"x_min":0,"x_max":0,"o":"m 129 710 b 140 700 136 710 140 707 l 140 185 b 136 57 140 142 139 99 l 139 57 b 206 150 151 76 174 107 l 640 704 b 651 710 643 708 647 710 l 668 710 b 678 700 675 710 678 707 l 678 10 b 668 0 678 3 675 0 l 651 0 b 640 10 644 0 640 3 l 640 513 b 644 653 640 561 642 608 l 643 653 b 569 553 633 640 610 607 l 142 7 b 129 0 138 3 133 0 l 113 0 b 103 10 106 0 103 3 l 103 700 b 113 710 103 707 106 710 "},"й":{"ha":781,"x_min":0,"x_max":0,"o":"m 599 979 b 392 822 571 875 501 822 b 185 979 282 822 213 875 b 190 990 182 985 183 989 l 206 996 b 217 990 213 999 215 997 b 392 854 240 896 296 854 b 565 990 488 854 539 896 b 576 996 568 997 572 999 l 593 990 b 599 979 597 989 600 986 m 129 710 b 140 700 136 710 140 707 l 140 185 b 136 57 140 142 139 99 l 139 57 b 206 150 151 76 174 107 l 640 704 b 651 710 643 708 647 710 l 668 710 b 678 700 675 710 678 707 l 678 10 b 668 0 678 3 675 0 l 651 0 b 640 10 644 0 640 3 l 640 513 b 644 653 640 561 642 608 l 643 653 b 569 553 633 640 610 607 l 142 7 b 129 0 138 3 133 0 l 113 0 b 103 10 106 0 103 3 l 103 700 b 113 710 103 707 106 710 "},"к":{"ha":711,"x_min":0,"x_max":0,"o":"m 676 11 b 671 0 681 4 679 0 l 653 0 b 636 8 643 0 638 3 l 515 251 b 360 349 482 319 439 349 l 140 349 l 140 11 b 129 0 140 4 136 0 l 113 0 b 103 11 106 0 103 4 l 103 699 b 113 710 103 706 106 710 l 129 710 b 140 699 136 710 140 706 l 140 383 l 357 383 l 371 383 l 622 701 b 644 710 626 707 635 710 l 660 710 b 667 697 669 710 672 706 l 411 376 b 549 268 471 368 517 332 "},"л":{"ha":740,"x_min":0,"x_max":0,"o":"m 631 710 b 642 700 638 710 642 707 l 642 10 b 631 0 642 3 638 0 l 614 0 b 604 10 607 0 604 3 l 604 674 l 206 674 l 206 453 b 153 96 206 279 189 161 b 29 -19 117 29 85 4 b 17 -15 24 -22 19 -21 l 8 3 b 13 14 6 7 7 11 b 99 79 51 32 65 39 b 135 153 114 100 126 124 b 168 454 151 208 168 315 l 168 700 b 178 710 168 707 171 710 "},"м":{"ha":882,"x_min":0,"x_max":0,"o":"m 768 710 b 779 697 775 710 779 706 l 779 11 b 768 0 779 4 775 0 l 756 0 b 743 11 747 0 743 4 l 743 494 b 749 644 743 528 744 578 l 746 644 l 679 521 l 465 139 b 449 129 461 132 456 129 l 439 129 b 424 139 432 129 426 132 l 210 513 l 136 646 l 135 646 b 139 482 138 590 139 536 l 139 11 b 129 0 139 4 136 0 l 114 0 b 103 11 107 0 103 4 l 103 697 b 114 710 103 706 107 710 l 126 710 b 143 699 135 710 140 706 l 444 171 l 740 699 b 754 710 744 706 749 710 "},"н":{"ha":774,"x_min":0,"x_max":0,"o":"m 661 710 b 671 700 668 710 671 707 l 671 10 b 661 0 671 3 668 0 l 644 0 b 633 10 638 0 633 3 l 633 349 l 140 349 l 140 10 b 129 0 140 3 136 0 l 113 0 b 103 10 106 0 103 3 l 103 700 b 113 710 103 707 106 710 l 129 710 b 140 700 136 710 140 707 l 140 383 l 633 383 l 633 700 b 644 710 633 707 638 710 "},"о":{"ha":744,"x_min":0,"x_max":0,"o":"m 79 493 b 372 729 79 638 194 729 b 665 493 550 729 665 638 l 665 217 b 372 -19 665 72 550 -19 b 79 217 194 -19 79 72 m 628 494 b 372 694 628 617 526 694 b 117 494 221 694 117 617 l 117 215 b 372 15 117 93 221 15 b 628 215 526 15 628 93 "},"п":{"ha":767,"x_min":0,"x_max":0,"o":"m 654 710 b 665 700 661 710 665 707 l 665 10 b 654 0 665 3 661 0 l 638 0 b 626 10 631 0 626 3 l 626 675 l 140 675 l 140 10 b 129 0 140 3 136 0 l 113 0 b 103 10 106 0 103 3 l 103 700 b 113 710 103 707 106 710 "},"р":{"ha":739,"x_min":0,"x_max":0,"o":"m 154 690 b 378 729 217 717 290 729 b 661 454 567 729 661 638 l 661 247 b 397 -19 661 69 574 -19 b 136 47 306 -19 218 3 l 136 -296 b 126 -306 136 -303 133 -306 l 108 -306 b 99 -296 101 -306 99 -303 l 99 614 b 154 690 99 658 110 672 m 624 453 b 374 694 624 614 540 694 b 175 658 299 694 232 682 b 136 606 140 643 136 639 l 136 86 b 396 15 217 39 303 15 b 624 247 547 15 624 93 "},"с":{"ha":713,"x_min":0,"x_max":0,"o":"m 76 464 b 368 729 76 631 178 729 b 651 538 533 729 614 665 b 646 522 653 531 651 525 l 631 518 b 617 524 624 515 619 517 b 365 694 582 644 511 694 b 114 465 203 694 114 608 l 114 246 b 365 15 114 103 204 15 b 619 196 508 15 586 72 b 633 203 622 203 626 206 l 650 199 b 657 185 657 196 658 192 b 367 -19 618 49 521 -19 b 76 247 179 -19 76 79 "},"т":{"ha":606,"x_min":0,"x_max":0,"o":"m 575 710 b 586 700 582 710 586 707 l 586 685 b 575 675 586 678 582 675 l 324 675 l 324 10 b 313 0 324 3 319 0 l 296 0 b 285 10 289 0 285 3 l 285 675 l 31 675 b 21 685 24 675 21 678 l 21 700 b 31 710 21 707 24 710 "},"у":{"ha":761,"x_min":0,"x_max":0,"o":"m 649 710 b 658 700 656 710 658 707 l 658 -57 b 372 -357 658 -257 563 -357 b 106 -194 246 -357 157 -303 b 110 -178 101 -187 103 -182 l 122 -172 b 139 -176 128 -168 133 -169 b 372 -321 185 -272 263 -321 b 621 -58 538 -321 621 -233 l 621 38 b 360 -15 528 3 442 -15 b 96 251 183 -15 96 74 l 96 700 b 106 710 96 707 99 710 l 124 710 b 133 700 131 710 133 707 l 133 253 b 364 19 133 97 210 19 b 621 74 446 19 531 38 l 621 700 b 632 710 621 707 625 710 "},"ф":{"ha":1025,"x_min":0,"x_max":0,"o":"m 532 721 b 656 729 575 725 617 728 b 949 456 851 729 949 638 l 949 254 b 656 -19 949 72 851 -19 b 532 -11 617 -18 575 -15 l 532 -296 b 521 -306 532 -303 528 -306 l 504 -306 b 494 -296 497 -306 494 -303 l 494 -11 b 367 -19 451 -15 410 -18 b 75 254 172 -19 75 72 l 75 443 b 174 675 75 554 113 636 b 367 729 233 714 294 729 b 494 721 410 728 451 725 l 494 1017 b 504 1028 494 1024 497 1028 l 521 1028 b 532 1017 528 1028 532 1024 m 114 256 b 368 17 114 96 199 17 b 494 24 403 17 446 19 l 494 686 b 368 693 446 690 403 693 b 206 649 311 693 261 682 b 114 442 150 615 114 543 m 910 454 b 656 693 910 614 825 693 b 531 686 621 693 579 690 l 531 24 b 656 17 579 19 621 17 b 910 256 825 17 910 96 "},"х":{"ha":654,"x_min":0,"x_max":0,"o":"m 613 710 b 618 700 622 710 624 707 l 357 364 l 635 10 b 628 0 639 3 636 0 l 606 0 b 590 8 600 0 594 3 l 333 338 l 75 8 b 57 0 71 3 64 0 l 38 0 b 32 10 31 0 28 3 l 310 365 l 44 700 b 53 710 40 707 43 710 l 72 710 b 89 701 81 710 86 707 l 333 392 l 575 701 b 592 710 579 707 585 710 "},"ц":{"ha":782,"x_min":0,"x_max":0,"o":"m 742 35 b 753 25 749 35 753 32 l 753 -183 b 742 -193 753 -190 749 -193 l 726 -193 b 715 -183 719 -193 715 -190 l 715 0 l 113 0 b 103 10 106 0 103 3 l 103 700 b 113 710 103 707 106 710 l 129 710 b 140 700 136 710 140 707 l 140 35 l 617 35 l 617 700 b 626 710 617 707 619 710 l 643 710 b 654 700 650 710 654 707 l 654 35 "},"ч":{"ha":697,"x_min":0,"x_max":0,"o":"m 54 700 b 64 710 54 707 57 710 l 81 710 b 92 700 88 710 92 707 l 92 515 b 332 310 92 369 161 310 b 557 347 390 310 465 322 l 557 700 b 568 710 557 707 561 710 l 585 710 b 596 700 592 710 596 707 l 596 10 b 585 0 596 3 592 0 l 568 0 b 557 10 561 0 557 3 l 557 311 b 329 274 489 286 413 274 b 54 514 139 274 54 347 "},"ш":{"ha":1050,"x_min":0,"x_max":0,"o":"m 938 710 b 949 700 944 710 949 707 l 949 10 b 938 0 949 3 944 0 l 113 0 b 103 10 106 0 103 3 l 103 700 b 113 710 103 707 106 710 l 129 710 b 140 700 136 710 140 707 l 140 35 l 506 35 l 506 700 b 517 710 506 707 510 710 l 533 710 b 544 700 540 710 544 707 l 544 35 l 910 35 l 910 700 b 921 710 910 707 914 710 "},"щ":{"ha":1075,"x_min":0,"x_max":0,"o":"m 1033 35 b 1044 25 1040 35 1044 32 l 1044 -183 b 1033 -193 1044 -190 1040 -193 l 1017 -193 b 1007 -183 1010 -193 1007 -190 l 1007 0 l 113 0 b 103 10 106 0 103 3 l 103 700 b 113 710 103 707 106 710 l 129 710 b 140 700 136 710 140 707 l 140 35 l 506 35 l 506 700 b 517 710 506 707 510 710 l 533 710 b 544 700 540 710 544 707 l 544 35 l 910 35 l 910 700 b 921 710 910 707 914 710 l 938 710 b 949 700 944 710 949 707 l 949 35 "},"ъ":{"ha":846,"x_min":0,"x_max":0,"o":"m 561 467 b 800 236 713 467 800 385 b 561 0 800 85 713 0 l 246 0 b 236 10 239 0 236 3 l 236 675 l 29 675 b 19 685 22 675 19 678 l 19 700 b 29 710 19 707 22 710 l 264 710 b 274 700 271 710 274 707 l 274 467 m 557 35 b 761 236 689 35 761 104 b 557 432 761 364 689 432 l 274 432 l 274 35 "},"ы":{"ha":956,"x_min":0,"x_max":0,"o":"m 428 467 b 665 236 578 467 665 385 b 428 0 665 85 578 0 l 113 0 b 103 10 106 0 103 3 l 103 700 b 113 710 103 707 106 710 l 129 710 b 140 700 136 710 140 707 l 140 467 m 843 710 b 854 700 850 710 854 707 l 854 10 b 843 0 854 3 850 0 l 826 0 b 815 10 819 0 815 3 l 815 700 b 826 710 815 707 819 710 m 424 35 b 626 236 556 35 626 104 b 424 432 626 364 556 432 l 140 432 l 140 35 "},"ь":{"ha":713,"x_min":0,"x_max":0,"o":"m 428 467 b 665 236 578 467 665 385 b 428 0 665 85 578 0 l 113 0 b 103 10 106 0 103 3 l 103 700 b 113 710 103 707 106 710 l 129 710 b 140 700 136 710 140 707 l 140 467 m 424 35 b 626 236 556 35 626 104 b 424 432 626 364 556 432 l 140 432 l 140 35 "},"э":{"ha":710,"x_min":0,"x_max":0,"o":"m 61 538 b 346 729 99 665 179 729 b 636 464 535 729 636 631 l 636 247 b 347 -19 636 81 535 -19 b 57 185 193 -19 96 49 b 63 199 56 192 57 196 l 79 204 b 93 196 86 206 92 203 b 347 15 128 72 207 15 b 599 246 508 15 599 103 l 599 346 l 256 346 b 244 357 249 346 244 350 l 244 371 b 256 382 244 378 249 382 l 599 382 l 599 465 b 347 694 599 608 513 694 b 97 524 201 694 132 644 b 83 518 94 517 90 515 l 68 522 b 61 538 61 525 60 531 "},"ю":{"ha":1025,"x_min":0,"x_max":0,"o":"m 368 497 b 656 729 368 640 482 729 b 943 496 832 729 943 640 l 943 214 b 656 -19 943 69 832 -19 b 368 214 479 -19 368 69 l 368 342 l 140 342 l 140 10 b 129 0 140 3 136 0 l 113 0 b 103 10 106 0 103 3 l 103 700 b 113 710 103 707 106 710 l 129 710 b 140 700 136 710 140 707 l 140 378 l 368 378 m 906 497 b 656 694 906 618 807 694 b 406 497 506 694 406 618 l 406 213 b 656 15 406 92 506 15 b 906 213 807 15 906 92 "},"я":{"ha":726,"x_min":0,"x_max":0,"o":"m 621 710 b 632 699 628 710 632 706 l 632 10 b 622 0 632 3 629 0 l 604 0 b 594 10 597 0 594 3 l 594 276 l 300 276 l 114 10 b 94 0 110 3 103 0 l 78 0 b 69 13 68 0 65 4 l 258 281 b 72 492 142 293 72 371 b 293 710 72 629 158 710 m 296 675 b 111 492 181 675 111 607 b 296 311 111 379 181 311 l 594 311 l 594 675 "},"ё":{"ha":729,"x_min":0,"x_max":0,"o":"m 242 931 b 265 908 260 931 265 925 l 265 899 b 242 876 265 881 260 876 l 233 876 b 211 899 217 876 211 881 l 211 908 b 233 931 211 924 218 931 m 504 931 b 528 908 519 931 528 924 l 528 899 b 504 876 528 883 519 876 l 497 876 b 472 899 476 876 472 881 l 472 908 b 497 931 472 924 481 931 m 74 442 b 369 729 74 621 176 729 b 665 443 560 729 665 619 l 665 374 b 640 350 665 358 657 350 l 111 350 l 111 247 b 360 14 111 103 197 14 b 622 163 483 14 571 64 b 639 167 626 169 632 171 l 651 160 b 654 146 658 157 658 153 b 360 -19 599 36 500 -19 b 74 250 171 -19 74 82 m 626 444 b 369 696 626 600 538 696 b 111 444 201 696 111 600 l 111 382 l 626 382 "}}}
